<svg xmlns="http://www.w3.org/2000/svg" xmlns:xlink="http://www.w3.org/1999/xlink" viewBox="0 0 500 500"><defs><clipPath id="freepik--clip-path--inject-101"><path d="M297.87,245.36S289.36,251,276,259.26s-11.92,7.37-13.33,16.17-6.24,38.85-6.24,47.93,6.24,30.35,4.25,40.28-4,23.54-1.7,27.51,23.82,14.18,42.54,14.18,47.94-4.82,52.19-10.21,4-9.36,4.26-16.73,2.55-16.74,9.07-42.27,16.74-78,12.2-85.37-18.72-6.24-28.08-6.24-17.3-1.13-28.36-2.84S297.87,245.36,297.87,245.36Z" style="fill:#90CAF9;stroke:#263238;stroke-linecap:round;stroke-linejoin:round"></path></clipPath><clipPath id="freepik--clip-path-2--inject-101"><path d="M289.36,231.46A62.7,62.7,0,0,1,293.9,255c-.29,12.48-.86,25.25,0,25.25s23.54-41.7,23.54-45.67-4-20.7-2.84-29.5,4.54-10.49,2.84-17.3-10.78-4.25-16.74,6S288.79,221.54,289.36,231.46Z" style="fill:#fff;stroke:#263238;stroke-linecap:round;stroke-linejoin:round"></path></clipPath><clipPath id="freepik--clip-path-3--inject-101"><path d="M341,264.93s-22.12,50.77-25.53,56.73-6.81,11.06-9.07,13a63.05,63.05,0,0,1-7.1,4.82s5.11,30.06,6,30.06,6.52-1.13,23-11.06S373.6,286.2,373.6,286.2" style="fill:#90CAF9;stroke:#263238;stroke-linecap:round;stroke-linejoin:round"></path></clipPath><clipPath id="freepik--clip-path-4--inject-101"><path d="M288.22,341.51s-61,12.77-65.8,13.05-18.72-1.13-25-2.84-7.09,1.14-9.36,2.56-12.76,6-14.18,9.07-2.56,6.24-3.12,7.09-8.23,4-11.63,5.39-4,3.41-1.7,4.26a11.67,11.67,0,0,0,3.68.85,13.16,13.16,0,0,0,6.53,2.55,56.79,56.79,0,0,0,6.8.57s8.23,4.54,14.75,2.55,15.6-5.1,19.57-7.94,8.8-6.24,9.65-6.24,31.77.57,51.34-.28S297,370.44,297,370.44s-1.71-21.55-3.12-26.94S288.22,341.51,288.22,341.51Z" style="fill:#fff;stroke:#263238;stroke-linecap:round;stroke-linejoin:round"></path></clipPath><clipPath id="freepik--clip-path-5--inject-101"><path d="M265.39,160.05s-14.18,13.62-13.62,21,6,21.84,5.68,25-2.84,4,1.13,11.06,19.29,25,28.08,23.26,25.24-15,26.38-21a78.55,78.55,0,0,0,.85-14.18s4.82-2.55,5.95-7.37.57-6.53.57-6.53-15.6,2.56-24.39-3.4-17.87-15.6-22.69-21S265.39,160.05,265.39,160.05Z" style="fill:#fff;stroke:#263238;stroke-linecap:round;stroke-linejoin:round"></path></clipPath></defs><g id="freepik--background-simple--inject-101"><path d="M165.31,113.34s-60.68,35-88.69,85S55.39,309.84,96.68,353.37s113.68,33,176.66,58.33,129.83,15.2,154.37-48.12-20.52-83.64-32.95-154.39S309.11,38.19,165.31,113.34Z" style="fill:#90CAF9"></path><path d="M165.31,113.34s-60.68,35-88.69,85S55.39,309.84,96.68,353.37s113.68,33,176.66,58.33,129.83,15.2,154.37-48.12-20.52-83.64-32.95-154.39S309.11,38.19,165.31,113.34Z" style="fill:#fff;opacity:0.7000000000000001"></path></g><g id="freepik--Kitchen--inject-101"><rect x="388.68" y="297.43" width="20.38" height="58.59" style="fill:none;stroke:#263238;stroke-linecap:round;stroke-linejoin:round"></rect><path d="M353.23,337.36a14.52,14.52,0,1,0,28,0Z" style="fill:none;stroke:#263238;stroke-linecap:round;stroke-linejoin:round"></path><rect x="350.7" y="329.32" width="33.05" height="8.04" rx="2.65" style="fill:none;stroke:#263238;stroke-linecap:round;stroke-linejoin:round"></rect><rect x="411.97" y="317.3" width="13.46" height="38.71" style="fill:none;stroke:#263238;stroke-linecap:round;stroke-linejoin:round"></rect><rect x="96.63" y="283.6" width="123.29" height="69.26" style="fill:none;stroke:#263238;stroke-linecap:round;stroke-linejoin:round"></rect><rect x="100.79" y="289.14" width="97.66" height="57.49" style="fill:none;stroke:#263238;stroke-linecap:round;stroke-linejoin:round"></rect><rect x="202.36" y="317.62" width="3.94" height="5.38" style="fill:none;stroke:#263238;stroke-linecap:round;stroke-linejoin:round"></rect><rect x="208.81" y="317.62" width="3.94" height="5.38" style="fill:none;stroke:#263238;stroke-linecap:round;stroke-linejoin:round"></rect><rect x="202.36" y="325.15" width="3.94" height="5.38" style="fill:none;stroke:#263238;stroke-linecap:round;stroke-linejoin:round"></rect><rect x="208.81" y="325.15" width="3.94" height="5.38" style="fill:none;stroke:#263238;stroke-linecap:round;stroke-linejoin:round"></rect><rect x="202.36" y="332.68" width="3.94" height="5.38" style="fill:none;stroke:#263238;stroke-linecap:round;stroke-linejoin:round"></rect><rect x="208.81" y="332.68" width="3.94" height="5.38" style="fill:none;stroke:#263238;stroke-linecap:round;stroke-linejoin:round"></rect><rect x="191.61" y="310.46" width="3.23" height="16.13" style="fill:none;stroke:#263238;stroke-linecap:round;stroke-linejoin:round"></rect><rect x="209.17" y="352.75" width="3.94" height="2.87" style="fill:none;stroke:#263238;stroke-linecap:round;stroke-linejoin:round"></rect><rect x="103.08" y="352.75" width="3.94" height="2.87" style="fill:none;stroke:#263238;stroke-linecap:round;stroke-linejoin:round"></rect><line x1="70.34" y1="356.01" x2="434.53" y2="356.01" style="fill:none;stroke:#263238;stroke-linecap:round;stroke-linejoin:round"></line><line x1="65.88" y1="366.98" x2="442" y2="366.98" style="fill:none;stroke:#263238;stroke-linecap:round;stroke-linejoin:round"></line><rect x="103.9" y="109.73" width="295.6" height="131.77" style="fill:none;stroke:#263238;stroke-linecap:round;stroke-linejoin:round"></rect><line x1="202.55" y1="241.11" x2="202.55" y2="109.71" style="fill:none;stroke:#263238;stroke-linecap:round;stroke-linejoin:round"></line><line x1="300.85" y1="241.11" x2="300.85" y2="109.71" style="fill:none;stroke:#263238;stroke-linecap:round;stroke-linejoin:round"></line><rect x="195.02" y="168.01" width="5.02" height="15.06" style="fill:#263238"></rect><rect x="205.07" y="168.01" width="5.02" height="15.06" style="fill:#263238"></rect><rect x="292.95" y="168.01" width="5.02" height="15.06" style="fill:#263238"></rect><rect x="302.99" y="168.01" width="5.02" height="15.06" style="fill:#263238"></rect></g><g id="freepik--Character--inject-101"><rect x="173.07" y="308.33" width="5.96" height="62.4" style="fill:#fff;stroke:#263238;stroke-linecap:round;stroke-linejoin:round;opacity:0.67"></rect><path d="M170.07,366.84s-1.68-2.78-6.69-2.5-3.35,3.9,0,4.18A13.25,13.25,0,0,0,170.07,366.84Z" style="fill:#fff;stroke:#263238;stroke-linecap:round;stroke-linejoin:round;opacity:0.67"></path><path d="M157.2,372s-1.94-.84-4.48,1.22-.28,3.33,1.59,2.2A8.51,8.51,0,0,0,157.2,372Z" style="fill:#fff;stroke:#263238;stroke-linecap:round;stroke-linejoin:round;opacity:0.67"></path><path d="M257.87,316a112,112,0,0,1-4,13.33c-2,4.82.29,11.34,1.14,12.19s-3.69.57-4.54,4a41.61,41.61,0,0,0-.85,8.23s-8.51,5.67-23.54,7.09-23.55.57-33.47.85-12.48,1.14-15.6,3.41-18.16,20.13-15.32,21.84,8.23-.29,8.23-.29-2,4.26,0,4.82,7.65-2.27,7.65-2.27,1.71,4,4.83,2.84a20,20,0,0,0,5.67-3.4s0,2,2,.85,9.08-5.39,11.92-9.65a70.68,70.68,0,0,1,4.54-6.24,121.05,121.05,0,0,0,35.17,5.68A137.06,137.06,0,0,0,276,374.7l-9.36-67.22Z" style="fill:#263238;stroke:#263238;stroke-linecap:round;stroke-linejoin:round"></path><path d="M260.51,406.72s-.24-13.52.7-15.61,4.66-.7,11.65,1.39,10.25,8.16,36.82,5.13,38.92-9.32,41.72-6.52,7.22,35.42,7.22,35.42Z" style="fill:#263238;stroke:#263238;stroke-linecap:round;stroke-linejoin:round"></path><path d="M297.87,245.36S289.36,251,276,259.26s-11.92,7.37-13.33,16.17-6.24,38.85-6.24,47.93,6.24,30.35,4.25,40.28-4,23.54-1.7,27.51,23.82,14.18,42.54,14.18,47.94-4.82,52.19-10.21,4-9.36,4.26-16.73,2.55-16.74,9.07-42.27,16.74-78,12.2-85.37-18.72-6.24-28.08-6.24-17.3-1.13-28.36-2.84S297.87,245.36,297.87,245.36Z" style="fill:#90CAF9"></path><g style="clip-path:url(#freepik--clip-path--inject-101)"><path d="M378.83,250.17c-2.68-1.8-5.81-1.37-8.27-.25-5.66,2.57-14.42,24.9-14.42,24.9L332.46,339.5s-6.17,25.74-14.41,42.21c-4.11,8.21-10.77,16.94-16.42,23.62,18.72,0,47.86-4.83,52.11-10.21s4-9.36,4.26-16.73,2.55-16.74,9.07-42.27,16.74-78,12.2-85.37A6.31,6.31,0,0,0,378.83,250.17Z" style="opacity:0.2"></path></g><path d="M297.87,245.36S289.36,251,276,259.26s-11.92,7.37-13.33,16.17-6.24,38.85-6.24,47.93,6.24,30.35,4.25,40.28-4,23.54-1.7,27.51,23.82,14.18,42.54,14.18,47.94-4.82,52.19-10.21,4-9.36,4.26-16.73,2.55-16.74,9.07-42.27,16.74-78,12.2-85.37-18.72-6.24-28.08-6.24-17.3-1.13-28.36-2.84S297.87,245.36,297.87,245.36Z" style="fill:none;stroke:#263238;stroke-linecap:round;stroke-linejoin:round"></path><path d="M293.9,280.25S281,314.35,281,324.74s-1.2,38.73-1.2,52.71-4,19.56-1.6,23.16" style="fill:none;stroke:#263238;stroke-linecap:round;stroke-linejoin:round"></path><path d="M322.26,310.88s6.24-30.35,11.06-44.81" style="fill:none;stroke:#263238;stroke-linecap:round;stroke-linejoin:round"></path><path d="M320,315.14s-3.69-22.13,2.55-37.73" style="fill:none;stroke:#263238;stroke-linecap:round;stroke-linejoin:round"></path><path d="M293.9,237.7s-5.11,9.36-11.35,23.26-4.82,15.88-2.55,13.33,14.18-10.49,18.72-11.06,14.75,19,16.16,17,12.2-19.29,11.92-34.32-10.5-17.59-14.75-17.59S293.9,237.7,293.9,237.7Z" style="fill:#263238;stroke:#263238;stroke-linecap:round;stroke-linejoin:round"></path><path d="M289.36,231.46A62.7,62.7,0,0,1,293.9,255c-.29,12.48-.86,25.25,0,25.25s23.54-41.7,23.54-45.67-4-20.7-2.84-29.5,4.54-10.49,2.84-17.3-10.78-4.25-16.74,6S288.79,221.54,289.36,231.46Z" style="fill:#fff"></path><g style="clip-path:url(#freepik--clip-path-2--inject-101)"><path d="M315.58,200.26l-1.12-16a1.83,1.83,0,0,0-.33-.11L306.28,187a25.51,25.51,0,0,0-5.58,6.77c-5.95,10.21-11.91,27.8-11.34,37.72a63.09,63.09,0,0,1,4.54,22.75c5.75-3.24,11.93-7.77,15.4-13.56a52,52,0,0,0,6.43-18.08c-.91-6-1.73-12.85-1.13-17.49A34.16,34.16,0,0,1,315.58,200.26Z" style="fill:#90CAF9"></path><path d="M315.58,200.26l-1.12-16a1.83,1.83,0,0,0-.33-.11L306.28,187a25.51,25.51,0,0,0-5.58,6.77c-5.95,10.21-11.91,27.8-11.34,37.72a63.09,63.09,0,0,1,4.54,22.75c5.75-3.24,11.93-7.77,15.4-13.56a52,52,0,0,0,6.43-18.08c-.91-6-1.73-12.85-1.13-17.49A34.16,34.16,0,0,1,315.58,200.26Z" style="fill:#fff;opacity:0.5"></path></g><path d="M289.36,231.46A62.7,62.7,0,0,1,293.9,255c-.29,12.48-.86,25.25,0,25.25s23.54-41.7,23.54-45.67-4-20.7-2.84-29.5,4.54-10.49,2.84-17.3-10.78-4.25-16.74,6S288.79,221.54,289.36,231.46Z" style="fill:none;stroke:#263238;stroke-linecap:round;stroke-linejoin:round"></path><path d="M341,264.93s-22.12,50.77-25.53,56.73-6.81,11.06-9.07,13a63.05,63.05,0,0,1-7.1,4.82s5.11,30.06,6,30.06,6.52-1.13,23-11.06S373.6,286.2,373.6,286.2" style="fill:#90CAF9"></path><g style="clip-path:url(#freepik--clip-path-3--inject-101)"><path d="M374.59,284l-18.45-9.13c-3.27,3.82-6.87,10.06-10.81,19.37-9.78,23.17-16.47,47.37-22.65,48.91s-6.69,2.06-6.18,7.21,0,2.57-4.11-3.09-6.7-7.21-7.21,2.57a48.71,48.71,0,0,1-2.24,10.07c1,5.39,2,9.73,2.3,9.73.85,0,6.52-1.13,23-11.06,11.67-7,29.64-40.53,39.08-59.37C368,296.56,373.9,290,374.59,284Z" style="opacity:0.2"></path></g><path d="M341,264.93s-22.12,50.77-25.53,56.73-6.81,11.06-9.07,13a63.05,63.05,0,0,1-7.1,4.82s5.11,30.06,6,30.06,6.52-1.13,23-11.06S373.6,286.2,373.6,286.2" style="fill:none;stroke:#263238;stroke-linecap:round;stroke-linejoin:round"></path><polyline points="86.97 398.6 233.68 398.6 402.27 433.86" style="fill:#fff;stroke:#263238;stroke-linecap:round;stroke-linejoin:round"></polyline><ellipse cx="209.51" cy="414.12" rx="70.77" ry="11.35" style="fill:#90CAF9;stroke:#263238;stroke-linecap:round;stroke-linejoin:round"></ellipse><ellipse cx="209.51" cy="413.42" rx="60.15" ry="8.93" style="fill:#707070;stroke:#263238;stroke-linecap:round;stroke-linejoin:round"></ellipse><path d="M181.29,380.94c-16.17-1.7-23.82-.85-23.82-.85s-1.42,5.1-.29,7.37,5.39,3.12,5.39,4.82-2,3.69.57,5.39,9.64,2.84,9.93,4.83c.21,1.5.1,12.66,0,17.94,3.18.36,12.29,1.33,18.67,1.55-.62-4.49-1.88-15.14-.55-19.78,1.7-5.95,6.52-4,7.66-7.94s-.29-4.82,1.13-6,7.66-4.25,8.51-6.52a13.46,13.46,0,0,0,.85-4.25A61.44,61.44,0,0,1,181.29,380.94Z" style="fill:#fff;stroke:#263238;stroke-linecap:round;stroke-linejoin:round;opacity:0.67"></path><path d="M288.22,341.51s-61,12.77-65.8,13.05-18.72-1.13-25-2.84-7.09,1.14-9.36,2.56-12.76,6-14.18,9.07-2.56,6.24-3.12,7.09-8.23,4-11.63,5.39-4,3.41-1.7,4.26a11.67,11.67,0,0,0,3.68.85,13.16,13.16,0,0,0,6.53,2.55,56.79,56.79,0,0,0,6.8.57s8.23,4.54,14.75,2.55,15.6-5.1,19.57-7.94,8.8-6.24,9.65-6.24,31.77.57,51.34-.28S297,370.44,297,370.44s-1.71-21.55-3.12-26.94S288.22,341.51,288.22,341.51Z" style="fill:#fff"></path><g style="clip-path:url(#freepik--clip-path-4--inject-101)"><path d="M273.1,361.25c-13.73,5.09-58,6.61-64.62,9.16-5.53,2.12-16.42,9.57-33.21,14,2.2,1.05,8.65,3.77,14,2.15,6.53-2,15.6-5.1,19.57-7.94s8.8-6.24,9.65-6.24,31.77.57,51.34-.28S297,370.44,297,370.44s-.21-2.61-.54-6.23l-5.57-12.12S286.84,356.16,273.1,361.25Z" style="fill:#90CAF9"></path><path d="M273.1,361.25c-13.73,5.09-58,6.61-64.62,9.16-5.53,2.12-16.42,9.57-33.21,14,2.2,1.05,8.65,3.77,14,2.15,6.53-2,15.6-5.1,19.57-7.94s8.8-6.24,9.65-6.24,31.77.57,51.34-.28S297,370.44,297,370.44s-.21-2.61-.54-6.23l-5.57-12.12S286.84,356.16,273.1,361.25Z" style="fill:#fff;opacity:0.5"></path></g><path d="M288.22,341.51s-61,12.77-65.8,13.05-18.72-1.13-25-2.84-7.09,1.14-9.36,2.56-12.76,6-14.18,9.07-2.56,6.24-3.12,7.09-8.23,4-11.63,5.39-4,3.41-1.7,4.26a11.67,11.67,0,0,0,3.68.85,13.16,13.16,0,0,0,6.53,2.55,56.79,56.79,0,0,0,6.8.57s8.23,4.54,14.75,2.55,15.6-5.1,19.57-7.94,8.8-6.24,9.65-6.24,31.77.57,51.34-.28S297,370.44,297,370.44s-1.71-21.55-3.12-26.94S288.22,341.51,288.22,341.51Z" style="fill:none;stroke:#263238;stroke-linecap:round;stroke-linejoin:round"></path><path d="M170.8,370.44s12.76-6.52,20.7-12.19" style="fill:#fff;stroke:#263238;stroke-linecap:round;stroke-linejoin:round"></path><path d="M161.15,380.94s14.75.85,23.83-5.67" style="fill:#fff;stroke:#263238;stroke-linecap:round;stroke-linejoin:round"></path><path d="M174.48,384.06s9.65-.57,16.17-3.4" style="fill:#fff;stroke:#263238;stroke-linecap:round;stroke-linejoin:round"></path><path d="M306.38,334.71s5.67,28.64,5.38,33.18,1.42,3.12-7.94,4.54-12.19.57-12.76-2.84-.85-14.75-3.12-21-2.27-8.22-.85-9.36,14.75-4.53,15.88-4.82S304.67,332.72,306.38,334.71Z" style="fill:#263238;stroke:#263238;stroke-linecap:round;stroke-linejoin:round"></path><path d="M327.51,204.91s-.51,15.44,19.82,18.28" style="fill:none;stroke:#263238;stroke-linecap:round;stroke-linejoin:round"></path><path d="M326,199.51s-.52,14.92,4.38,24.45" style="fill:none;stroke:#263238;stroke-linecap:round;stroke-linejoin:round"></path><ellipse cx="342.31" cy="186.51" rx="22.78" ry="26.38" style="fill:#263238;stroke:#263238;stroke-linecap:round;stroke-linejoin:round"></ellipse><path d="M254,183s-4.82-.57-11.06-10.78,6.24-25.81,17.87-32.05,33.47-9.64,48.22-2.84,32.9,23.55,34.32,43.4-8.8,27.51-18.72,30.35S310.49,208,309.07,206s-12.2-10.77-21.28-20.42-12.76-17-19.57-15.31S254,183,254,183Z" style="fill:#263238;stroke:#263238;stroke-linecap:round;stroke-linejoin:round"></path><path d="M335.89,175.81s-2.27,7.57-15.89,3-21.95-13.24-32.93-24.59-19.3-6.82-19.3-6.82S280.26,138,290.86,138s22.7,8.71,29.89,15.9" style="fill:none;stroke:#fff;stroke-linecap:round;stroke-linejoin:round"></path><path d="M337.78,166.35s11,23.08-4.54,40.11" style="fill:none;stroke:#fff;stroke-linecap:round;stroke-linejoin:round"></path><path d="M260.2,160.67s-16.07.53-16.65,6.05,7.57,7.19,7.57,7.19" style="fill:none;stroke:#fff;stroke-linecap:round;stroke-linejoin:round"></path><path d="M265.39,160.05s-14.18,13.62-13.62,21,6,21.84,5.68,25-2.84,4,1.13,11.06,19.29,25,28.08,23.26,25.24-15,26.38-21a78.55,78.55,0,0,0,.85-14.18s4.82-2.55,5.95-7.37.57-6.53.57-6.53-15.6,2.56-24.39-3.4-17.87-15.6-22.69-21S265.39,160.05,265.39,160.05Z" style="fill:#fff"></path><g style="clip-path:url(#freepik--clip-path-5--inject-101)"><path d="M296,187.85a101.1,101.1,0,0,1-13-10.83,77.92,77.92,0,0,0,8,10.21c6,6,9.33,13.17,7.13,23.59s0,20.85-3.84,24.69L291,238.86c9-4,21.07-14.45,22-19.53a78.55,78.55,0,0,0,.85-14.18s4.82-2.55,6-7.37.56-6.53.56-6.53S304.81,193.81,296,187.85Z" style="fill:#90CAF9"></path><path d="M296,187.85a101.1,101.1,0,0,1-13-10.83,77.92,77.92,0,0,0,8,10.21c6,6,9.33,13.17,7.13,23.59s0,20.85-3.84,24.69L291,238.86c9-4,21.07-14.45,22-19.53a78.55,78.55,0,0,0,.85-14.18s4.82-2.55,6-7.37.56-6.53.56-6.53S304.81,193.81,296,187.85Z" style="fill:#fff;opacity:0.5"></path></g><path d="M265.39,160.05s-14.18,13.62-13.62,21,6,21.84,5.68,25-2.84,4,1.13,11.06,19.29,25,28.08,23.26,25.24-15,26.38-21a78.55,78.55,0,0,0,.85-14.18s4.82-2.55,5.95-7.37.57-6.53.57-6.53-15.6,2.56-24.39-3.4-17.87-15.6-22.69-21S265.39,160.05,265.39,160.05Z" style="fill:none;stroke:#263238;stroke-linecap:round;stroke-linejoin:round"></path><path d="M271.12,220.88s6.57,1.38,12.09-5.53" style="fill:none;stroke:#263238;stroke-linecap:round;stroke-linejoin:round"></path><path d="M269.64,202s-.85,4.82-1.42,7.38,2,3.4,3.69,3.4a12.29,12.29,0,0,0,3.4-.57" style="fill:none;stroke:#263238;stroke-linecap:round;stroke-linejoin:round"></path><line x1="279.85" y1="190.4" x2="279.85" y2="195.23" style="fill:none;stroke:#263238;stroke-linecap:round;stroke-linejoin:round"></line><path d="M278.15,196.36s5.67,1.42,10.5-1.7" style="fill:none;stroke:#263238;stroke-linecap:round;stroke-linejoin:round;stroke-width:2px"></path><line x1="261.21" y1="195.79" x2="261.21" y2="199.74" style="fill:none;stroke:#263238;stroke-linecap:round;stroke-linejoin:round"></line><path d="M259.81,200.67a12,12,0,0,0,8.6-1.39" style="fill:none;stroke:#263238;stroke-linecap:round;stroke-linejoin:round;stroke-width:2px"></path><path d="M257.45,193s.28-8.8,8.5-6.24" style="fill:none;stroke:#263238;stroke-linecap:round;stroke-linejoin:round"></path><path d="M272.76,185.58s3.69-7.94,14.18-1.13" style="fill:none;stroke:#263238;stroke-linecap:round;stroke-linejoin:round"></path><path d="M280.7,198.06s2.84,1.14,7.09-1.13" style="fill:none;stroke:#263238;stroke-linecap:round;stroke-linejoin:round;stroke-width:2px"></path><path d="M261.13,202.32s2.84,1.13,7.09-1.14" style="fill:none;stroke:#263238;stroke-linecap:round;stroke-linejoin:round;stroke-width:2px"></path><path d="M270.76,154.18c-10.66,31.6,22.84,25.5,22.84,25.5s-16.37,5.72-24.37-2.28-5-21.53-5-21.53,4.29-6.93,10.72-6.93" style="fill:#263238;stroke:#263238;stroke-linecap:round;stroke-linejoin:round"></path><path d="M116.23,376.54h-7.72V312.37c0-19.59,15.49-36,35.08-36.37A35.83,35.83,0,0,1,180,310.87a.89.89,0,0,1-.89.9h-6a.88.88,0,0,1-.88-.86,28.07,28.07,0,0,0-28.71-27.18c-15.31.36-27.37,13.25-27.37,28.56Z" style="fill:#707070;stroke:#263238;stroke-linecap:round;stroke-linejoin:round"></path><path d="M114.26,373.64h-3v-61.8a33.32,33.32,0,0,1,66.63,0h-3a30.34,30.34,0,0,0-60.68,0Z" style="fill:#263238"></path><path d="M112.16,373h-1v-64a31.8,31.8,0,0,1,31.77-31.76h3.33A31.8,31.8,0,0,1,178,309.06v2.21h-1v-2.21a30.8,30.8,0,0,0-30.77-30.77h-3.33a30.81,30.81,0,0,0-30.78,30.77Z" style="fill:#fff"></path><polygon points="139.03 381.22 123.71 381.22 123.71 373.56 104.99 373.56 104.99 420.93 123.71 420.93 123.71 398.81 139.03 398.81 139.03 381.22" style="fill:#707070;stroke:#263238;stroke-linecap:round;stroke-linejoin:round"></polygon><rect x="133.49" y="375.45" width="10.8" height="29.41" rx="2.62" style="fill:#707070;stroke:#263238;stroke-linecap:round;stroke-linejoin:round"></rect></g><g id="freepik--Bottle--inject-101"><rect x="347.01" y="364.77" width="7.37" height="10.72" style="fill:#fff;stroke:#263238;stroke-linecap:round;stroke-linejoin:round"></rect><rect x="344.41" y="368.97" width="12.58" height="10.72" style="fill:#fff;stroke:#263238;stroke-linecap:round;stroke-linejoin:round"></rect><rect x="332.52" y="378.29" width="36.36" height="59.89" rx="7.32" style="fill:#fff;stroke:#263238;stroke-linecap:round;stroke-linejoin:round"></rect><polyline points="357.22 363.14 331.59 363.14 331.59 370.6" style="fill:none;stroke:#263238;stroke-linecap:round;stroke-linejoin:round;stroke-width:4px"></polyline><rect x="334.83" y="389.33" width="24.19" height="33.46" style="fill:#fff;stroke:#263238;stroke-linecap:round;stroke-linejoin:round"></rect></g></svg>