<svg xmlns="http://www.w3.org/2000/svg" viewBox="0 0 500 500"><g id="freepik--background-simple--inject-173"><path d="M421.41,290.83c-5.78-4.45-11.67-8.78-15.14-15.23-17.57-32.66,19-70.85-1.29-106.24-10.32-18-30.66-31.08-50.49-23.62-21.15,8-41.12,16.27-63.86,9.69-39.82-11.54-60.47-65.51-103.84-64.61-35.6.75-75.21,38.24-54.59,77.16,15.59,29.44,5.85,53.8-30.23,58.88S50.3,274.57,61,292.84s31.19,37.56,11.7,45.68S46.4,373,48.35,391.31s5.85,25.38,5.85,25.38H428.38s15.79-20.3,17.74-67c.84-20.24-3.34-40.06-18.65-53.9C425.55,294.06,423.49,292.44,421.41,290.83Z" style="fill:#90CAF9"></path><path d="M421.41,290.83c-5.78-4.45-11.67-8.78-15.14-15.23-17.57-32.66,19-70.85-1.29-106.24-10.32-18-30.66-31.08-50.49-23.62-21.15,8-41.12,16.27-63.86,9.69-39.82-11.54-60.47-65.51-103.84-64.61-35.6.75-75.21,38.24-54.59,77.16,15.59,29.44,5.85,53.8-30.23,58.88S50.3,274.57,61,292.84s31.19,37.56,11.7,45.68S46.4,373,48.35,391.31s5.85,25.38,5.85,25.38H428.38s15.79-20.3,17.74-67c.84-20.24-3.34-40.06-18.65-53.9C425.55,294.06,423.49,292.44,421.41,290.83Z" style="fill:#fff;opacity:0.7000000000000001"></path></g><g id="freepik--Buildings--inject-173"><polyline points="434.63 259.8 402.52 259.8 402.52 192.07 404.67 192.07 404.67 185.06 329.45 185.06 329.45 192.07 332.06 192.07 332.06 292.79 312.33 292.79 312.33 76.7 244.68 76.7 244.68 251.45 214.61 251.45 214.61 222.03 221.09 222.03 221.09 214.38 172.33 214.38 172.33 104.74 175.83 104.74 175.83 99.01 110.18 99.01 110.18 104.74 114.89 104.74 114.89 197.9 90.59 197.9 90.59 293.11 63.34 293.11" style="fill:none;stroke:#263238;stroke-miterlimit:10"></polyline><rect x="121.02" y="111.12" width="8.26" height="8.85" style="fill:none;stroke:#263238;stroke-miterlimit:10"></rect><rect x="133.14" y="111.12" width="8.26" height="8.85" style="fill:none;stroke:#263238;stroke-miterlimit:10"></rect><rect x="145.25" y="111.12" width="8.26" height="8.85" style="fill:none;stroke:#263238;stroke-miterlimit:10"></rect><rect x="157.37" y="111.12" width="8.26" height="8.85" style="fill:none;stroke:#263238;stroke-miterlimit:10"></rect><rect x="121.02" y="125.14" width="8.26" height="8.85" style="fill:none;stroke:#263238;stroke-miterlimit:10"></rect><rect x="133.14" y="125.14" width="8.26" height="8.85" style="fill:none;stroke:#263238;stroke-miterlimit:10"></rect><rect x="145.25" y="125.14" width="8.26" height="8.85" style="fill:none;stroke:#263238;stroke-miterlimit:10"></rect><rect x="157.37" y="125.14" width="8.26" height="8.85" style="fill:none;stroke:#263238;stroke-miterlimit:10"></rect><rect x="121.02" y="139.16" width="8.26" height="8.85" style="fill:none;stroke:#263238;stroke-miterlimit:10"></rect><rect x="133.14" y="139.16" width="8.26" height="8.85" style="fill:none;stroke:#263238;stroke-miterlimit:10"></rect><rect x="145.25" y="139.16" width="8.26" height="8.85" style="fill:none;stroke:#263238;stroke-miterlimit:10"></rect><rect x="157.37" y="139.16" width="8.26" height="8.85" style="fill:none;stroke:#263238;stroke-miterlimit:10"></rect><rect x="121.02" y="153.19" width="8.26" height="8.85" style="fill:none;stroke:#263238;stroke-miterlimit:10"></rect><rect x="133.14" y="153.19" width="8.26" height="8.85" style="fill:none;stroke:#263238;stroke-miterlimit:10"></rect><rect x="145.25" y="153.19" width="8.26" height="8.85" style="fill:none;stroke:#263238;stroke-miterlimit:10"></rect><rect x="157.37" y="153.19" width="8.26" height="8.85" style="fill:none;stroke:#263238;stroke-miterlimit:10"></rect><rect x="121.02" y="167.21" width="8.26" height="8.85" style="fill:none;stroke:#263238;stroke-miterlimit:10"></rect><rect x="133.14" y="167.21" width="8.26" height="8.85" style="fill:none;stroke:#263238;stroke-miterlimit:10"></rect><rect x="145.25" y="167.21" width="8.26" height="8.85" style="fill:none;stroke:#263238;stroke-miterlimit:10"></rect><rect x="157.37" y="167.21" width="8.26" height="8.85" style="fill:none;stroke:#263238;stroke-miterlimit:10"></rect><rect x="121.02" y="181.23" width="8.26" height="8.85" style="fill:none;stroke:#263238;stroke-miterlimit:10"></rect><rect x="133.14" y="181.23" width="8.26" height="8.85" style="fill:none;stroke:#263238;stroke-miterlimit:10"></rect><rect x="145.25" y="181.23" width="8.26" height="8.85" style="fill:none;stroke:#263238;stroke-miterlimit:10"></rect><rect x="157.37" y="181.23" width="8.26" height="8.85" style="fill:none;stroke:#263238;stroke-miterlimit:10"></rect><rect x="121.02" y="195.26" width="8.26" height="8.85" style="fill:none;stroke:#263238;stroke-miterlimit:10"></rect><rect x="133.14" y="195.26" width="8.26" height="8.85" style="fill:none;stroke:#263238;stroke-miterlimit:10"></rect><rect x="145.25" y="195.26" width="8.26" height="8.85" style="fill:none;stroke:#263238;stroke-miterlimit:10"></rect><rect x="157.37" y="195.26" width="8.26" height="8.85" style="fill:none;stroke:#263238;stroke-miterlimit:10"></rect><rect x="121.02" y="209.28" width="8.26" height="8.85" style="fill:none;stroke:#263238;stroke-miterlimit:10"></rect><rect x="133.14" y="209.28" width="8.26" height="8.85" style="fill:none;stroke:#263238;stroke-miterlimit:10"></rect><rect x="145.25" y="209.28" width="8.26" height="8.85" style="fill:none;stroke:#263238;stroke-miterlimit:10"></rect><rect x="157.37" y="209.28" width="8.26" height="8.85" style="fill:none;stroke:#263238;stroke-miterlimit:10"></rect><rect x="166.89" y="222.11" width="8.26" height="8.85" style="fill:none;stroke:#263238;stroke-miterlimit:10"></rect><rect x="179.01" y="222.11" width="8.26" height="8.85" style="fill:none;stroke:#263238;stroke-miterlimit:10"></rect><rect x="191.13" y="222.11" width="8.26" height="8.85" style="fill:none;stroke:#263238;stroke-miterlimit:10"></rect><rect x="203.25" y="222.11" width="8.26" height="8.85" style="fill:none;stroke:#263238;stroke-miterlimit:10"></rect><rect x="166.89" y="236.13" width="8.26" height="8.85" style="fill:none;stroke:#263238;stroke-miterlimit:10"></rect><rect x="179.01" y="236.13" width="8.26" height="8.85" style="fill:none;stroke:#263238;stroke-miterlimit:10"></rect><rect x="191.13" y="236.13" width="8.26" height="8.85" style="fill:none;stroke:#263238;stroke-miterlimit:10"></rect><rect x="203.25" y="236.13" width="8.26" height="8.85" style="fill:none;stroke:#263238;stroke-miterlimit:10"></rect><rect x="166.89" y="250.15" width="8.26" height="8.85" style="fill:none;stroke:#263238;stroke-miterlimit:10"></rect><rect x="179.01" y="250.15" width="8.26" height="8.85" style="fill:none;stroke:#263238;stroke-miterlimit:10"></rect><rect x="191.13" y="250.15" width="8.26" height="8.85" style="fill:none;stroke:#263238;stroke-miterlimit:10"></rect><rect x="203.25" y="250.15" width="8.26" height="8.85" style="fill:none;stroke:#263238;stroke-miterlimit:10"></rect><rect x="166.89" y="264.18" width="8.26" height="8.85" style="fill:none;stroke:#263238;stroke-miterlimit:10"></rect><rect x="179.01" y="264.18" width="8.26" height="8.85" style="fill:none;stroke:#263238;stroke-miterlimit:10"></rect><rect x="191.13" y="264.18" width="8.26" height="8.85" style="fill:none;stroke:#263238;stroke-miterlimit:10"></rect><rect x="203.25" y="264.18" width="8.26" height="8.85" style="fill:none;stroke:#263238;stroke-miterlimit:10"></rect><rect x="166.89" y="278.2" width="8.26" height="8.85" style="fill:none;stroke:#263238;stroke-miterlimit:10"></rect><rect x="179.01" y="278.2" width="8.26" height="8.85" style="fill:none;stroke:#263238;stroke-miterlimit:10"></rect><rect x="191.13" y="278.2" width="8.26" height="8.85" style="fill:none;stroke:#263238;stroke-miterlimit:10"></rect><rect x="203.25" y="278.2" width="8.26" height="8.85" style="fill:none;stroke:#263238;stroke-miterlimit:10"></rect><rect x="166.89" y="292.22" width="8.26" height="8.85" style="fill:none;stroke:#263238;stroke-miterlimit:10"></rect><rect x="179.01" y="292.22" width="8.26" height="8.85" style="fill:none;stroke:#263238;stroke-miterlimit:10"></rect><rect x="191.13" y="292.22" width="8.26" height="8.85" style="fill:none;stroke:#263238;stroke-miterlimit:10"></rect><rect x="203.25" y="292.22" width="8.26" height="8.85" style="fill:none;stroke:#263238;stroke-miterlimit:10"></rect><rect x="166.89" y="306.25" width="8.26" height="8.85" style="fill:none;stroke:#263238;stroke-miterlimit:10"></rect><rect x="179.01" y="306.25" width="8.26" height="8.85" style="fill:none;stroke:#263238;stroke-miterlimit:10"></rect><rect x="191.13" y="306.25" width="8.26" height="8.85" style="fill:none;stroke:#263238;stroke-miterlimit:10"></rect><rect x="203.25" y="306.25" width="8.26" height="8.85" style="fill:none;stroke:#263238;stroke-miterlimit:10"></rect><rect x="166.89" y="320.27" width="8.26" height="8.85" style="fill:none;stroke:#263238;stroke-miterlimit:10"></rect><rect x="179.01" y="320.27" width="8.26" height="8.85" style="fill:none;stroke:#263238;stroke-miterlimit:10"></rect><rect x="191.13" y="320.27" width="8.26" height="8.85" style="fill:none;stroke:#263238;stroke-miterlimit:10"></rect><rect x="203.25" y="320.27" width="8.26" height="8.85" style="fill:none;stroke:#263238;stroke-miterlimit:10"></rect><rect x="343.48" y="194.62" width="8.26" height="8.85" style="fill:none;stroke:#263238;stroke-miterlimit:10"></rect><rect x="355.59" y="194.62" width="8.26" height="8.85" style="fill:none;stroke:#263238;stroke-miterlimit:10"></rect><rect x="367.71" y="194.62" width="8.26" height="8.85" style="fill:none;stroke:#263238;stroke-miterlimit:10"></rect><rect x="379.83" y="194.62" width="8.26" height="8.85" style="fill:none;stroke:#263238;stroke-miterlimit:10"></rect><rect x="343.48" y="208.64" width="8.26" height="8.85" style="fill:none;stroke:#263238;stroke-miterlimit:10"></rect><rect x="355.59" y="208.64" width="8.26" height="8.85" style="fill:none;stroke:#263238;stroke-miterlimit:10"></rect><rect x="367.71" y="208.64" width="8.26" height="8.85" style="fill:none;stroke:#263238;stroke-miterlimit:10"></rect><rect x="379.83" y="208.64" width="8.26" height="8.85" style="fill:none;stroke:#263238;stroke-miterlimit:10"></rect><rect x="343.48" y="222.67" width="8.26" height="8.85" style="fill:none;stroke:#263238;stroke-miterlimit:10"></rect><rect x="355.59" y="222.67" width="8.26" height="8.85" style="fill:none;stroke:#263238;stroke-miterlimit:10"></rect><rect x="367.71" y="222.67" width="8.26" height="8.85" style="fill:none;stroke:#263238;stroke-miterlimit:10"></rect><rect x="379.83" y="222.67" width="8.26" height="8.85" style="fill:none;stroke:#263238;stroke-miterlimit:10"></rect><rect x="343.48" y="236.69" width="8.26" height="8.85" style="fill:none;stroke:#263238;stroke-miterlimit:10"></rect><rect x="355.59" y="236.69" width="8.26" height="8.85" style="fill:none;stroke:#263238;stroke-miterlimit:10"></rect><rect x="367.71" y="236.69" width="8.26" height="8.85" style="fill:none;stroke:#263238;stroke-miterlimit:10"></rect><rect x="379.83" y="236.69" width="8.26" height="8.85" style="fill:none;stroke:#263238;stroke-miterlimit:10"></rect><rect x="343.48" y="250.71" width="8.26" height="8.85" style="fill:none;stroke:#263238;stroke-miterlimit:10"></rect><rect x="355.59" y="250.71" width="8.26" height="8.85" style="fill:none;stroke:#263238;stroke-miterlimit:10"></rect><rect x="367.71" y="250.71" width="8.26" height="8.85" style="fill:none;stroke:#263238;stroke-miterlimit:10"></rect><rect x="379.83" y="250.71" width="8.26" height="8.85" style="fill:none;stroke:#263238;stroke-miterlimit:10"></rect><rect x="343.48" y="264.73" width="8.26" height="8.85" style="fill:none;stroke:#263238;stroke-miterlimit:10"></rect><rect x="355.59" y="264.73" width="8.26" height="8.85" style="fill:none;stroke:#263238;stroke-miterlimit:10"></rect><rect x="367.71" y="264.73" width="8.26" height="8.85" style="fill:none;stroke:#263238;stroke-miterlimit:10"></rect><rect x="379.83" y="264.73" width="8.26" height="8.85" style="fill:none;stroke:#263238;stroke-miterlimit:10"></rect><rect x="343.48" y="278.76" width="8.26" height="8.85" style="fill:none;stroke:#263238;stroke-miterlimit:10"></rect><rect x="355.59" y="278.76" width="8.26" height="8.85" style="fill:none;stroke:#263238;stroke-miterlimit:10"></rect><rect x="367.71" y="278.76" width="8.26" height="8.85" style="fill:none;stroke:#263238;stroke-miterlimit:10"></rect><rect x="379.83" y="278.76" width="8.26" height="8.85" style="fill:none;stroke:#263238;stroke-miterlimit:10"></rect><rect x="343.48" y="292.78" width="8.26" height="8.85" style="fill:none;stroke:#263238;stroke-miterlimit:10"></rect><rect x="355.59" y="292.78" width="8.26" height="8.85" style="fill:none;stroke:#263238;stroke-miterlimit:10"></rect><rect x="367.71" y="292.78" width="8.26" height="8.85" style="fill:none;stroke:#263238;stroke-miterlimit:10"></rect><rect x="379.83" y="292.78" width="8.26" height="8.85" style="fill:none;stroke:#263238;stroke-miterlimit:10"></rect><line x1="251.05" y1="81.8" x2="251.05" y2="338.04" style="fill:none;stroke:#263238;stroke-miterlimit:10"></line><line x1="259.25" y1="81.8" x2="259.25" y2="338.04" style="fill:none;stroke:#263238;stroke-miterlimit:10"></line><line x1="267.44" y1="81.8" x2="267.44" y2="338.04" style="fill:none;stroke:#263238;stroke-miterlimit:10"></line><line x1="275.64" y1="81.8" x2="275.64" y2="338.04" style="fill:none;stroke:#263238;stroke-miterlimit:10"></line><line x1="283.83" y1="81.8" x2="283.83" y2="338.04" style="fill:none;stroke:#263238;stroke-miterlimit:10"></line><line x1="292.03" y1="81.8" x2="292.03" y2="338.04" style="fill:none;stroke:#263238;stroke-miterlimit:10"></line><line x1="300.22" y1="81.8" x2="300.22" y2="338.04" style="fill:none;stroke:#263238;stroke-miterlimit:10"></line><line x1="308.42" y1="81.8" x2="308.42" y2="338.04" style="fill:none;stroke:#263238;stroke-miterlimit:10"></line><rect x="78.31" y="333.58" width="146.94" height="8.29" style="fill:none;stroke:#263238;stroke-miterlimit:10"></rect><rect x="315.43" y="333.58" width="131.95" height="8.29" style="fill:none;stroke:#263238;stroke-miterlimit:10"></rect></g><g id="freepik--Clouds--inject-173"><path d="M208.64,190.48c-1.29-.7-1.88-.11-2.35-.7s1.29-2.11-2.23-3.64c0,0-.23-3.28-5-3.4s-3.52,3.29-4.81,4.11-1.64-.47-2.93.35-.7,2.46-1.76,2.7-2.46-1.06-3.75-.24-1.29,1.53-1.87,1.53-1.76-.47-2.47,0-1.52,1.05-1.52,1.05h29.66A1.51,1.51,0,0,0,208.64,190.48Z" style="fill:none;stroke:#263238;stroke-miterlimit:10"></path><path d="M397.89,163.6c-3.32-1.81-4.82-.3-6-1.81s3.32-5.43-5.73-9.35c0,0-.6-8.44-13-8.74s-9,8.44-12.36,10.55-4.22-1.2-7.54.91-1.81,6.33-4.52,6.93-6.33-2.71-9.65-.6-3.32,3.92-4.82,3.92-4.53-1.21-6.34,0-3.92,2.71-3.92,2.71H400.3S401.21,165.41,397.89,163.6Z" style="fill:none;stroke:#263238;stroke-miterlimit:10"></path><path d="M238.11,102.36c-2.07-1.13-3-.18-3.76-1.13s2.07-3.38-3.58-5.83c0,0-.38-5.27-8.09-5.46S217,95.21,215,96.53s-2.63-.75-4.71.56-1.12,4-2.82,4.33-4-1.69-6-.37-2.07,2.44-3,2.44-2.83-.75-4,0-2.45,1.7-2.45,1.7h47.62S240.18,103.49,238.11,102.36Z" style="fill:none;stroke:#263238;stroke-miterlimit:10"></path></g><g id="freepik--character-3--inject-173"><path d="M399.82,321.94s-1.92,3.4-1.92,4.43-.44,4-.44,4.58,2.07.88,2.21.15l.15-.74a19.34,19.34,0,0,0,4.58-.3c1.48-.44,1.77-.88,2.07-3.25a19,19,0,0,0,0-4.43Z" style="fill:#fff;stroke:#263238;stroke-linecap:round;stroke-linejoin:round"></path><path d="M397.9,328.88s5.91,1.62,6.65.44-3.7-1.77-3.7-1.77.89-.15,1.19-2.21" style="fill:#fff;stroke:#263238;stroke-linecap:round;stroke-linejoin:round"></path><path d="M394.86,278.26s6.91,9.31,9,17.42c1.74,6.72,3.18,23.06,3.54,27.24a1.42,1.42,0,0,1-1.24,1.54l-6.88.9L393.06,278Z" style="fill:#263238;stroke:#263238;stroke-linecap:round;stroke-linejoin:round"></path><path d="M347.25,399.9a64.43,64.43,0,0,1-8.25,2.71c-3.46.75-7.66.15-7.66,1.95s4.65,5.1,8.41,5.85,9.91,1.06,10.81,1.51,2.1,1.05,3.15-.3,2.26-6.76,2.26-8.41S347.25,399.9,347.25,399.9Z" style="fill:#263238;stroke:#263238;stroke-linecap:round;stroke-linejoin:round"></path><path d="M398.31,405.16a25.75,25.75,0,0,1-7.22,6.18c-5.1,3.15-7.31,3.63-2.81,5s12.14-.2,14.84-2.3,2.1.15,4.51-1.8a5.54,5.54,0,0,0,1.35-6.61C408.23,404,398.31,405.16,398.31,405.16Z" style="fill:#263238;stroke:#263238;stroke-linecap:round;stroke-linejoin:round"></path><path d="M369.33,324.21s-2.25,8.41-3,10.52S357.17,353.35,356,361s-5.86,26.28-6.76,29.43-5.41,9.76-5.71,10.21-.3,1.2.75,2,9.76,6.9,10.51,7.5,1.81.6,3-1.35,4.8-17,8.11-25.53,3.6-21,4.2-21.77,8.71-14.72,8.71-14.72,4.51,17.72,6.61,23.13S392.46,388.34,394,395s1.2,10.81,1.8,11.56l.6.75a21.16,21.16,0,0,0,4.93,2.73c2.56.9,5,1,6.3-.19.33-.3,2.74-2.09,2.89-4.49s-2.4-6.91-3.16-11.26-3.75-21-5.4-25.08-3.16-6-3.46-8.86-1.5-20.88-1-24.78,2.41-8.86,2.41-10.82v-4.65S378.94,325.27,369.33,324.21Z" style="fill:#8c8c8c;stroke:#263238;stroke-linecap:round;stroke-linejoin:round"></path><path d="M365.88,246.27a27.39,27.39,0,0,0-1.2,4.81c0,1.2,1.11,2.48,1.11,2.93s-3.22,3.68-2.92,4.58,2.71,2.1,2.71,2.1,1.35,4.05,1.65,4.66.3.75.9.9,4.35-1.35,4.35-1.35l2,3.9,10.81-6.61s-3-2.7-1.5-4.95,5.55-10.82,4.2-13.67-11-7.21-17-6.31-10.36,7.51-9.31,8.71S365.88,246.27,365.88,246.27Z" style="fill:#fff;stroke:#263238;stroke-linecap:round;stroke-linejoin:round"></path><path d="M388,243.57c-1.35-2.85-11-7.21-17-6.31s-10.36,7.51-9.31,8.71,4.21.3,4.21.3l7.05-1.65s-3.3,3.76-2.4,4.81,4.66,2.85,4.66,2.85l.6,2.4s.9-.15,1-.9a2.76,2.76,0,0,1,.9-1.35s.45,1.2,1.05,3.3c.37,1.3,2.56,2.19,4.57,2.48a2.36,2.36,0,0,1,.39-1C385.25,255,389.3,246.42,388,243.57Z" style="fill:#263238;stroke:#263238;stroke-linecap:round;stroke-linejoin:round"></path><path d="M375.79,254.68s1.65-4.65,2.85-3.15.9,5.26,0,5.86-1.8-1.06-1.8-1.06" style="fill:#fff;stroke:#263238;stroke-linecap:round;stroke-linejoin:round"></path><path d="M370.23,273.45a26.26,26.26,0,0,0-4.2,12.17c-.6,7.21,1.5,30.18,1.65,33.34s-.45,5.1.75,6.76,11.41,2.25,18.47.9S403,323,403.27,320.91s-1.5-18.47-5.71-33.79-5.25-17.87-6-19.67-5.11-1.65-11,.75A74.63,74.63,0,0,0,370.23,273.45Z" style="fill:#263238;stroke:#263238;stroke-linecap:round;stroke-linejoin:round"></path><path d="M382.1,295.23s11.56-1.35,15.76-3" style="fill:none;stroke:#fff;stroke-linecap:round;stroke-linejoin:round"></path><path d="M372.93,306.34s15-1,27-5.7" style="fill:none;stroke:#fff;stroke-linecap:round;stroke-linejoin:round"></path><path d="M369.18,316.25s16.67,2.26,32.29-6.45" style="fill:none;stroke:#fff;stroke-linecap:round;stroke-linejoin:round"></path><line x1="395.31" y1="282.62" x2="385.1" y2="284.72" style="fill:none;stroke:#fff;stroke-linecap:round;stroke-linejoin:round"></line><path d="M392.31,273.91c-1.5.3-10.21,2.85-10.21,2.85" style="fill:none;stroke:#fff;stroke-linecap:round;stroke-linejoin:round"></path><line x1="379.24" y1="272.4" x2="378.64" y2="275.41" style="fill:none;stroke:#fff;stroke-linecap:round;stroke-linejoin:round"></line><path d="M369.94,273.05s.59-2.45,6-6.95,11.71-9.61,13.51-7.81,3.61,8.26,3,9.61-1.2.15-6,1.35-8.56,2.25-11.56,3.9-6.42,4.45-6.27,2.94A7.23,7.23,0,0,1,369.94,273.05Z" style="fill:#fff;stroke:#263238;stroke-linecap:round;stroke-linejoin:round"></path><line x1="378.49" y1="345.69" x2="374.59" y2="333.07" style="fill:none;stroke:#263238;stroke-linecap:round;stroke-linejoin:round"></line><polyline points="339.6 342.84 346.65 329.62 353.11 329.92 357.92 343.29" style="fill:none;stroke:#263238;stroke-linecap:round;stroke-linejoin:round"></polyline><path d="M346.05,326.17a18.19,18.19,0,0,0-2.1,3c-.45,1.05,1.35,3.3,1.8,3.15S346.05,326.17,346.05,326.17Z" style="fill:#fff;stroke:#263238;stroke-linecap:round;stroke-linejoin:round"></path><path d="M350,320.46s-3.76,4.35-3.91,5.71-1.5,5.85-1.05,6.45a2.62,2.62,0,0,0,1.5.75l.91-.45a12.2,12.2,0,0,0,2.85.6c1.05,0,1.65.61,2.85-1s1.2-4.8,1.2-5.7a3.8,3.8,0,0,0-.6-1.8l2.41-3.31Z" style="fill:#fff;stroke:#263238;stroke-linecap:round;stroke-linejoin:round"></path><polygon points="336.59 342.24 360.62 341.94 365.28 371.22 333.29 370.92 336.59 342.24" style="fill:#263238;stroke:#263238;stroke-linecap:round;stroke-linejoin:round"></polygon><path d="M377.29,276a8.85,8.85,0,0,0-6.46,3.9c-2.55,3.76-16.07,29.44-18,33.34s-3.75,7.51-3.6,8,6.15,3.45,7.06,3.45a2.3,2.3,0,0,0,1.5-.6l26.73-32.73" style="fill:#263238;stroke:#263238;stroke-linecap:round;stroke-linejoin:round"></path><path d="M357.77,306a59.86,59.86,0,0,1,6.75,3.91" style="fill:none;stroke:#fff;stroke-linecap:round;stroke-linejoin:round"></path><path d="M362,298.83s7.21.91,9.46,3.91" style="fill:none;stroke:#fff;stroke-linecap:round;stroke-linejoin:round"></path><path d="M366.63,288.62s9.31,1.35,11.56,5.41" style="fill:none;stroke:#fff;stroke-linecap:round;stroke-linejoin:round"></path><path d="M372.48,280.81a10.88,10.88,0,0,1,9.16,6.61" style="fill:none;stroke:#fff;stroke-linecap:round;stroke-linejoin:round"></path><ellipse cx="366.55" cy="254.01" rx="0.76" ry="2.48" style="fill:none;stroke:#263238;stroke-linecap:round;stroke-linejoin:round"></ellipse><line x1="367.31" y1="254.01" x2="376.39" y2="252.43" style="fill:none;stroke:#263238;stroke-linecap:round;stroke-linejoin:round"></line></g><g id="freepik--character-2--inject-173"><path d="M294.46,190.34s4.52,1.46,3.21,6.12-4.52,4.52-4.52,4.52V189.91Z" style="fill:#263238;stroke:#263238;stroke-linecap:round;stroke-linejoin:round"></path><path d="M242.63,401.86s6.8,7.57,9.71,8.93,4.67,1.56,4.47,3.5-7.19,2.33-10.1,2.33-6.8-2.92-9.52-3.11-8.93,1-11.26-.39-1.75-4.47-.78-7.19a82.7,82.7,0,0,1,4.28-8.55S235.25,403.6,242.63,401.86Z" style="fill:#fff;stroke:#263238;stroke-linecap:round;stroke-linejoin:round"></path><polygon points="235.44 412.54 240.5 406.32 242.24 406.91 237.19 412.54 235.44 412.54" style="fill:#263238"></polygon><polygon points="238.55 413.32 243.6 407.1 245.35 407.68 240.3 413.32 238.55 413.32" style="fill:#263238"></polygon><polygon points="241.66 414.09 246.71 407.88 248.46 408.46 243.41 414.09 241.66 414.09" style="fill:#263238"></polygon><path d="M256.81,414.29a2.52,2.52,0,0,0,0-.55c-5.28,3.23-12-.13-15.73-1.2-4.08-1.17-6.41-.19-10.68,0a8.07,8.07,0,0,1-6.1-2.66,3.45,3.45,0,0,0,1.63,3.24c2.33,1.36,8.54.2,11.26.39s6.61,3.11,9.52,3.11S256.62,416.23,256.81,414.29Z" style="fill:#fff;stroke:#263238;stroke-linecap:round;stroke-linejoin:round"></path><path d="M251.73,323.45s.38,11.66-2.33,17.87S237,361.14,236,369.88s-5.79,23.43-6.37,26.15-1.75,2.72-.58,3.88a13.62,13.62,0,0,0,7,3.11c2.52.2,7.77.78,7.77.2s.19-2.34.19-3.11a17.93,17.93,0,0,1,.78-4.47c.39-.78,8.51-25.37,13-33.73S269.4,344.43,270.18,344s-14.76-22-14.76-22A2.43,2.43,0,0,0,251.73,323.45Z" style="fill:#263238;stroke:#263238;stroke-linecap:round;stroke-linejoin:round"></path><path d="M289,410.09a77.6,77.6,0,0,0,4.08,6.8c.78.77,7.38-2.53,12.63-6.41s12.62-14.38,12.62-17.68-3.88-2.91-5.44-2.14-6.21,3.11-9.32,4.28-4.27,1.55-4.27,1.55Z" style="fill:#fff;stroke:#263238;stroke-linecap:round;stroke-linejoin:round"></path><polygon points="301.26 411.45 301.84 401.35 303.4 399.6 302.62 409.7 301.26 411.45" style="fill:#263238"></polygon><polygon points="304.76 408.73 305.34 398.63 306.89 396.88 306.12 406.98 304.76 408.73" style="fill:#263238"></polygon><polygon points="308.25 406.01 308.83 395.91 310.39 394.16 309.61 404.26 308.25 406.01" style="fill:#263238"></polygon><path d="M318.34,392.68a65.72,65.72,0,0,1-8.92,11.58c-6.58,6.94-15.6,10.94-17.08,11.57a9,9,0,0,0,.76,1.06c.78.77,7.38-2.53,12.63-6.41s12.62-14.38,12.62-17.68A.49.49,0,0,0,318.34,392.68Z" style="fill:#fff;stroke:#263238;stroke-linecap:round;stroke-linejoin:round"></path><path d="M240.07,283.63c.2.58-1,17.48,2.91,27s15.93,30.5,18.85,35.35,3.1,4.67,4.66,8,5.44,16.7,8.35,25.06,5.25,15.54,6.8,18.84,2.91,6.8,2.91,7.77a3.54,3.54,0,0,0,1,2.91c1,1,3.3,3.11,3.88,3.11s7-5.24,8.35-7.19a60.79,60.79,0,0,0,3.69-7.57,47.81,47.81,0,0,1-4.27-6c-1.36-2.53-2.14,0-4.27-9.13s-9.33-33.8-11.46-40.6a134.21,134.21,0,0,0-7-16.32s3.31-14.37,4.67-24.28a127,127,0,0,0,1.35-15.35,117.45,117.45,0,0,1-22.14,0C246.48,284,240.07,283.63,240.07,283.63Z" style="fill:#263238;stroke:#263238;stroke-linecap:round;stroke-linejoin:round"></path><path d="M261.63,288.68a40.33,40.33,0,0,0,10.69.39,58.15,58.15,0,0,0,8.54-1.94s-.39-11.46-.39-22.92.59-21.18.59-24.29-1.56-11.84-3.69-16.12-8.74-3.49-15.35-3.49-17.87,4.85-21,7.77-5.63,35.15-5.63,43.12,3.3,13.4,5.83,15S261.63,288.68,261.63,288.68Z" style="fill:#fff;stroke:#263238;stroke-linecap:round;stroke-linejoin:round"></path><path d="M280.91,241.62s4.52,14.57,6.27,18.36,2.18,10.93,1.31,14.86a45.78,45.78,0,0,1-3.21,8.6L279.46,269l.87-11.94L280,242.21S280.33,241.33,280.91,241.62Z" style="fill:#90CAF9;stroke:#263238;stroke-linecap:round;stroke-linejoin:round"></path><path d="M280.91,267.27a37,37,0,0,1,3.94-4.38" style="fill:none;stroke:#263238;stroke-linecap:round;stroke-linejoin:round"></path><path d="M269.4,239s1.9,5,3.06,20.84,3.68,29.27,2.08,31.45-5.67,4.91-5.67,6.95-1.67,1.93-2.55,2.08-1.43.45-13.53-2.61-14.86-3.78-14.86-3.78.15-3.5-.43-3.5-3.5-.44-3.35-4.08,1.31-24.33,1.74-37.3,1.9-20.68,6.71-24,9.76-4.08,14.13-5S269.4,239,269.4,239Z" style="fill:#90CAF9;stroke:#263238;stroke-linecap:round;stroke-linejoin:round"></path><path d="M266.32,300.32c.88-.15,2.55,0,2.55-2.08a2.44,2.44,0,0,1,.34-1.13,59.47,59.47,0,0,1-10.76-1.19c-7.4-1.5-20.95-5.49-20.95-5.49.58,0,.43,3.5.43,3.5s2.77.72,14.86,3.78S265.45,300.46,266.32,300.32Z" style="fill:#fff;stroke:#263238;stroke-linecap:round;stroke-linejoin:round"></path><path d="M261.54,284.6a51.33,51.33,0,0,0-1.46-10.78" style="fill:none;stroke:#263238;stroke-linecap:round;stroke-linejoin:round"></path><path d="M278.73,240.6s.73,8.6.73,15.88S277,285.77,277,288.39s2.62,10.93,2.62,10.93,3.79-1.31,3.93-1.9-1-3.35-1-3.35a3.35,3.35,0,0,0,.73-1.89v-1s3.5-3.5,3.5-4.37a73.32,73.32,0,0,0-3.06-11.8c-1.6-4.52-2.62-6.85-2.77-7.72s.58-13.26.15-18.22,1-6.55,1-10.34,1.45-7.28-.73-11.22-2.48,1.61-2.48,4.23S278.73,240.6,278.73,240.6Z" style="fill:#90CAF9;stroke:#263238;stroke-linecap:round;stroke-linejoin:round"></path><path d="M279.6,299.32s3.79-1.31,3.93-1.9-1-3.35-1-3.35a11,11,0,0,1-4.07,1.32C279,297.55,279.6,299.32,279.6,299.32Z" style="fill:#fff;stroke:#263238;stroke-linecap:round;stroke-linejoin:round"></path><path d="M266.05,212.05s-1.89-1.17-3.35.15a18.09,18.09,0,0,1-5.53,3.35c-2.48,1-9.47,2.62-10.2,4.37s.87,6.12,2.91,7.28,9.62,3.79,12.53,5.25,7.42,8.16,7.42,8.16-2.9-13.12-2.9-16.61,2-6.27,5.1-4.37,4.37,6.84,5.24,11.5,1.6,11.17,1.6,11.17,4.37-5.63,3.79-12.33-6-12.82-9.18-15.59A10.73,10.73,0,0,0,266.05,212.05Z" style="fill:#fff;stroke:#263238;stroke-linecap:round;stroke-linejoin:round"></path><path d="M267.8,202.87s-2.48,10.78-3.5,13.26.29,4.81,2,11.22,5.25,12.09,7,10.2.29-5.25,2-9.77a38.23,38.23,0,0,1,4.8-8.45Z" style="fill:#fff;stroke:#263238;stroke-linecap:round;stroke-linejoin:round"></path><path d="M267.65,191.51a114,114,0,0,0-.58,13.4c.29,4.66,1.17,8.45,6.27,14.28s6.26,6.12,10.34,3.79,8-11.66,9-16.47,2.48-8.74,2-14.71-3.79-7.87-8.59-9.62S277,181,273,184.08A17.54,17.54,0,0,0,267.65,191.51Z" style="fill:#fff;stroke:#263238;stroke-linecap:round;stroke-linejoin:round"></path><path d="M287.17,205.71a9.28,9.28,0,0,1,1.26-3.18c1.27-2.43,3.44-2.24,4.34-1.68" style="fill:none;stroke:#263238;stroke-linecap:round;stroke-linejoin:round"></path><path d="M283.68,200.69s-2.77-2.48-7.28-.59" style="fill:none;stroke:#263238;stroke-linecap:round;stroke-linejoin:round"></path><path d="M282.26,203.27v.66s-.8.3-4.18-.29" style="fill:none;stroke:#263238;stroke-linecap:round;stroke-linejoin:round"></path><path d="M279,203.93s.59.81,3.53.59" style="fill:none;stroke:#263238;stroke-linecap:round;stroke-linejoin:round"></path><path d="M292.05,203.91l.06.66s-.79.36-4.2.06" style="fill:none;stroke:#263238;stroke-linecap:round;stroke-linejoin:round"></path><path d="M288.81,204.85s.65.76,3.56.29" style="fill:none;stroke:#263238;stroke-linecap:round;stroke-linejoin:round"></path><path d="M268.24,200s-.29-.58,2.77-1.6,5.39-1.61,4.66-4.08-2.77-2.19,0-3.06,7.86,1.74,5.68,2.62-5.1,1.6-2.48,2.48,10.2-.44,14.28-3.06,4.52-6.41,1-10.06-11.8-6.11-18.79-3.2-9,8.45-9,11.22a37.08,37.08,0,0,0,.73,6.26S266.78,200,268.24,200Z" style="fill:#263238;stroke:#263238;stroke-linecap:round;stroke-linejoin:round"></path><path d="M292.71,206.51l.09-.39-.09-.19s-10.63,1-17.19-1.89c-5.69-2.53-7.86-5.61-8.34-6.38v.12c1.28,3.41,7.19,7,7.19,7a6.8,6.8,0,0,1-.73,4.95c-1.46,2.77-2.62,3.2-2.62,3.2a14.47,14.47,0,0,1-2.92-3.78,19,19,0,0,1-1-4.23c.29,4.66,1.17,8.45,6.27,14.28s6.26,6.12,10.34,3.79S291.69,211.32,292.71,206.51Z" style="fill:#90CAF9;stroke:#263238;stroke-linecap:round;stroke-linejoin:round"></path><path d="M274.94,207.1s5.42,4.8,16.1,3.44" style="fill:none;stroke:#263238;stroke-linecap:round;stroke-linejoin:round"></path><path d="M273.48,211.32s5.52,5.82,16,3.72" style="fill:none;stroke:#263238;stroke-linecap:round;stroke-linejoin:round"></path><path d="M271.73,213.8s5.91,7.21,14.57,5.83" style="fill:none;stroke:#263238;stroke-linecap:round;stroke-linejoin:round"></path><path d="M269.26,201.41s-1.17-5.53-2.33-6-2.77,3.64-2.19,7.14,1.89,4.66,3.21,2.77" style="fill:#fff;stroke:#263238;stroke-linecap:round;stroke-linejoin:round"></path><path d="M257.6,282.42a5.08,5.08,0,0,0,1.75,1.31c.87.29,2.19.87,2.19.87s-.59,4.08-1.9,5.54a10.83,10.83,0,0,1-2,1.89s-2.18-3.06-3.49-3.49S257.6,282.42,257.6,282.42Z" style="fill:#fff;stroke:#263238;stroke-linecap:round;stroke-linejoin:round"></path><path d="M255.42,280.23s3.35,1.9,2.62,3.35a21.26,21.26,0,0,1-3.93,5c-.73.43-2.48-.15-3.21-.88l-.73-.73Z" style="fill:#fff;stroke:#263238;stroke-linecap:round;stroke-linejoin:round"></path><path d="M245.8,249.2a14,14,0,0,0,7.43-6.41" style="fill:#fff;stroke:#263238;stroke-linecap:round;stroke-linejoin:round"></path><path d="M246.38,223.12a15.6,15.6,0,0,0-7.43,3.21c-3.35,2.77-8.15,16.46-10.78,20.83s-10.78,16.46-10.92,19.09,16.31,12.09,21.85,16.31c2.87,2.19,6,4.69,9.46,5.82,1.69.55,2.92.31,3.95-1.16,1.44-2.05,5.24-5.9,3.34-7.72-3.78-3.64-17.33-15.29-17.62-15.73l-.3-.44-.58-2.62s10.78-12.24,13.4-20.4" style="fill:#90CAF9;stroke:#263238;stroke-linecap:round;stroke-linejoin:round"></path><path d="M274.06,324.23s-5.05-12-5.82-14.57l-2.53-7.38" style="fill:none;stroke:#fff;stroke-linecap:round;stroke-linejoin:round"></path></g><g id="freepik--character-1--inject-173"><path d="M128.7,403.9s-2.42,10.6-1.1,12c.66.68,2.79,1.15,7.29.15,3.34-.75,6.6.8,10,.6,1.25-.07,7.59-.8,7.08-2.87-.37-1.5-5.71-3.28-9.39-4.67a12.68,12.68,0,0,1-5.27-3.24,9.33,9.33,0,0,1-.28-2.36Z" style="fill:#fff;stroke:#263238;stroke-linecap:round;stroke-linejoin:round"></path><path d="M127.58,399.39l.88,5.21a9.4,9.4,0,0,0,4.4.54,28.31,28.31,0,0,0,4.1-.74l.48-6.21-10.16-.06Z" style="fill:#263238;stroke:#263238;stroke-linecap:round;stroke-linejoin:round"></path><path d="M125.15,386.68s-.14,10.71.32,12,1.78,1.83,5.72,1.89,8.32,1.68,8.52-1.15-1.15-19.86-1.44-21.75.09-6.46-2.24-9-11.69,2.52-12.69,6.76S125.15,386.68,125.15,386.68Z" style="fill:#263238;stroke:#263238;stroke-linecap:round;stroke-linejoin:round"></path><path d="M106,393s-9.13,5.9-9.13,7.8S107.14,410.9,110,412.68s6.57,3,7.35,1.67-3.23-5.68-4.9-9.24-1.67-4.45-1.67-4.79,1.45-1.89,1.45-1.89Z" style="fill:#fff;stroke:#263238;stroke-linecap:round;stroke-linejoin:round"></path><path d="M108.37,389l-3,4.35a9.45,9.45,0,0,0,2.79,3.45,27.32,27.32,0,0,0,3.45,2.34l4.68-4.12L109,387.85Z" style="fill:#263238;stroke:#263238;stroke-linecap:round;stroke-linejoin:round"></path><path d="M115.5,378.16s-7.58,7.57-8.13,8.8,0,2.56,2.78,5.34,4.79,7,6.9,5.13,13-15,14.15-16.6,4.56-4.56,4.67-8-10.13-6.35-13.8-4S115.5,378.16,115.5,378.16Z" style="fill:#263238;stroke:#263238;stroke-linecap:round;stroke-linejoin:round"></path><path d="M152.54,316.51s2.78,22.16,4.79,35.41a76.82,76.82,0,0,0,7,22.6,99.78,99.78,0,0,1-10,2.57,36.76,36.76,0,0,1-4,.44s-.89-21.38-.89-36A96.58,96.58,0,0,1,152.54,316.51Z" style="fill:#263238;stroke:#263238;stroke-linecap:round;stroke-linejoin:round"></path><path d="M152.21,266.62a12.08,12.08,0,0,0-3,3.9c-.78,2-.67,3.12-1,3.12s-9-5.13-9-5.13,5.45-8.68,5.68-9S152.21,266.62,152.21,266.62Z" style="fill:#fff;stroke:#263238;stroke-linecap:round;stroke-linejoin:round"></path><path d="M142.07,267.18s7.46,7.12,11.69,14.14,8.8,16.81,9.14,17.15-5.79,1.78-5.79,1.78l5,5.57s-4.68,6.79-5.79,9.35a15.74,15.74,0,0,1-2.45,4s.22,19.93.22,32.07A234.36,234.36,0,0,0,156,377.53s-2.23,2.9-14.47,4-24.61-1.67-27.84-2.56-5-1.23-5-1.23,3.67-25.05,5.9-44,10.58-46.66,11.47-52.9,4.67-12.8,7.9-14.47S142.07,267.18,142.07,267.18Z" style="fill:#8c8c8c;stroke:#263238;stroke-linecap:round;stroke-linejoin:round"></path><path d="M140.18,271.85s10.58,15.48,12.14,31.41" style="fill:none;stroke:#263238;stroke-linecap:round;stroke-linejoin:round"></path><path d="M154.21,349.69s-1.89,17.15-2.23,22.5a58.58,58.58,0,0,1-1.56,10,15.62,15.62,0,0,0,2.9-.78c1.45-.56,3.56-1.67,3.56-1.67S154.1,359.16,154.21,349.69Z" style="fill:#8c8c8c;stroke:#263238;stroke-linecap:round;stroke-linejoin:round"></path><path d="M162.9,248.92s.22,3.67-.45,5.34-1.56,2.9-1.34,3.79.9,2.78.67,3.45-2.11,1.45-2.11,1.45-3,4.23-3.9,5.12c-2.64,2.64-10.3-3.12-11-5.79-.34-1.23.44-9.8,5.23-14S162.9,248.92,162.9,248.92Z" style="fill:#fff;stroke:#263238;stroke-linecap:round;stroke-linejoin:round"></path><path d="M166.68,246.91s-12.14,10.13-16.14,12-5.24,4.23-7.47,9.8-2,16.7-7.46,20.15-12.91,3.34-18.93-2.45-2.67-17.26,3.34-21,14.37-7.8,15.37-12.59,3.45-12.47,11.25-14,14.59,4.68,17.81,5.57S167.8,245.8,166.68,246.91Z" style="fill:#263238;stroke:#263238;stroke-linecap:round;stroke-linejoin:round"></path><path d="M110.11,304.26s18.82-4.68,23-4.34,21.05,5.56,21.05,5.56l-2.12,10.36s4.24,19.71,2.9,21.05-17,2.45-29.62,1.89-16.7,0-16.93-2.78,2.9-18.49,2.9-18.49Z" style="fill:#263238;stroke:#263238;stroke-linecap:round;stroke-linejoin:round"></path><path d="M118.24,306h-.12a.89.89,0,0,1-.76-1c.14-1,3.42-24.25,7.86-29.94,4.82-6.17,10.42-2.21,10.47-2.17l.09.07c.23.21,5.69,5.36,7.62,8.78s4.2,20.94,4.46,22.93a.9.9,0,0,1-.78,1,.88.88,0,0,1-1-.77c-.68-5.31-2.75-19.67-4.24-22.28-1.71-3-6.71-7.81-7.25-8.32-.46-.31-4.38-2.74-8,1.86-4.15,5.32-7.47,28.85-7.51,29.08A.88.88,0,0,1,118.24,306Z" style="fill:#fff;stroke:#263238;stroke-linecap:round;stroke-linejoin:round"></path><line x1="111.34" y1="317.51" x2="113.57" y2="309.16" style="fill:none;stroke:#263238;stroke-linecap:round;stroke-linejoin:round"></line><line x1="152.09" y1="315.84" x2="150.87" y2="310.5" style="fill:none;stroke:#263238;stroke-linecap:round;stroke-linejoin:round"></line><path d="M142.41,290.79s-2.12-6.57-1.9-7.35a8.4,8.4,0,0,1,2.68-3.23c.78-.34,5.45,1.33,5.9,1.56s.67,1.33.78,2,.78,1.78.44,2.45-1.44.56-1.44.56,0,4.12-.56,4.78-1.23,1.67-1.23,1.67Z" style="fill:#fff;stroke:#263238;stroke-linecap:round;stroke-linejoin:round"></path><path d="M138,296.13l4.46-6.12,5,2.45s-1.23,2.56-2.79,5.56-2.45,4.79-2.45,4.79Z" style="fill:#fff;stroke:#263238;stroke-linecap:round;stroke-linejoin:round"></path><path d="M136.62,296.46s1.44-14.92.66-19.26a5.63,5.63,0,0,0-9.35-3.34c-3.45,3.12-3.67,10.36-3.67,15.37s1.33,21.6,2,25.94,3.56,4.34,4.79,3.12,13.36-15.92,13.36-15.92l-6.35-7.13Z" style="fill:#8c8c8c;stroke:#263238;stroke-linecap:round;stroke-linejoin:round"></path><line x1="136.62" y1="296.46" x2="128.49" y2="304.59" style="fill:none;stroke:#263238;stroke-linecap:round;stroke-linejoin:round"></line><line x1="148.87" y1="286.78" x2="148.87" y2="285.22" style="fill:none;stroke:#263238;stroke-linecap:round;stroke-linejoin:round"></line></g><g id="freepik--Floor--inject-173"><line x1="34.48" y1="416.69" x2="471.31" y2="416.69" style="fill:#fff;stroke:#263238;stroke-linecap:round;stroke-linejoin:round"></line></g></svg>