<svg xmlns="http://www.w3.org/2000/svg" viewBox="0 0 500 500"><g id="freepik--background-simple--inject-85"><path d="M335.32,395.19s52.57-32.38,62.11-97.1S373.28,170.56,347.32,119,270.41,45.47,224.07,64.3s-36.51,64-73.21,112.57S97,232.8,92.69,293.58s54.43,118.36,127.05,124.61S335.32,395.19,335.32,395.19Z" style="fill:#90CAF9"></path><path d="M335.32,395.19s52.57-32.38,62.11-97.1S373.28,170.56,347.32,119,270.41,45.47,224.07,64.3s-36.51,64-73.21,112.57S97,232.8,92.69,293.58s54.43,118.36,127.05,124.61S335.32,395.19,335.32,395.19Z" style="fill:#fff;opacity:0.7000000000000001"></path></g><g id="freepik--Buildings--inject-85"><polyline points="416.52 235.49 387.66 235.49 387.66 174.61 389.59 174.61 389.59 168.3 321.97 168.3 321.97 174.61 324.31 174.61 324.31 265.16 306.57 265.16 306.57 70.89 245.76 70.89 245.76 227.99 218.73 227.99 218.73 201.54 224.55 201.54 224.55 194.66 180.72 194.66 180.72 96.1 183.87 96.1 183.87 90.94 124.84 90.94 124.84 96.1 129.08 96.1 129.08 179.85 107.23 179.85 107.23 265.44 82.74 265.44" style="fill:none;stroke:#d4d6d7;stroke-miterlimit:10"></polyline><rect x="134.59" y="101.83" width="7.43" height="7.95" style="fill:none;stroke:#d4d6d7;stroke-miterlimit:10"></rect><rect x="145.48" y="101.83" width="7.43" height="7.95" style="fill:none;stroke:#d4d6d7;stroke-miterlimit:10"></rect><rect x="156.38" y="101.83" width="7.43" height="7.95" style="fill:none;stroke:#d4d6d7;stroke-miterlimit:10"></rect><rect x="167.27" y="101.83" width="7.43" height="7.95" style="fill:none;stroke:#d4d6d7;stroke-miterlimit:10"></rect><rect x="134.59" y="114.44" width="7.43" height="7.95" style="fill:none;stroke:#d4d6d7;stroke-miterlimit:10"></rect><rect x="145.48" y="114.44" width="7.43" height="7.95" style="fill:none;stroke:#d4d6d7;stroke-miterlimit:10"></rect><rect x="156.38" y="114.44" width="7.43" height="7.95" style="fill:none;stroke:#d4d6d7;stroke-miterlimit:10"></rect><rect x="167.27" y="114.44" width="7.43" height="7.95" style="fill:none;stroke:#d4d6d7;stroke-miterlimit:10"></rect><rect x="134.59" y="127.04" width="7.43" height="7.95" style="fill:none;stroke:#d4d6d7;stroke-miterlimit:10"></rect><rect x="145.48" y="127.04" width="7.43" height="7.95" style="fill:none;stroke:#d4d6d7;stroke-miterlimit:10"></rect><rect x="156.38" y="127.04" width="7.43" height="7.95" style="fill:none;stroke:#d4d6d7;stroke-miterlimit:10"></rect><rect x="167.27" y="127.04" width="7.43" height="7.95" style="fill:none;stroke:#d4d6d7;stroke-miterlimit:10"></rect><rect x="134.59" y="139.65" width="7.43" height="7.95" style="fill:none;stroke:#d4d6d7;stroke-miterlimit:10"></rect><rect x="145.48" y="139.65" width="7.43" height="7.95" style="fill:none;stroke:#d4d6d7;stroke-miterlimit:10"></rect><rect x="156.38" y="139.65" width="7.43" height="7.95" style="fill:none;stroke:#d4d6d7;stroke-miterlimit:10"></rect><rect x="167.27" y="139.65" width="7.43" height="7.95" style="fill:none;stroke:#d4d6d7;stroke-miterlimit:10"></rect><rect x="134.59" y="152.26" width="7.43" height="7.95" style="fill:none;stroke:#d4d6d7;stroke-miterlimit:10"></rect><rect x="145.48" y="152.26" width="7.43" height="7.95" style="fill:none;stroke:#d4d6d7;stroke-miterlimit:10"></rect><rect x="156.38" y="152.26" width="7.43" height="7.95" style="fill:none;stroke:#d4d6d7;stroke-miterlimit:10"></rect><rect x="167.27" y="152.26" width="7.43" height="7.95" style="fill:none;stroke:#d4d6d7;stroke-miterlimit:10"></rect><rect x="134.59" y="164.86" width="7.43" height="7.95" style="fill:none;stroke:#d4d6d7;stroke-miterlimit:10"></rect><rect x="145.48" y="164.86" width="7.43" height="7.95" style="fill:none;stroke:#d4d6d7;stroke-miterlimit:10"></rect><rect x="156.38" y="164.86" width="7.43" height="7.95" style="fill:none;stroke:#d4d6d7;stroke-miterlimit:10"></rect><rect x="167.27" y="164.86" width="7.43" height="7.95" style="fill:none;stroke:#d4d6d7;stroke-miterlimit:10"></rect><rect x="134.59" y="177.47" width="7.43" height="7.95" style="fill:none;stroke:#d4d6d7;stroke-miterlimit:10"></rect><rect x="145.48" y="177.47" width="7.43" height="7.95" style="fill:none;stroke:#d4d6d7;stroke-miterlimit:10"></rect><rect x="156.38" y="177.47" width="7.43" height="7.95" style="fill:none;stroke:#d4d6d7;stroke-miterlimit:10"></rect><rect x="167.27" y="177.47" width="7.43" height="7.95" style="fill:none;stroke:#d4d6d7;stroke-miterlimit:10"></rect><rect x="134.59" y="190.08" width="7.43" height="7.95" style="fill:none;stroke:#d4d6d7;stroke-miterlimit:10"></rect><rect x="145.48" y="190.08" width="7.43" height="7.95" style="fill:none;stroke:#d4d6d7;stroke-miterlimit:10"></rect><rect x="156.38" y="190.08" width="7.43" height="7.95" style="fill:none;stroke:#d4d6d7;stroke-miterlimit:10"></rect><rect x="167.27" y="190.08" width="7.43" height="7.95" style="fill:none;stroke:#d4d6d7;stroke-miterlimit:10"></rect><rect x="175.83" y="201.61" width="7.43" height="7.95" style="fill:none;stroke:#d4d6d7;stroke-miterlimit:10"></rect><rect x="186.72" y="201.61" width="7.43" height="7.95" style="fill:none;stroke:#d4d6d7;stroke-miterlimit:10"></rect><rect x="197.62" y="201.61" width="7.43" height="7.95" style="fill:none;stroke:#d4d6d7;stroke-miterlimit:10"></rect><rect x="208.51" y="201.61" width="7.43" height="7.95" style="fill:none;stroke:#d4d6d7;stroke-miterlimit:10"></rect><rect x="175.83" y="214.22" width="7.43" height="7.95" style="fill:none;stroke:#d4d6d7;stroke-miterlimit:10"></rect><rect x="186.72" y="214.22" width="7.43" height="7.95" style="fill:none;stroke:#d4d6d7;stroke-miterlimit:10"></rect><rect x="197.62" y="214.22" width="7.43" height="7.95" style="fill:none;stroke:#d4d6d7;stroke-miterlimit:10"></rect><rect x="208.51" y="214.22" width="7.43" height="7.95" style="fill:none;stroke:#d4d6d7;stroke-miterlimit:10"></rect><rect x="175.83" y="226.82" width="7.43" height="7.95" style="fill:none;stroke:#d4d6d7;stroke-miterlimit:10"></rect><rect x="186.72" y="226.82" width="7.43" height="7.95" style="fill:none;stroke:#d4d6d7;stroke-miterlimit:10"></rect><rect x="197.62" y="226.82" width="7.43" height="7.95" style="fill:none;stroke:#d4d6d7;stroke-miterlimit:10"></rect><rect x="208.51" y="226.82" width="7.43" height="7.95" style="fill:none;stroke:#d4d6d7;stroke-miterlimit:10"></rect><rect x="175.83" y="239.43" width="7.43" height="7.95" style="fill:none;stroke:#d4d6d7;stroke-miterlimit:10"></rect><rect x="186.72" y="239.43" width="7.43" height="7.95" style="fill:none;stroke:#d4d6d7;stroke-miterlimit:10"></rect><rect x="197.62" y="239.43" width="7.43" height="7.95" style="fill:none;stroke:#d4d6d7;stroke-miterlimit:10"></rect><rect x="208.51" y="239.43" width="7.43" height="7.95" style="fill:none;stroke:#d4d6d7;stroke-miterlimit:10"></rect><rect x="175.83" y="252.04" width="7.43" height="7.95" style="fill:none;stroke:#d4d6d7;stroke-miterlimit:10"></rect><rect x="186.72" y="252.04" width="7.43" height="7.95" style="fill:none;stroke:#d4d6d7;stroke-miterlimit:10"></rect><rect x="197.62" y="252.04" width="7.43" height="7.95" style="fill:none;stroke:#d4d6d7;stroke-miterlimit:10"></rect><rect x="208.51" y="252.04" width="7.43" height="7.95" style="fill:none;stroke:#d4d6d7;stroke-miterlimit:10"></rect><rect x="175.83" y="264.64" width="7.43" height="7.95" style="fill:none;stroke:#d4d6d7;stroke-miterlimit:10"></rect><rect x="186.72" y="264.64" width="7.43" height="7.95" style="fill:none;stroke:#d4d6d7;stroke-miterlimit:10"></rect><rect x="197.62" y="264.64" width="7.43" height="7.95" style="fill:none;stroke:#d4d6d7;stroke-miterlimit:10"></rect><rect x="208.51" y="264.64" width="7.43" height="7.95" style="fill:none;stroke:#d4d6d7;stroke-miterlimit:10"></rect><rect x="175.83" y="277.25" width="7.43" height="7.95" style="fill:none;stroke:#d4d6d7;stroke-miterlimit:10"></rect><rect x="186.72" y="277.25" width="7.43" height="7.95" style="fill:none;stroke:#d4d6d7;stroke-miterlimit:10"></rect><rect x="197.62" y="277.25" width="7.43" height="7.95" style="fill:none;stroke:#d4d6d7;stroke-miterlimit:10"></rect><rect x="208.51" y="277.25" width="7.43" height="7.95" style="fill:none;stroke:#d4d6d7;stroke-miterlimit:10"></rect><rect x="175.83" y="289.86" width="7.43" height="7.95" style="fill:none;stroke:#d4d6d7;stroke-miterlimit:10"></rect><rect x="186.72" y="289.86" width="7.43" height="7.95" style="fill:none;stroke:#d4d6d7;stroke-miterlimit:10"></rect><rect x="197.62" y="289.86" width="7.43" height="7.95" style="fill:none;stroke:#d4d6d7;stroke-miterlimit:10"></rect><rect x="208.51" y="289.86" width="7.43" height="7.95" style="fill:none;stroke:#d4d6d7;stroke-miterlimit:10"></rect><rect x="334.58" y="176.9" width="7.43" height="7.95" style="fill:none;stroke:#d4d6d7;stroke-miterlimit:10"></rect><rect x="345.47" y="176.9" width="7.43" height="7.95" style="fill:none;stroke:#d4d6d7;stroke-miterlimit:10"></rect><rect x="356.36" y="176.9" width="7.43" height="7.95" style="fill:none;stroke:#d4d6d7;stroke-miterlimit:10"></rect><rect x="367.26" y="176.9" width="7.43" height="7.95" style="fill:none;stroke:#d4d6d7;stroke-miterlimit:10"></rect><rect x="334.58" y="189.51" width="7.43" height="7.95" style="fill:none;stroke:#d4d6d7;stroke-miterlimit:10"></rect><rect x="345.47" y="189.51" width="7.43" height="7.95" style="fill:none;stroke:#d4d6d7;stroke-miterlimit:10"></rect><rect x="356.36" y="189.51" width="7.43" height="7.95" style="fill:none;stroke:#d4d6d7;stroke-miterlimit:10"></rect><rect x="367.26" y="189.51" width="7.43" height="7.95" style="fill:none;stroke:#d4d6d7;stroke-miterlimit:10"></rect><rect x="334.58" y="202.11" width="7.43" height="7.95" style="fill:none;stroke:#d4d6d7;stroke-miterlimit:10"></rect><rect x="345.47" y="202.11" width="7.43" height="7.95" style="fill:none;stroke:#d4d6d7;stroke-miterlimit:10"></rect><rect x="356.36" y="202.11" width="7.43" height="7.95" style="fill:none;stroke:#d4d6d7;stroke-miterlimit:10"></rect><rect x="367.26" y="202.11" width="7.43" height="7.95" style="fill:none;stroke:#d4d6d7;stroke-miterlimit:10"></rect><rect x="334.58" y="214.72" width="7.43" height="7.95" style="fill:none;stroke:#d4d6d7;stroke-miterlimit:10"></rect><rect x="345.47" y="214.72" width="7.43" height="7.95" style="fill:none;stroke:#d4d6d7;stroke-miterlimit:10"></rect><rect x="356.36" y="214.72" width="7.43" height="7.95" style="fill:none;stroke:#d4d6d7;stroke-miterlimit:10"></rect><rect x="367.26" y="214.72" width="7.43" height="7.95" style="fill:none;stroke:#d4d6d7;stroke-miterlimit:10"></rect><rect x="334.58" y="227.33" width="7.43" height="7.95" style="fill:none;stroke:#d4d6d7;stroke-miterlimit:10"></rect><rect x="345.47" y="227.33" width="7.43" height="7.95" style="fill:none;stroke:#d4d6d7;stroke-miterlimit:10"></rect><rect x="356.36" y="227.33" width="7.43" height="7.95" style="fill:none;stroke:#d4d6d7;stroke-miterlimit:10"></rect><rect x="367.26" y="227.33" width="7.43" height="7.95" style="fill:none;stroke:#d4d6d7;stroke-miterlimit:10"></rect><rect x="334.58" y="239.93" width="7.43" height="7.95" style="fill:none;stroke:#d4d6d7;stroke-miterlimit:10"></rect><rect x="345.47" y="239.93" width="7.43" height="7.95" style="fill:none;stroke:#d4d6d7;stroke-miterlimit:10"></rect><rect x="356.36" y="239.93" width="7.43" height="7.95" style="fill:none;stroke:#d4d6d7;stroke-miterlimit:10"></rect><rect x="367.26" y="239.93" width="7.43" height="7.95" style="fill:none;stroke:#d4d6d7;stroke-miterlimit:10"></rect><rect x="334.58" y="252.54" width="7.43" height="7.95" style="fill:none;stroke:#d4d6d7;stroke-miterlimit:10"></rect><rect x="345.47" y="252.54" width="7.43" height="7.95" style="fill:none;stroke:#d4d6d7;stroke-miterlimit:10"></rect><rect x="356.36" y="252.54" width="7.43" height="7.95" style="fill:none;stroke:#d4d6d7;stroke-miterlimit:10"></rect><rect x="367.26" y="252.54" width="7.43" height="7.95" style="fill:none;stroke:#d4d6d7;stroke-miterlimit:10"></rect><rect x="334.58" y="265.15" width="7.43" height="7.95" style="fill:none;stroke:#d4d6d7;stroke-miterlimit:10"></rect><rect x="345.47" y="265.15" width="7.43" height="7.95" style="fill:none;stroke:#d4d6d7;stroke-miterlimit:10"></rect><rect x="356.36" y="265.15" width="7.43" height="7.95" style="fill:none;stroke:#d4d6d7;stroke-miterlimit:10"></rect><rect x="367.26" y="265.15" width="7.43" height="7.95" style="fill:none;stroke:#d4d6d7;stroke-miterlimit:10"></rect><line x1="251.49" y1="75.47" x2="251.49" y2="305.83" style="fill:none;stroke:#d4d6d7;stroke-miterlimit:10"></line><line x1="258.85" y1="75.47" x2="258.85" y2="305.83" style="fill:none;stroke:#d4d6d7;stroke-miterlimit:10"></line><line x1="266.22" y1="75.47" x2="266.22" y2="305.83" style="fill:none;stroke:#d4d6d7;stroke-miterlimit:10"></line><line x1="273.59" y1="75.47" x2="273.59" y2="305.83" style="fill:none;stroke:#d4d6d7;stroke-miterlimit:10"></line><line x1="280.96" y1="75.47" x2="280.96" y2="305.83" style="fill:none;stroke:#d4d6d7;stroke-miterlimit:10"></line><line x1="288.32" y1="75.47" x2="288.32" y2="305.83" style="fill:none;stroke:#d4d6d7;stroke-miterlimit:10"></line><line x1="295.69" y1="75.47" x2="295.69" y2="305.83" style="fill:none;stroke:#d4d6d7;stroke-miterlimit:10"></line><line x1="303.06" y1="75.47" x2="303.06" y2="305.83" style="fill:none;stroke:#d4d6d7;stroke-miterlimit:10"></line></g><g id="freepik--Virus--inject-85"><path d="M223,307.05c.08.24.28.62.49.62s.59-.46.59-1-.26-1.05-.59-1.05-.38.34-.46.54l-2.18-.07a9.87,9.87,0,0,0-1-3.93l2.86-1.76c.21.18.61.43.81.31s.3-.76,0-1.31-.82-.86-1.13-.68-.18.53-.15.77l-3,1.61a9.88,9.88,0,0,0-2.89-2.87l1-1.88c.25.05.67.06.78-.12s-.11-.74-.61-1-1-.3-1.2,0,.1.5.23.68l-1.14,1.84a9.81,9.81,0,0,0-3.92-1.06l-.1-3.36c.26-.09.68-.32.68-.55s-.52-.64-1.15-.64-1.15.29-1.15.64.36.42.59.52l-.1,3.39a9.81,9.81,0,0,0-3.93,1.06l-1.12-1.82c.17-.19.39-.55.29-.74s-.7-.27-1.2,0-.78.75-.61,1,.48.16.69.14l1,1.9a10,10,0,0,0-2.89,2.87l-2.95-1.6c0-.27.07-.74-.13-.86s-.82.13-1.14.68-.32,1.14,0,1.32.55-.11.74-.26l2.88,1.78a10,10,0,0,0-1,3.93l-2.15.07c-.08-.24-.28-.62-.49-.62s-.59.47-.59,1,.27,1,.59,1,.38-.33.47-.54l2.17.07a10,10,0,0,0,1,3.93l-2.86,1.76c-.21-.18-.61-.43-.81-.31s-.3.76,0,1.31.82.86,1.13.68.18-.53.15-.77l3-1.6a10.09,10.09,0,0,0,2.89,2.86l-1,1.88c-.25-.05-.68-.06-.79.12s.12.74.62,1,1,.3,1.2,0-.1-.5-.23-.68l1.13-1.84a9.81,9.81,0,0,0,3.93,1.06l.1,3.37c-.27.09-.68.31-.68.54s.51.64,1.15.64,1.15-.28,1.15-.64-.37-.42-.59-.52l.1-3.39a9.81,9.81,0,0,0,3.92-1.06l1.13,1.82c-.17.19-.4.56-.29.74s.69.27,1.19,0,.78-.75.62-1-.48-.16-.7-.13l-1-1.91a10,10,0,0,0,2.89-2.86l3,1.59c-.06.27-.08.74.13.86s.81-.13,1.13-.68.32-1.14,0-1.31-.55.1-.74.25l-2.89-1.78a9.78,9.78,0,0,0,1-3.93Z" style="fill:none;stroke:#263238;stroke-linecap:round;stroke-linejoin:round;stroke-width:0.5px"></path><path d="M211.66,298.94a1,1,0,1,1-1-1A1,1,0,0,1,211.66,298.94Z" style="fill:none;stroke:#263238;stroke-linecap:round;stroke-linejoin:round;stroke-width:0.5px"></path><path d="M205.43,306.88a1,1,0,1,1-1-1A1,1,0,0,1,205.43,306.88Z" style="fill:none;stroke:#263238;stroke-linecap:round;stroke-linejoin:round;stroke-width:0.5px"></path><path d="M210.05,304.33a1,1,0,0,1-2.07,0,1,1,0,0,1,2.07,0Z" style="fill:none;stroke:#263238;stroke-linecap:round;stroke-linejoin:round;stroke-width:0.5px"></path><path d="M207.64,312.87a1,1,0,1,1-1-1A1,1,0,0,1,207.64,312.87Z" style="fill:none;stroke:#263238;stroke-linecap:round;stroke-linejoin:round;stroke-width:0.5px"></path><path d="M218.89,308.75a1,1,0,0,1-2.07,0,1,1,0,0,1,2.07,0Z" style="fill:none;stroke:#263238;stroke-linecap:round;stroke-linejoin:round;stroke-width:0.5px"></path><ellipse cx="210.48" cy="310.09" rx="1.03" ry="0.98" style="fill:none;stroke:#263238;stroke-linecap:round;stroke-linejoin:round;stroke-width:0.5px"></ellipse><path d="M214.85,306.16a1,1,0,1,1-1-1A1,1,0,0,1,214.85,306.16Z" style="fill:none;stroke:#263238;stroke-linecap:round;stroke-linejoin:round;stroke-width:0.5px"></path><path d="M217.34,301.58a1,1,0,1,1-1-1A1,1,0,0,1,217.34,301.58Z" style="fill:none;stroke:#263238;stroke-linecap:round;stroke-linejoin:round;stroke-width:0.5px"></path><ellipse cx="213.93" cy="313.36" rx="1.03" ry="0.98" style="fill:none;stroke:#263238;stroke-linecap:round;stroke-linejoin:round;stroke-width:0.5px"></ellipse><path d="M206.51,300.69a1,1,0,1,1-1-1A1,1,0,0,1,206.51,300.69Z" style="fill:none;stroke:#263238;stroke-linecap:round;stroke-linejoin:round;stroke-width:0.5px"></path><path d="M307.6,225c0,.16.19.41.33.41s.39-.31.39-.7-.17-.7-.39-.7-.26.22-.32.36l-1.45,0a6.67,6.67,0,0,0-.7-2.64l1.92-1.19c.14.13.41.29.55.22s.2-.52,0-.89-.56-.57-.77-.45-.12.35-.1.51l-2,1.08a6.7,6.7,0,0,0-1.94-1.92l.68-1.26c.17,0,.46,0,.53-.08s-.08-.5-.41-.7-.7-.19-.81,0,.07.34.16.46l-.77,1.23a6.8,6.8,0,0,0-2.63-.71l-.07-2.26c.18-.06.46-.21.46-.36s-.34-.43-.77-.43-.77.19-.77.43.24.28.39.34l-.06,2.28a6.85,6.85,0,0,0-2.64.71l-.75-1.22c.11-.13.26-.37.19-.49s-.47-.19-.8,0-.52.5-.42.69.33.11.47.09l.69,1.28a6.82,6.82,0,0,0-1.94,1.92l-2-1.07c0-.18.05-.5-.09-.57s-.55.08-.76.45-.22.76,0,.88.37-.07.5-.17l1.93,1.2a6.66,6.66,0,0,0-.69,2.64l-1.44,0c-.06-.16-.19-.42-.33-.42s-.4.32-.4.71.18.7.4.7.26-.23.31-.36l1.46,0a6.66,6.66,0,0,0,.69,2.64l-1.92,1.19c-.14-.13-.41-.3-.54-.22s-.2.52,0,.89.55.57.76.45.12-.35.1-.52l2-1.07a6.82,6.82,0,0,0,1.94,1.92l-.68,1.26c-.17,0-.45,0-.52.08s.07.5.41.69.69.2.8,0-.06-.34-.15-.46l.76-1.23a6.85,6.85,0,0,0,2.64.71l.06,2.26c-.18.06-.46.21-.46.36s.35.43.78.43.77-.19.77-.43-.25-.28-.4-.34l.07-2.28a6.9,6.9,0,0,0,2.64-.71l.75,1.22c-.11.13-.27.37-.19.49s.46.19.8,0,.52-.5.41-.69-.32-.11-.47-.09l-.69-1.28a6.7,6.7,0,0,0,1.94-1.92l2,1.06c0,.19-.05.51.08.58s.55-.08.76-.45.22-.76,0-.88-.37.07-.5.17l-1.94-1.2a6.67,6.67,0,0,0,.7-2.64Z" style="fill:none;stroke:#263238;stroke-linecap:round;stroke-linejoin:round;stroke-width:0.5px"></path><ellipse cx="299.28" cy="219.51" rx="0.69" ry="0.66" style="fill:none;stroke:#263238;stroke-linecap:round;stroke-linejoin:round;stroke-width:0.5px"></ellipse><ellipse cx="295.1" cy="224.84" rx="0.69" ry="0.66" style="fill:none;stroke:#263238;stroke-linecap:round;stroke-linejoin:round;stroke-width:0.5px"></ellipse><ellipse cx="298.19" cy="223.13" rx="0.69" ry="0.66" style="fill:none;stroke:#263238;stroke-linecap:round;stroke-linejoin:round;stroke-width:0.5px"></ellipse><path d="M297.27,228.86a.69.69,0,1,1-.69-.65A.67.67,0,0,1,297.27,228.86Z" style="fill:none;stroke:#263238;stroke-linecap:round;stroke-linejoin:round;stroke-width:0.5px"></path><ellipse cx="304.13" cy="226.1" rx="0.69" ry="0.66" style="fill:none;stroke:#263238;stroke-linecap:round;stroke-linejoin:round;stroke-width:0.5px"></ellipse><path d="M299.87,227a.7.7,0,0,1-1.39,0,.7.7,0,0,1,1.39,0Z" style="fill:none;stroke:#263238;stroke-linecap:round;stroke-linejoin:round;stroke-width:0.5px"></path><ellipse cx="301.42" cy="224.36" rx="0.69" ry="0.66" style="fill:none;stroke:#263238;stroke-linecap:round;stroke-linejoin:round;stroke-width:0.5px"></ellipse><path d="M303.78,221.29a.69.69,0,1,1-.69-.66A.68.68,0,0,1,303.78,221.29Z" style="fill:none;stroke:#263238;stroke-linecap:round;stroke-linejoin:round;stroke-width:0.5px"></path><path d="M302.18,229.19a.69.69,0,1,1-.69-.65A.67.67,0,0,1,302.18,229.19Z" style="fill:none;stroke:#263238;stroke-linecap:round;stroke-linejoin:round;stroke-width:0.5px"></path><path d="M296.51,220.69a.69.69,0,1,1-.69-.66A.68.68,0,0,1,296.51,220.69Z" style="fill:none;stroke:#263238;stroke-linecap:round;stroke-linejoin:round;stroke-width:0.5px"></path><path d="M261.29,322.49c0,.13.16.34.27.34s.33-.26.33-.58-.15-.58-.33-.58-.21.19-.26.3l-1.2,0a5.39,5.39,0,0,0-.58-2.18l1.59-1c.12.1.34.24.45.18s.17-.43,0-.73-.46-.47-.63-.38-.1.3-.08.43l-1.65.89a5.67,5.67,0,0,0-1.61-1.59l.57-1c.13,0,.37,0,.43-.07s-.06-.41-.34-.57-.57-.16-.66,0,.05.28.12.37l-.63,1a5.36,5.36,0,0,0-2.18-.59l0-1.87c.15-.05.38-.17.38-.3s-.29-.36-.64-.36-.64.16-.64.36.2.23.33.29l-.06,1.88a5.4,5.4,0,0,0-2.18.59l-.62-1c.09-.11.22-.31.16-.41s-.39-.15-.66,0-.43.41-.34.57.26.09.38.07l.57,1.06a5.77,5.77,0,0,0-1.6,1.59l-1.64-.88c0-.15,0-.42-.07-.48s-.45.07-.63.37-.18.64,0,.74.3-.06.41-.14l1.6,1a5.55,5.55,0,0,0-.57,2.18l-1.19,0c0-.13-.16-.34-.28-.34s-.32.26-.32.58.14.58.32.58.22-.19.26-.3l1.21,0a5.55,5.55,0,0,0,.57,2.19l-1.58,1c-.12-.11-.34-.25-.46-.18s-.16.43,0,.73.46.47.63.37.1-.29.09-.42l1.65-.89a5.77,5.77,0,0,0,1.6,1.59l-.56,1c-.14,0-.38,0-.43.07s.06.41.34.57.57.16.66,0-.05-.28-.13-.38l.63-1a5.57,5.57,0,0,0,2.18.59l.06,1.87c-.15.05-.38.17-.38.3s.29.36.64.36.64-.16.64-.36-.21-.24-.33-.29l0-1.88a5.52,5.52,0,0,0,2.18-.59l.63,1c-.1.11-.22.31-.16.41s.38.15.66,0,.43-.41.34-.57-.27-.09-.39-.08l-.57-1.05a5.67,5.67,0,0,0,1.61-1.59l1.64.88c0,.15,0,.41.07.48s.45-.07.63-.38.18-.63,0-.73-.31.06-.42.14l-1.6-1a5.39,5.39,0,0,0,.58-2.19Z" style="fill:none;stroke:#263238;stroke-linecap:round;stroke-linejoin:round;stroke-width:0.5px"></path><path d="M255,318a.58.58,0,1,1-.58-.54A.56.56,0,0,1,255,318Z" style="fill:none;stroke:#263238;stroke-linecap:round;stroke-linejoin:round;stroke-width:0.5px"></path><path d="M251.53,322.39a.58.58,0,0,1-1.15,0,.58.58,0,0,1,1.15,0Z" style="fill:none;stroke:#263238;stroke-linecap:round;stroke-linejoin:round;stroke-width:0.5px"></path><ellipse cx="253.52" cy="320.98" rx="0.57" ry="0.55" style="fill:none;stroke:#263238;stroke-linecap:round;stroke-linejoin:round;stroke-width:0.5px"></ellipse><path d="M252.75,325.72a.55.55,0,0,1-.57.54.56.56,0,0,1-.57-.54.57.57,0,0,1,.57-.55A.56.56,0,0,1,252.75,325.72Z" style="fill:none;stroke:#263238;stroke-linecap:round;stroke-linejoin:round;stroke-width:0.5px"></path><path d="M259,323.43a.58.58,0,0,1-1.15,0,.58.58,0,0,1,1.15,0Z" style="fill:none;stroke:#263238;stroke-linecap:round;stroke-linejoin:round;stroke-width:0.5px"></path><path d="M254.9,324.17a.57.57,0,0,1-.57.55.56.56,0,0,1-.57-.55.55.55,0,0,1,.57-.54A.56.56,0,0,1,254.9,324.17Z" style="fill:none;stroke:#263238;stroke-linecap:round;stroke-linejoin:round;stroke-width:0.5px"></path><path d="M256.75,322a.57.57,0,0,1-1.14,0,.57.57,0,0,1,1.14,0Z" style="fill:none;stroke:#263238;stroke-linecap:round;stroke-linejoin:round;stroke-width:0.5px"></path><path d="M258.14,319.45a.58.58,0,0,1-1.15,0,.58.58,0,0,1,1.15,0Z" style="fill:none;stroke:#263238;stroke-linecap:round;stroke-linejoin:round;stroke-width:0.5px"></path><path d="M256.82,326a.58.58,0,1,1-.58-.55A.57.57,0,0,1,256.82,326Z" style="fill:none;stroke:#263238;stroke-linecap:round;stroke-linejoin:round;stroke-width:0.5px"></path><path d="M252.13,319a.58.58,0,0,1-1.15,0,.58.58,0,0,1,1.15,0Z" style="fill:none;stroke:#263238;stroke-linecap:round;stroke-linejoin:round;stroke-width:0.5px"></path><path d="M277,255.1c0,.14.16.35.27.35s.33-.26.33-.58-.15-.59-.33-.59-.21.19-.26.3l-1.2,0a5.59,5.59,0,0,0-.57-2.19l1.58-1c.12.1.34.24.45.17s.17-.42,0-.73-.45-.47-.63-.37-.1.29-.08.42l-1.65.89a5.67,5.67,0,0,0-1.61-1.59l.57-1c.13,0,.37,0,.43-.07s-.06-.41-.34-.57-.57-.16-.66,0,.05.28.12.38l-.63,1a5.47,5.47,0,0,0-2.18-.59l-.05-1.87c.15-.05.38-.17.38-.3s-.29-.35-.64-.35-.64.16-.64.35.2.24.33.29l-.06,1.88a5.47,5.47,0,0,0-2.17.59l-.63-1c.09-.11.22-.31.16-.41s-.39-.15-.66,0-.43.41-.34.57.26.09.38.08l.57,1.05a5.77,5.77,0,0,0-1.6,1.59l-1.64-.88c0-.15,0-.41-.07-.48s-.45.07-.63.38-.18.63,0,.73.31-.06.41-.14l1.6,1a5.59,5.59,0,0,0-.57,2.19l-1.19,0c-.05-.13-.16-.34-.28-.34s-.32.26-.32.58.15.58.32.58.22-.19.26-.3l1.21,0a5.5,5.5,0,0,0,.57,2.18l-1.58,1c-.12-.1-.34-.24-.45-.18s-.17.43,0,.73.45.48.62.38.1-.3.09-.43l1.65-.89a5.77,5.77,0,0,0,1.6,1.59l-.56,1c-.14,0-.37,0-.43.07s.06.41.34.57.57.17.66,0-.05-.28-.13-.37l.64-1a5.31,5.31,0,0,0,2.17.59l.06,1.87c-.15.05-.38.17-.38.3s.29.36.64.36.64-.16.64-.36-.21-.23-.33-.29l.05-1.88a5.31,5.31,0,0,0,2.18-.59l.63,1c-.1.11-.22.31-.16.41s.38.16.66,0,.43-.42.34-.58-.27-.09-.39-.07l-.57-1.06a5.67,5.67,0,0,0,1.61-1.59l1.64.88c0,.16,0,.42.07.48s.45-.07.63-.37.18-.64,0-.73-.31.06-.41.14l-1.6-1a5.5,5.5,0,0,0,.57-2.18Z" style="fill:none;stroke:#263238;stroke-linecap:round;stroke-linejoin:round;stroke-width:0.5px"></path><ellipse cx="270.13" cy="250.6" rx="0.57" ry="0.55" style="fill:none;stroke:#263238;stroke-linecap:round;stroke-linejoin:round;stroke-width:0.5px"></ellipse><path d="M267.25,255a.58.58,0,1,1-.57-.55A.56.56,0,0,1,267.25,255Z" style="fill:none;stroke:#263238;stroke-linecap:round;stroke-linejoin:round;stroke-width:0.5px"></path><path d="M269.81,253.59a.56.56,0,0,1-.57.54.55.55,0,0,1-.57-.54.56.56,0,0,1,.57-.55A.57.57,0,0,1,269.81,253.59Z" style="fill:none;stroke:#263238;stroke-linecap:round;stroke-linejoin:round;stroke-width:0.5px"></path><path d="M268.48,258.33a.58.58,0,0,1-1.15,0,.58.58,0,0,1,1.15,0Z" style="fill:none;stroke:#263238;stroke-linecap:round;stroke-linejoin:round;stroke-width:0.5px"></path><ellipse cx="274.14" cy="256.04" rx="0.57" ry="0.55" style="fill:none;stroke:#263238;stroke-linecap:round;stroke-linejoin:round;stroke-width:0.5px"></ellipse><path d="M270.62,256.79a.56.56,0,0,1-.57.54.55.55,0,1,1,0-1.09A.56.56,0,0,1,270.62,256.79Z" style="fill:none;stroke:#263238;stroke-linecap:round;stroke-linejoin:round;stroke-width:0.5px"></path><path d="M272.47,254.61a.55.55,0,0,1-.57.54.55.55,0,1,1,.57-.54Z" style="fill:none;stroke:#263238;stroke-linecap:round;stroke-linejoin:round;stroke-width:0.5px"></path><path d="M273.86,252.07a.58.58,0,0,1-1.15,0,.58.58,0,0,1,1.15,0Z" style="fill:none;stroke:#263238;stroke-linecap:round;stroke-linejoin:round;stroke-width:0.5px"></path><path d="M272.54,258.6a.58.58,0,0,1-1.15,0,.58.58,0,0,1,1.15,0Z" style="fill:none;stroke:#263238;stroke-linecap:round;stroke-linejoin:round;stroke-width:0.5px"></path><ellipse cx="267.28" cy="251.57" rx="0.57" ry="0.55" style="fill:none;stroke:#263238;stroke-linecap:round;stroke-linejoin:round;stroke-width:0.5px"></ellipse><path d="M238.41,229.74c.07.21.24.53.42.53s.5-.4.5-.89-.23-.89-.5-.89-.33.29-.4.46l-1.84,0a8.31,8.31,0,0,0-.88-3.34l2.43-1.5c.18.16.52.37.69.27s.25-.65,0-1.12-.7-.72-1-.57-.15.45-.13.65l-2.52,1.37a8.38,8.38,0,0,0-2.46-2.43l.87-1.6c.21,0,.57.05.66-.1s-.1-.63-.52-.88-.88-.25-1,0,.09.42.2.57l-1,1.57a8.46,8.46,0,0,0-3.33-.91l-.08-2.85c.23-.07.58-.26.58-.46s-.44-.54-1-.54-1,.24-1,.54.31.36.5.44l-.09,2.87a8.51,8.51,0,0,0-3.33.91l-.95-1.55c.14-.16.34-.47.25-.62s-.6-.24-1,0-.66.64-.52.87.41.14.59.12l.87,1.62a8.47,8.47,0,0,0-2.45,2.43l-2.5-1.35c0-.24.06-.64-.11-.73s-.7.1-1,.57-.28,1,0,1.12.47-.1.63-.22l2.45,1.51a8.31,8.31,0,0,0-.88,3.34l-1.82,0c-.07-.2-.24-.53-.42-.53s-.5.4-.5.89.23.89.5.89.33-.29.4-.46l1.84.06a8.31,8.31,0,0,0,.88,3.33l-2.43,1.5c-.18-.16-.52-.37-.69-.27s-.25.65,0,1.12.7.72,1,.57.15-.45.13-.65L221,234a8.59,8.59,0,0,0,2.45,2.43l-.86,1.59c-.21,0-.57-.05-.66.1s.09.63.52.88.88.25,1,0-.08-.42-.19-.57l1-1.56a8.5,8.5,0,0,0,3.33.9l.09,2.85c-.23.08-.58.26-.58.46s.44.55,1,.55,1-.25,1-.55-.31-.36-.5-.44l.08-2.87a8.45,8.45,0,0,0,3.33-.9l1,1.54c-.14.16-.34.47-.25.63s.6.23,1,0,.66-.63.52-.87-.41-.14-.59-.12l-.87-1.61A8.72,8.72,0,0,0,235.2,234l2.5,1.35c0,.23-.06.63.11.73s.69-.11,1-.57.28-1,0-1.12-.47.09-.63.21l-2.45-1.51a8.31,8.31,0,0,0,.88-3.33Z" style="fill:none;stroke:#263238;stroke-linecap:round;stroke-linejoin:round;stroke-width:0.5px"></path><ellipse cx="227.9" cy="222.86" rx="0.87" ry="0.83" style="fill:none;stroke:#263238;stroke-linecap:round;stroke-linejoin:round;stroke-width:0.5px"></ellipse><path d="M223.49,229.6a.88.88,0,0,1-1.75,0,.88.88,0,0,1,1.75,0Z" style="fill:none;stroke:#263238;stroke-linecap:round;stroke-linejoin:round;stroke-width:0.5px"></path><ellipse cx="226.53" cy="227.43" rx="0.87" ry="0.83" style="fill:none;stroke:#263238;stroke-linecap:round;stroke-linejoin:round;stroke-width:0.5px"></ellipse><path d="M225.37,234.68a.86.86,0,0,1-.88.83.83.83,0,1,1,0-1.66A.86.86,0,0,1,225.37,234.68Z" style="fill:none;stroke:#263238;stroke-linecap:round;stroke-linejoin:round;stroke-width:0.5px"></path><ellipse cx="234.03" cy="231.18" rx="0.87" ry="0.83" style="fill:none;stroke:#263238;stroke-linecap:round;stroke-linejoin:round;stroke-width:0.5px"></ellipse><path d="M228.64,232.32a.85.85,0,0,1-.87.83.84.84,0,1,1,.87-.83Z" style="fill:none;stroke:#263238;stroke-linecap:round;stroke-linejoin:round;stroke-width:0.5px"></path><path d="M231.48,229a.88.88,0,1,1-.88-.84A.85.85,0,0,1,231.48,229Z" style="fill:none;stroke:#263238;stroke-linecap:round;stroke-linejoin:round;stroke-width:0.5px"></path><path d="M233.59,225.1a.88.88,0,1,1-.87-.83A.86.86,0,0,1,233.59,225.1Z" style="fill:none;stroke:#263238;stroke-linecap:round;stroke-linejoin:round;stroke-width:0.5px"></path><path d="M231.57,235.09a.88.88,0,1,1-.87-.83A.85.85,0,0,1,231.57,235.09Z" style="fill:none;stroke:#263238;stroke-linecap:round;stroke-linejoin:round;stroke-width:0.5px"></path><ellipse cx="223.53" cy="224.35" rx="0.87" ry="0.83" style="fill:none;stroke:#263238;stroke-linecap:round;stroke-linejoin:round;stroke-width:0.5px"></ellipse><path d="M306.17,312.21c.07.2.24.52.42.52s.5-.39.5-.88-.23-.89-.5-.89-.33.28-.4.45l-1.84-.05a8.4,8.4,0,0,0-.88-3.34l2.43-1.49c.18.15.52.37.69.27s.25-.65,0-1.12-.7-.72-1-.57-.15.45-.13.65L303,307.12a8.59,8.59,0,0,0-2.45-2.43l.86-1.59c.21,0,.57,0,.66-.11s-.09-.62-.52-.87-.88-.25-1,0,.08.42.19.57l-1,1.56a8.5,8.5,0,0,0-3.33-.9l-.09-2.85c.23-.08.58-.26.58-.46s-.44-.55-1-.55-1,.25-1,.55.31.36.5.44l-.08,2.87a8.45,8.45,0,0,0-3.33.9l-1-1.54c.14-.16.34-.47.25-.63s-.59-.23-1,0-.66.63-.52.87.41.14.59.12l.87,1.61a8.59,8.59,0,0,0-2.45,2.43l-2.5-1.35c0-.23.06-.63-.11-.73s-.69.11-1,.57-.28,1,0,1.12.47-.09.63-.21l2.45,1.51a8.31,8.31,0,0,0-.88,3.33l-1.82.05c-.07-.2-.24-.52-.42-.52s-.5.4-.5.89.23.88.5.88.33-.28.4-.45l1.84.05a8.31,8.31,0,0,0,.88,3.34l-2.43,1.49c-.18-.15-.52-.36-.69-.26s-.25.65,0,1.11.7.73,1,.58.15-.45.13-.66l2.52-1.36a8.38,8.38,0,0,0,2.46,2.43l-.87,1.6c-.21,0-.57-.06-.66.1s.1.63.52.87.88.25,1,0-.09-.43-.2-.58l1-1.56a8.28,8.28,0,0,0,3.33.9l.08,2.85c-.23.08-.58.27-.58.47s.44.54,1,.54,1-.24,1-.54-.31-.36-.5-.44l.09-2.88a8.33,8.33,0,0,0,3.33-.9l.95,1.55c-.14.16-.34.47-.25.62s.6.23,1,0,.66-.64.52-.87-.41-.15-.59-.12l-.87-1.62A8.47,8.47,0,0,0,303,316.5l2.5,1.35c0,.23-.06.63.11.73s.7-.1,1-.57.28-1,0-1.12-.47.09-.63.22l-2.44-1.51a8.51,8.51,0,0,0,.87-3.34Z" style="fill:none;stroke:#263238;stroke-linecap:round;stroke-linejoin:round;stroke-width:0.5px"></path><path d="M296.54,305.32a.88.88,0,0,1-1.75,0,.88.88,0,0,1,1.75,0Z" style="fill:none;stroke:#263238;stroke-linecap:round;stroke-linejoin:round;stroke-width:0.5px"></path><path d="M291.25,312.06a.88.88,0,1,1-.87-.83A.86.86,0,0,1,291.25,312.06Z" style="fill:none;stroke:#263238;stroke-linecap:round;stroke-linejoin:round;stroke-width:0.5px"></path><ellipse cx="294.29" cy="309.9" rx="0.87" ry="0.83" style="fill:none;stroke:#263238;stroke-linecap:round;stroke-linejoin:round;stroke-width:0.5px"></ellipse><path d="M293.13,317.14a.87.87,0,0,1-.88.84.84.84,0,1,1,.88-.84Z" style="fill:none;stroke:#263238;stroke-linecap:round;stroke-linejoin:round;stroke-width:0.5px"></path><ellipse cx="301.79" cy="313.64" rx="0.87" ry="0.83" style="fill:none;stroke:#263238;stroke-linecap:round;stroke-linejoin:round;stroke-width:0.5px"></ellipse><path d="M296.41,314.78a.87.87,0,0,1-.88.84.84.84,0,1,1,.88-.84Z" style="fill:none;stroke:#263238;stroke-linecap:round;stroke-linejoin:round;stroke-width:0.5px"></path><path d="M299.24,311.45a.88.88,0,1,1-.88-.83A.85.85,0,0,1,299.24,311.45Z" style="fill:none;stroke:#263238;stroke-linecap:round;stroke-linejoin:round;stroke-width:0.5px"></path><path d="M301.35,307.57a.88.88,0,1,1-.87-.83A.85.85,0,0,1,301.35,307.57Z" style="fill:none;stroke:#263238;stroke-linecap:round;stroke-linejoin:round;stroke-width:0.5px"></path><path d="M299.33,317.56a.85.85,0,0,1-.87.83.83.83,0,1,1,0-1.66A.85.85,0,0,1,299.33,317.56Z" style="fill:none;stroke:#263238;stroke-linecap:round;stroke-linejoin:round;stroke-width:0.5px"></path><path d="M292.17,306.81a.88.88,0,0,1-1.75,0,.88.88,0,0,1,1.75,0Z" style="fill:none;stroke:#263238;stroke-linecap:round;stroke-linejoin:round;stroke-width:0.5px"></path><line x1="177.87" y1="278.23" x2="327.56" y2="278.23" style="fill:none;stroke:#263238;stroke-linecap:round;stroke-linejoin:round"></line><line x1="177.8" y1="274.34" x2="177.8" y2="281.86" style="fill:none;stroke:#263238;stroke-linecap:round;stroke-linejoin:round"></line><line x1="187.16" y1="276.17" x2="187.16" y2="280.03" style="fill:none;stroke:#263238;stroke-linecap:round;stroke-linejoin:round"></line><line x1="196.52" y1="274.34" x2="196.52" y2="281.86" style="fill:none;stroke:#263238;stroke-linecap:round;stroke-linejoin:round"></line><line x1="205.88" y1="276.17" x2="205.88" y2="280.03" style="fill:none;stroke:#263238;stroke-linecap:round;stroke-linejoin:round"></line><line x1="215.24" y1="274.34" x2="215.24" y2="281.86" style="fill:none;stroke:#263238;stroke-linecap:round;stroke-linejoin:round"></line><line x1="224.6" y1="276.17" x2="224.6" y2="280.03" style="fill:none;stroke:#263238;stroke-linecap:round;stroke-linejoin:round"></line><line x1="233.96" y1="274.34" x2="233.96" y2="281.86" style="fill:none;stroke:#263238;stroke-linecap:round;stroke-linejoin:round"></line><line x1="243.32" y1="276.17" x2="243.32" y2="280.03" style="fill:none;stroke:#263238;stroke-linecap:round;stroke-linejoin:round"></line><line x1="252.68" y1="274.34" x2="252.68" y2="281.86" style="fill:none;stroke:#263238;stroke-linecap:round;stroke-linejoin:round"></line><line x1="262.04" y1="276.17" x2="262.04" y2="280.03" style="fill:none;stroke:#263238;stroke-linecap:round;stroke-linejoin:round"></line><line x1="271.4" y1="274.34" x2="271.4" y2="281.86" style="fill:none;stroke:#263238;stroke-linecap:round;stroke-linejoin:round"></line><line x1="280.76" y1="276.17" x2="280.76" y2="280.03" style="fill:none;stroke:#263238;stroke-linecap:round;stroke-linejoin:round"></line><line x1="290.12" y1="274.34" x2="290.12" y2="281.86" style="fill:none;stroke:#263238;stroke-linecap:round;stroke-linejoin:round"></line><line x1="299.48" y1="276.17" x2="299.48" y2="280.03" style="fill:none;stroke:#263238;stroke-linecap:round;stroke-linejoin:round"></line><line x1="308.84" y1="274.34" x2="308.84" y2="281.86" style="fill:none;stroke:#263238;stroke-linecap:round;stroke-linejoin:round"></line><line x1="318.2" y1="276.17" x2="318.2" y2="280.03" style="fill:none;stroke:#263238;stroke-linecap:round;stroke-linejoin:round"></line><line x1="327.56" y1="274.34" x2="327.56" y2="281.86" style="fill:none;stroke:#263238;stroke-linecap:round;stroke-linejoin:round"></line><path d="M252.52,294.8a1.08,1.08,0,0,1-.23-.73V288.3l-1.14.7a.53.53,0,0,1-.3.09.5.5,0,0,1-.4-.19.6.6,0,0,1-.16-.42.56.56,0,0,1,.3-.5l2.08-1.23a1.08,1.08,0,0,1,.47-.15.76.76,0,0,1,.57.25,1.1,1.1,0,0,1,.22.72v6.54a1,1,0,0,1-.23.68.79.79,0,0,1-.59.26A.75.75,0,0,1,252.52,294.8Z" style="fill:#263238"></path><path d="M176,295a2.55,2.55,0,0,1-.91-.65,3.34,3.34,0,0,1-.58-1,5.32,5.32,0,0,1-.33-1.2,9.41,9.41,0,0,1-.09-1.34,9.17,9.17,0,0,1,.09-1.33,5.24,5.24,0,0,1,.33-1.19,3.29,3.29,0,0,1,.58-1,2.55,2.55,0,0,1,.91-.65,3.4,3.4,0,0,1,2.51,0,2.49,2.49,0,0,1,.9.64,3.44,3.44,0,0,1,.59,1,5.71,5.71,0,0,1,.33,1.18,9.46,9.46,0,0,1,.09,1.35,9.27,9.27,0,0,1-.09,1.33,5,5,0,0,1-.33,1.21,3.48,3.48,0,0,1-.58,1,2.55,2.55,0,0,1-.91.65,3.06,3.06,0,0,1-1.25.24A3.15,3.15,0,0,1,176,295Zm1.82-1.18a1,1,0,0,0,.41-.34,2.19,2.19,0,0,0,.27-.5,2.79,2.79,0,0,0,.17-.65,6.25,6.25,0,0,0,.07-.72q0-.36,0-.78t0-.78a5.88,5.88,0,0,0-.07-.71,2.58,2.58,0,0,0-.17-.64,1.93,1.93,0,0,0-.27-.49,1,1,0,0,0-.41-.34,1.25,1.25,0,0,0-.56-.12,1.32,1.32,0,0,0-.57.12,1.12,1.12,0,0,0-.41.34,2.84,2.84,0,0,0-.27.49,3.14,3.14,0,0,0-.16.64c0,.24-.06.48-.08.71s0,.49,0,.78,0,.54,0,.77,0,.48.08.73a3.43,3.43,0,0,0,.16.65,3.38,3.38,0,0,0,.27.5,1.12,1.12,0,0,0,.41.34,1.32,1.32,0,0,0,.57.12A1.25,1.25,0,0,0,177.84,293.78Z" style="fill:#263238"></path><path d="M329.29,291.59l-2.48,2.2h3.25a.43.43,0,0,1,.37.18.72.72,0,0,1,.14.44.77.77,0,0,1-.14.45.42.42,0,0,1-.37.19h-4.18a.79.79,0,0,1-.83-.82,1,1,0,0,1,.32-.75l3-3a2,2,0,0,0,.75-1.37,1.12,1.12,0,0,0-.39-.89,1.35,1.35,0,0,0-.95-.35,2.45,2.45,0,0,0-.62.07,2.93,2.93,0,0,0-.43.13,4.68,4.68,0,0,0-.42.22l-.34.19a.34.34,0,0,1-.17.05.62.62,0,0,1-.45-.23.72.72,0,0,1-.21-.49.55.55,0,0,1,.3-.49,6.19,6.19,0,0,1,1.18-.54,4.5,4.5,0,0,1,1.31-.19,2.78,2.78,0,0,1,2,.71,2.24,2.24,0,0,1,.77,1.72A3.49,3.49,0,0,1,329.29,291.59Z" style="fill:#263238"></path></g><g id="freepik--Trees--inject-85"><path d="M360.85,255.15s13.68,1.33,20.61,9.63a26.61,26.61,0,0,1,20.48-9.42,25.61,25.61,0,0,0,6.11-16.62c0-14.39-11.89-26.06-26.57-26.06s-26.59,11.65-26.6,26a25.62,25.62,0,0,0,6,16.45Z" style="fill:#90CAF9"></path><path d="M360.85,255.15s13.68,1.33,20.61,9.63a26.61,26.61,0,0,1,20.48-9.42,25.61,25.61,0,0,0,6.11-16.62c0-14.39-11.89-26.06-26.57-26.06s-26.59,11.65-26.6,26a25.62,25.62,0,0,0,6,16.45Z" style="fill:#fff;opacity:0.22"></path><polygon points="381.01 214.51 380.55 350.5 382.85 350.5 381.01 214.51" style="fill:#828282"></polygon><path d="M381.7,262.25s4.62-8.14,12.93-10.63c0,0-8.77,2-13.16,9.05Z" style="fill:#828282"></path><path d="M381.2,239.4s5.12-8.37,13.43-10.86c0,0-9.05,2.55-13.43,9.57Z" style="fill:#828282"></path><path d="M381.38,251.29s4.94-8.72,13.25-11.21c0,0-9,2.44-13.37,9.46Z" style="fill:#828282"></path><path d="M381,245.06s-4.46-8.15-12.48-10.64c0,0,8.47,2,12.7,9.05Z" style="fill:#828282"></path><path d="M381,256.37s-4.46-8.14-12.48-10.63c0,0,8.47,2,12.7,9Z" style="fill:#828282"></path><path d="M140.56,209.31s16.93,1.64,25.51,11.92a33,33,0,0,1,25.35-11.67A31.67,31.67,0,0,0,199,189c0-17.81-14.72-32.25-32.89-32.26S133.19,171.17,133.18,189a31.72,31.72,0,0,0,7.38,20.36Z" style="fill:#90CAF9"></path><path d="M140.56,209.31s16.93,1.64,25.51,11.92a33,33,0,0,1,25.35-11.67A31.67,31.67,0,0,0,199,189c0-17.81-14.72-32.25-32.89-32.26S133.19,171.17,133.18,189a31.72,31.72,0,0,0,7.38,20.36Z" style="fill:#fff;opacity:0.22"></path><polygon points="165.51 159.01 164.94 327.33 167.8 327.33 165.51 159.01" style="fill:#828282"></polygon><path d="M166.37,218.1s5.72-10.08,16-13.16c0,0-10.85,2.52-16.28,11.2Z" style="fill:#828282"></path><path d="M165.75,189.81s6.34-10.36,16.62-13.44c0,0-11.19,3.16-16.62,11.84Z" style="fill:#828282"></path><path d="M166,204.54s6.12-10.8,16.4-13.88c0,0-11.12,3-16.55,11.7Z" style="fill:#828282"></path><path d="M165.52,196.82s-5.51-10.08-15.44-13.16c0,0,10.48,2.52,15.72,11.2Z" style="fill:#828282"></path><path d="M165.52,210.82s-5.51-10.08-15.44-13.16c0,0,10.48,2.52,15.72,11.2Z" style="fill:#828282"></path><path d="M371.1,192.64s25.13,2.43,37.87,17.7c0,0,13.45-17.69,37.62-17.32a47.13,47.13,0,0,0,11.24-30.53c0-26.44-21.85-47.88-48.83-47.89S360.15,136,360.14,162.46a47.06,47.06,0,0,0,10.95,30.22Z" style="fill:#90CAF9"></path><path d="M371.1,192.64s25.13,2.43,37.87,17.7c0,0,13.45-17.69,37.62-17.32a47.13,47.13,0,0,0,11.24-30.53c0-26.44-21.85-47.88-48.83-47.89S360.15,136,360.14,162.46a47.06,47.06,0,0,0,10.95,30.22Z" style="fill:#fff;opacity:0.5"></path><polygon points="408.13 117.98 407.29 367.83 411.53 367.83 408.13 117.98" style="fill:#828282"></polygon><path d="M409.41,205.69s8.48-15,23.75-19.54c0,0-16.12,3.74-24.18,16.63Z" style="fill:#828282"></path><path d="M408.48,163.69s9.41-15.37,24.68-19.94c0,0-16.62,4.69-24.68,17.57Z" style="fill:#828282"></path><path d="M408.81,185.55s9.08-16,24.35-20.6c0,0-16.51,4.49-24.57,17.37Z" style="fill:#828282"></path><path d="M408.15,174.1s-8.19-15-22.92-19.54c0,0,15.55,3.74,23.33,16.63Z" style="fill:#828282"></path><path d="M408.15,194.88s-8.19-15-22.92-19.54c0,0,15.55,3.74,23.33,16.63Z" style="fill:#828282"></path><path d="M60.67,209.07s31,3,46.75,21.85c0,0,16.61-21.83,46.45-21.38a58.17,58.17,0,0,0,13.87-37.69c0-32.63-27-59.1-60.28-59.11s-60.31,26.44-60.32,59.07a58.17,58.17,0,0,0,13.52,37.31Z" style="fill:#90CAF9"></path><path d="M60.67,209.07s31,3,46.75,21.85c0,0,16.61-21.83,46.45-21.38a58.17,58.17,0,0,0,13.87-37.69c0-32.63-27-59.1-60.28-59.11s-60.31,26.44-60.32,59.07a58.17,58.17,0,0,0,13.52,37.31Z" style="fill:#fff;opacity:0.5"></path><polygon points="106.39 116.91 105.35 358.65 110.58 358.65 106.39 116.91" style="fill:#828282"></polygon><path d="M108,225.18s10.48-18.47,29.33-24.12c0,0-19.9,4.62-29.85,20.53Z" style="fill:#828282"></path><path d="M107.18,173.87s11.26-19.5,30.11-25.15c0,0-20.09,5.36-30,21.26Z" style="fill:#828282"></path><path d="M107.49,199.67s11-19.13,29.8-24.78c0,0-19.9,4.62-29.85,20.53Z" style="fill:#828282"></path><path d="M106.41,186.18s-10.1-18.47-28.29-24.12c0,0,19.2,4.62,28.8,20.53Z" style="fill:#828282"></path><path d="M106.41,211.84s-10.1-18.47-28.29-24.12c0,0,19.2,4.62,28.8,20.53Z" style="fill:#828282"></path></g><g id="freepik--Floor--inject-85"><line x1="81.91" y1="382.27" x2="174.81" y2="328.39" style="fill:none;stroke:gray;stroke-linecap:round;stroke-linejoin:round"></line><line x1="420.06" y1="382.27" x2="327.16" y2="328.39" style="fill:none;stroke:gray;stroke-linecap:round;stroke-linejoin:round"></line><line x1="167" y1="333" x2="334.84" y2="333" style="fill:none;stroke:gray;stroke-linecap:round;stroke-linejoin:round"></line><line x1="146.99" y1="344.38" x2="354.85" y2="344.38" style="fill:none;stroke:gray;stroke-linecap:round;stroke-linejoin:round"></line><line x1="101.13" y1="371.29" x2="400.94" y2="371.29" style="fill:none;stroke:gray;stroke-linecap:round;stroke-linejoin:round"></line></g><g id="freepik--character-2--inject-85"><ellipse cx="365.95" cy="381.93" rx="22.46" ry="10.32" style="fill:#90CAF9"></ellipse><ellipse cx="365.95" cy="381.93" rx="22.46" ry="10.32" style="fill:#fff;opacity:0.5"></ellipse><path d="M350.6,197.5s-9.18,5.74-10,12,5.27,8.69,5,11.91-6.51,8.07-6.34,14.21,4.58,10.45,6.9,14.39-5.7,8.09-3.77,14.92,7.25,13.26,23.72,13.2,19.25-7.59,19.72-13.55-3.5-8.48-2.59-12.34,4.81-5.2,4.18-12.16-9.09-10.57-11.65-17.74-3.79-16.08-7.37-21.5S354.56,194.21,350.6,197.5Z" style="fill:#263238;stroke:#263238;stroke-linecap:round;stroke-linejoin:round"></path><path d="M348.82,267.71s-4.41,6.66-6.94,20.63,3,30.68,4.28,36,.61,4.85-.18,11.85,1.37,12.73,2.55,18.57S353.87,378,353.87,378s-4.33,3.88-5,6.77,3,1.41,4.84-.12,3.57-7.17,3.57-7.17-.63-27.59-.55-30.49.26-53.1.26-53.1l1.69.16s.89,36.19,2.27,39.25,15.23,43,15.23,43,.5,8.85,2.17,10,3,.92,3.21-2.58-2.93-8.55-2.93-8.55-2.67-18.45-2.51-25.1a33.08,33.08,0,0,0-2.78-14.35,20.85,20.85,0,0,0-3.26-4.68s5.53-17.76,5.57-28.89-6-28.94-8.81-34.09l-1.64-2-15.11-.39Z" style="fill:#263238;stroke:#263238;stroke-linecap:round;stroke-linejoin:round"></path><path d="M355.1,378.42a2.52,2.52,0,0,0-1.27-.56l0,.18s-4.33,3.88-5,6.77,3,1.41,4.84-.12,3.57-7.17,3.57-7.17v-.4C356.48,378.07,355.6,378.85,355.1,378.42Z" style="fill:#fff;stroke:#263238;stroke-linecap:round;stroke-linejoin:round"></path><path d="M377.85,377.3c-1,.14-1.46-.06-1.63-.31.15,2.07.73,8.35,2.12,9.3,1.66,1.13,3,.92,3.21-2.58.16-2.66-1.61-6.19-2.47-7.75C378.87,376.67,378.5,377.21,377.85,377.3Z" style="fill:#fff;stroke:#263238;stroke-linecap:round;stroke-linejoin:round"></path><path d="M352.05,230.9s-13.62,3-13.77,4.12-2.46,30.06-2.47,30.54-3.11,27-3.11,27l2.42.06S343,264.9,343.6,263.7s.56-12.44.56-12.44S348.33,263,348.55,264a30.53,30.53,0,0,1,.27,3.76s.43,2.19,6.33,2.94,11.68-2.6,11.68-2.6-.16-3.27.47-4.22,1.8-8.79,1.8-8.79,2.07,13.84,2.49,16.39,5.13,23.5,5.13,23.5l2.67-.17-3.58-32.53-2.57-27.17a59.87,59.87,0,0,0-9.58-3.75C360.05,230.49,352.05,230.9,352.05,230.9Z" style="fill:#90CAF9;stroke:#263238;stroke-linecap:round;stroke-linejoin:round"></path><line x1="369.1" y1="255.04" x2="370.4" y2="246.85" style="fill:#fff;stroke:#263238;stroke-linecap:round;stroke-linejoin:round"></line><path d="M332.7,292.58a19.92,19.92,0,0,0-.71,4.22,79.46,79.46,0,0,0,1.23,8.74s.94,1,1.24-1.3.38-5.68.38-5.68,1.6,3.92,1.88,2.47-1.6-8.39-1.6-8.39Z" style="fill:#fff;stroke:#263238;stroke-linecap:round;stroke-linejoin:round"></path><path d="M379.39,294.76a38,38,0,0,1,1.39,3.87,8.52,8.52,0,0,1,.09,3.77s.22,6.2-.64,4.06-1.78-5.4-1.78-5.4-.57,4.18-1.2,2.85-.53-9-.53-9Z" style="fill:#fff;stroke:#263238;stroke-linecap:round;stroke-linejoin:round"></path><path d="M353.06,229.35a3.49,3.49,0,0,0-3.06,1.49c-1.5,1.78-.26,5.2-.07,7.26s.35,5.45.35,5.45,4.8-3.38,5.66-3.72,2.56-.91,3.15-.17,2.9,4.67,3.51,4.45-.14-5.38.08-7.86c.34-3.87-.31-6.79-4.4-7.74S353.06,229.35,353.06,229.35Z" style="fill:#fff;stroke:#263238;stroke-linecap:round;stroke-linejoin:round"></path><path d="M352,226.9s-.43,7.73,1.3,11,3.89,3.85,5.29,1.23.36-14.39.36-14.39S354.81,227.09,352,226.9Z" style="fill:#fff;stroke:#263238;stroke-linecap:round;stroke-linejoin:round"></path><path d="M351.64,207.38s2.39,7.81,5.92,8.71,5.16.29,5.16.29a3.29,3.29,0,0,1,.25,2.75,2.57,2.57,0,0,1-2.46,1.55s-.11,4.36-2.26,6.4-8.32,1.81-10.18-2.36c-1.5-3.36-1.19-5-2.13-8.58a12.42,12.42,0,0,1-.59-2.64S351.29,208.66,351.64,207.38Z" style="fill:#fff;stroke:#263238;stroke-linecap:round;stroke-linejoin:round"></path><path d="M350.19,215.12s-.58,4.3,0,4.69,1.5.13,1.71-1" style="fill:none;stroke:#263238;stroke-linecap:round;stroke-linejoin:round"></path><path d="M352.17,222a3.83,3.83,0,0,0,3.33-1.88" style="fill:none;stroke:#263238;stroke-linecap:round;stroke-linejoin:round"></path><path d="M349.39,216.39c.13.63,0,1.2-.37,1.27s-.7-.4-.83-1,0-1.2.37-1.27S349.26,215.75,349.39,216.39Z" style="fill:#263238"></path><path d="M354.09,215.94c.13.64,0,1.21-.37,1.27s-.7-.39-.83-1,0-1.21.37-1.27S354,215.31,354.09,215.94Z" style="fill:#263238"></path><path d="M347.48,214.58a1.51,1.51,0,0,1,2.07-.41" style="fill:none;stroke:#263238;stroke-linecap:round;stroke-linejoin:round"></path><path d="M352,214s.6-1.48,2.71.26" style="fill:none;stroke:#263238;stroke-linecap:round;stroke-linejoin:round"></path></g><g id="freepik--character-1--inject-85"><ellipse cx="149.52" cy="381.93" rx="22.46" ry="10.32" style="fill:#90CAF9"></ellipse><ellipse cx="149.52" cy="381.93" rx="22.46" ry="10.32" style="fill:#fff;opacity:0.5"></ellipse><path d="M141.48,368.1s-4.18,7-4.18,10,5.11.69,7.43-3.26a14.08,14.08,0,0,0,2.09-7.43s-1.85-3-3.48-1.62A5.4,5.4,0,0,0,141.48,368.1Z" style="fill:#fff;stroke:#263238;stroke-linecap:round;stroke-linejoin:round"></path><path d="M150.77,372.28s-2.55,10-.93,14.17,4.18,2.55,5.34-2.33a36.94,36.94,0,0,0,.47-10.91Z" style="fill:#fff;stroke:#263238;stroke-linecap:round;stroke-linejoin:round"></path><path d="M130.57,278s-1.16,30-2.79,40.18-2.09,21.83.93,27.17,11.84,22.76,11.84,22.76.93,2.32,3,1.39a23.32,23.32,0,0,0,3.25-2.09s-6-23.92-6-30.65S145,305.63,145,305.63s-.7,29,.69,37.85,4.88,30.43,4.88,30.43,1.86,3.48,4.18,1.85a4.06,4.06,0,0,0,1.86-3.94l4.64-42.74,1.4-40.87-1.4-8.13A31.19,31.19,0,0,0,145,275.67C135.21,275.67,130.57,278,130.57,278Z" style="fill:#263238;stroke:#263238;stroke-linecap:round;stroke-linejoin:round"></path><path d="M146.45,223.72s-16.11,1.78-17.89,2.28-3,.89-3.17,1.65-14.22,29.19-14,30.71,2.41,4.06,4.44,3.43,13.2-18.27,13.2-18.27l1,38.19a17.3,17.3,0,0,1,9.39-.76c4.7,1.14,11.8,7.36,16.12,8.63a17.73,17.73,0,0,0,7.61.64L166,245.8s21.32,14.59,23.22,14,14-34.14,14-34.14a18.23,18.23,0,0,0,2.54-3,19.28,19.28,0,0,1,1.73-3c.44-.67,1.43-1.5.88-2.37-.7.35-1.27,2.2-2,2.35.47-1.44,1.11-2.83,1.54-4.29a5.09,5.09,0,0,0,.41-2.16c-.15-.66-1.1-1.66-1.83-1.15-.35.25-.64,1.15-.86,1.52a20.12,20.12,0,0,0-1.88,3.18c.24-1,1.21-2.58,1.45-3.59.08-.33.24-1.63-.15-1.83s-1.15,1.15-1.33,1.49c-.59,1.15-1.18,2.31-1.76,3.48a32.35,32.35,0,0,0-2.82,6.27,26.83,26.83,0,0,0-.64,4.32L185.54,249l-14.47-15s-4.19-4.82-7.74-6.09S146.45,223.72,146.45,223.72Z" style="fill:#d9d9d9;stroke:#263238;stroke-linecap:round;stroke-linejoin:round"></path><line x1="207.62" y1="212.17" x2="205.03" y2="218.01" style="fill:#fff;stroke:#263238;stroke-linecap:round;stroke-linejoin:round;stroke-width:0.75px"></line><line x1="203.27" y1="216.63" x2="205.86" y2="218.66" style="fill:none;stroke:#263238;stroke-linecap:round;stroke-linejoin:round;stroke-width:0.75px"></line><path d="M198.86,226.38a24.61,24.61,0,0,1-.76-4.44c0-1.2,1.82-4.46,2.59-5.78a.77.77,0,0,1,.94-.34h0a.77.77,0,0,1,.45,1,8.81,8.81,0,0,0-.81,2.94c0,1.39.89,2.79.89,3.93a7.77,7.77,0,0,1-.5,2.41" style="fill:#d9d9d9;stroke:#263238;stroke-linecap:round;stroke-linejoin:round"></path><path d="M196.65,229.91,185.54,249l-14.47-15s-4.19-4.82-7.74-6.09-16.88-4.19-16.88-4.19-16.11,1.78-17.89,2.28-3,.89-3.17,1.65-14.22,29.19-14,30.71,2.41,4.06,4.44,3.43,13.2-18.27,13.2-18.27l1,38.19a17.3,17.3,0,0,1,9.39-.76c4.7,1.14,11.8,7.36,16.12,8.63a17.73,17.73,0,0,0,7.61.64L166,245.8s21.32,14.59,23.22,14c1.36-.45,7.92-17.73,11.54-27.52Z" style="fill:#90CAF9;stroke:#263238;stroke-linecap:round;stroke-linejoin:round"></path><polyline points="126.8 235.25 129.07 243.52 123.35 235.68" style="fill:none;stroke:#263238;stroke-linecap:round;stroke-linejoin:round"></polyline><path d="M146.45,223.72l-6.18.7a57.69,57.69,0,0,0,2,11.55c1.72,5.32,3.3,10.49,4.88,9.63,1.33-.73,7.16-15.13,9-19.64C151.46,224.82,146.45,223.72,146.45,223.72Z" style="fill:#fff;stroke:#263238;stroke-linecap:round;stroke-linejoin:round"></path><path d="M113.33,253.16s-2.54,4.44-2.54,6.6,3.18,6.22,6,10.41S132,285.77,132,285.77l3.55-4.18,3.81,1.52,1-.89s-4.57-4.29-6.09-4.29-4.46.29-4.46.29l-11.4-20.74" style="fill:#90CAF9;stroke:#263238;stroke-linecap:round;stroke-linejoin:round"></path><path d="M127.11,273.3l-4.94,3c4.47,4.56,9.82,9.46,9.82,9.46l3.55-4.18,3.81,1.52,1-.89s-4.57-4.29-6.09-4.29-4.46.29-4.46.29Z" style="fill:#d9d9d9;stroke:#263238;stroke-linecap:round;stroke-linejoin:round"></path><polyline points="141.48 292.85 146.36 294.01 144.97 305.63" style="fill:none;stroke:#263238;stroke-linecap:round;stroke-linejoin:round"></polyline><path d="M142.77,216.49s.76,5.33.89,8.37,1.65,14.09,2.92,15.61S152,226.64,152,226.64l.38-6S145.31,219.53,142.77,216.49Z" style="fill:#d9d9d9;stroke:#263238;stroke-linecap:round;stroke-linejoin:round"></path><path d="M142.39,194.53s-3.68.76-4.57,3.94,3.18,15.6,4.19,17.89,6.09,6.09,10.28,6.47,7.23-2.92,8-6.22-.76-10-1.14-14-.38-7.61-3.17-9.39S145.94,189.84,142.39,194.53Z" style="fill:#d9d9d9;stroke:#263238;stroke-linecap:round;stroke-linejoin:round"></path><path d="M157.37,198.09a12.56,12.56,0,0,1,1.55,2.07c-.29-2.94-.76-5.5-2.95-6.9-2.79-1.77-10-3.42-13.58,1.27,0,0-3.68.76-4.57,3.94-.52,1.85.66,6.87,1.92,11.18a2.34,2.34,0,0,0,1.64-1.79,4.7,4.7,0,0,1,2.28-3.81c1.52-1,2.79-2.54,2.16-4.57a5.5,5.5,0,0,0-1.61-2.56,11.32,11.32,0,0,0,6.43,2.05A23.55,23.55,0,0,0,157.37,198.09Z" style="fill:#263238;stroke:#263238;stroke-linecap:round;stroke-linejoin:round"></path><path d="M142,210.52s-2.92-4.06-3.68-1.39,2,6.85,3.68,4.82" style="fill:#d9d9d9;stroke:#263238;stroke-linecap:round;stroke-linejoin:round"></path><path d="M155.21,209.51s1.52,2.79.89,3.93a1.21,1.21,0,0,1-2.29-.13" style="fill:none;stroke:#263238;stroke-linecap:round;stroke-linejoin:round"></path><path d="M150.39,214.84s2.15,2.66,5.07,1.14" style="fill:none;stroke:#263238;stroke-linecap:round;stroke-linejoin:round"></path><ellipse cx="150.89" cy="209.13" rx="0.89" ry="1.27" style="fill:#263238"></ellipse><ellipse cx="157.49" cy="208.11" rx="0.89" ry="1.27" style="fill:#263238"></ellipse><path d="M153.81,206.08l-7.23,1.27s.1,3.28,1.27,4.19c1.65,1.27,3.81.5,5.2-.38S153.81,206.08,153.81,206.08Z" style="fill:none;stroke:#263238;stroke-linecap:round;stroke-linejoin:round"></path><path d="M162.05,204.56l-6.84,1.2a15.79,15.79,0,0,0,1.2,4c.72,1.2,3.6.48,4.92-.36S162.05,204.56,162.05,204.56Z" style="fill:none;stroke:#263238;stroke-linecap:round;stroke-linejoin:round"></path><line x1="153.81" y1="206.08" x2="155.21" y2="205.76" style="fill:none;stroke:#263238;stroke-linecap:round;stroke-linejoin:round"></line><line x1="146.58" y1="207.35" x2="140.49" y2="208.74" style="fill:none;stroke:#263238;stroke-linecap:round;stroke-linejoin:round"></line><path d="M147.72,205.7a3.44,3.44,0,0,1,3.17-1" style="fill:none;stroke:#263238;stroke-linecap:round;stroke-linejoin:round"></path><path d="M155.08,203.54s1.14-1.14,2.92.26" style="fill:none;stroke:#263238;stroke-linecap:round;stroke-linejoin:round"></path></g></svg>