<svg xmlns="http://www.w3.org/2000/svg" xmlns:xlink="http://www.w3.org/1999/xlink" viewBox="0 0 500 500"><defs><clipPath id="freepik--clip-path--inject-95"><path d="M362.14,213.86s-10.54,4.52-12.05,9.9-2.15,21.09-1.93,22.17-1.94,2.8-1.94,4.95a44.13,44.13,0,0,0,.65,5.81s-3.23,1.07-3.23,2.15a1.71,1.71,0,0,1-.86,1.51L318,267.45l1.72,12.48s25,.65,30.77-1.29,9-6.89,10.33-7.53,2.59-2.59,3.23-2.8,4.52-9.25,4.52-14-1.72-21.09-1.51-25,1.08-9.69,1.3-12.7S362.14,213.86,362.14,213.86Z" style="fill:#fff;stroke:#263238;stroke-linecap:round;stroke-linejoin:round"></path></clipPath><clipPath id="freepik--clip-path-2--inject-95"><path d="M359.56,239.26c0,.64,2.37,14.63,2.37,19.58s3,19.37,2.8,20.87,0,11.2,0,14-1.29,19.37-1.94,27.33,3.87,25.18,3.87,25.18,0,1.94-.21,5.38,2.15,17,2.37,21.09-2.16,10.76-2.16,14.85,2.37,5.17,2.37,5.81-.21,2.8-.21,5.17a12.66,12.66,0,0,0,.43,3.65,77.8,77.8,0,0,0,9.68,3.23,42.12,42.12,0,0,0,8,.86l3-2.15,1.29,1.29s8.61,4.52,13.77,7.75,7.32,3.44,7.32,3.44,2.58-6,2.58-7.74a5.21,5.21,0,0,0-.65-3c-.43-.86.43-7.53,1.08-12.05s4.3-17.86,4.3-23.89-1.72-14.63-2.36-20.65,3.22-30.13,3.22-30.13,3.45-9,3.88-14.64a74.45,74.45,0,0,0-.65-15.49c-.64-5.6.43-10.76,1.94-18.51A138.32,138.32,0,0,0,428,249.8c.21-5.59,1.93-22.16.21-30.13S416,207,416,207s-2.8-2.8-4.09-2.8-5.81-.65-5.81-.65a12.1,12.1,0,0,0-.22-3.66,20.46,20.46,0,0,0-2.15-4.73,165.94,165.94,0,0,0-.86-16.79c-.86-6.67-5.17-13.55-14.42-14.2s-15.93,3.44-17.86,5.17.21,5.59.21,5.59-.64,8.39,1.08,15.07,4.95,11.83,5.38,13.34-2.8,2.15-2.37,3.66a9.06,9.06,0,0,1,.43,2.15s-9.47,1.94-13.13,4.73-3.65,3.66-3.65,3.66" style="fill:#fff;stroke:#263238;stroke-linecap:round;stroke-linejoin:round"></path></clipPath><clipPath id="freepik--clip-path-3--inject-95"><path d="M417.45,233.45s.86,6.24,3,9.9a24.2,24.2,0,0,0,6.25,6.45s-1.08,2.8-.65,4.09a7.09,7.09,0,0,0,2.15,2.58s-5.16,6.67-6.24,9.69a34.88,34.88,0,0,1-3.66,6.67l10.55,10.54s4.52-3,11.19-6.88,14.42-13.35,15.49-15.28,3.45-3.45,3.66-4.95-5-13.07-6.67-15.07c-11.48-13.7-9.2-31.42-26-31.42C424.34,209.77,416,207,416,207" style="fill:#fff;stroke:#263238;stroke-linecap:round;stroke-linejoin:round"></path></clipPath></defs><g id="freepik--background-simple--inject-95"><path d="M48.86,321.88S77.42,386.26,149.12,407,297,399.19,359.29,377.74s94.85-75.69,80.66-131-66.75-51.07-116-100-55-69.44-123-83.62S58.75,106.57,40.57,187.7,48.86,321.88,48.86,321.88Z" style="fill:#90CAF9"></path><path d="M48.86,321.88S77.42,386.26,149.12,407,297,399.19,359.29,377.74s94.85-75.69,80.66-131-66.75-51.07-116-100-55-69.44-123-83.62S58.75,106.57,40.57,187.7,48.86,321.88,48.86,321.88Z" style="fill:#fff;opacity:0.7000000000000001"></path></g><g id="freepik--Clouds--inject-95"><path d="M421.59,115.93c-4.69-2.56-6.83-.43-8.54-2.56s4.7-7.69-8.11-13.24c0,0-.86-12-18.37-12.39s-12.81,12-17.51,15-6-1.71-10.68,1.28-2.56,9-6.4,9.82-9-3.84-13.67-.85-4.7,5.55-6.84,5.55-6.4-1.71-9,0-5.56,3.85-5.56,3.85H425S426.29,118.49,421.59,115.93Z" style="fill:#90CAF9"></path><g style="opacity:0.5"><path d="M421.59,115.93c-4.69-2.56-6.83-.43-8.54-2.56s4.7-7.69-8.11-13.24c0,0-.86-12-18.37-12.39s-12.81,12-17.51,15-6-1.71-10.68,1.28-2.56,9-6.4,9.82-9-3.84-13.67-.85-4.7,5.55-6.84,5.55-6.4-1.71-9,0-5.56,3.85-5.56,3.85H425S426.29,118.49,421.59,115.93Z" style="fill:#fff"></path></g><path d="M358.75,177.24c-2.88-1.57-4.19-.26-5.23-1.57s2.87-4.7-5-8.1c0,0-.52-7.32-11.23-7.58s-7.85,7.32-10.72,9.15-3.66-1-6.53.78-1.57,5.49-3.92,6-5.49-2.35-8.37-.52-2.87,3.4-4.18,3.4-3.92-1.05-5.49,0-3.39,2.35-3.39,2.35h66.12S361.62,178.81,358.75,177.24Z" style="fill:#90CAF9"></path><g style="opacity:0.5"><path d="M358.75,177.24c-2.88-1.57-4.19-.26-5.23-1.57s2.87-4.7-5-8.1c0,0-.52-7.32-11.23-7.58s-7.85,7.32-10.72,9.15-3.66-1-6.53.78-1.57,5.49-3.92,6-5.49-2.35-8.37-.52-2.87,3.4-4.18,3.4-3.92-1.05-5.49,0-3.39,2.35-3.39,2.35h66.12S361.62,178.81,358.75,177.24Z" style="fill:#fff"></path></g></g><g id="freepik--Trees--inject-95"><path d="M217.49,244.85s24.54,2.42,37,17.64c0,0,13.15-17.63,36.75-17.27a47.71,47.71,0,1,0-73.74-.33Z" style="fill:#90CAF9"></path><path d="M217.49,244.85s24.54,2.42,37,17.64c0,0,13.15-17.63,36.75-17.27a47.71,47.71,0,1,0-73.74-.33Z" style="fill:#fff;opacity:0.5"></path><polygon points="253.66 170.44 252.83 419.45 256.98 419.45 253.66 170.44" style="fill:#828282"></polygon><path d="M254.9,257.85s8.29-14.91,23.2-19.47c0,0-15.74,3.73-23.61,16.57Z" style="fill:#828282"></path><path d="M254,216s9.19-15.32,24.1-19.87c0,0-16.23,4.67-24.1,17.51Z" style="fill:#828282"></path><path d="M254.32,237.79s8.87-16,23.78-20.54c0,0-16.12,4.47-24,17.32Z" style="fill:#828282"></path><path d="M253.68,226.37s-8-14.92-22.39-19.47c0,0,15.19,3.73,22.78,16.57Z" style="fill:#828282"></path><path d="M253.68,247.08s-8-14.91-22.39-19.47c0,0,15.19,3.73,22.78,16.57Z" style="fill:#828282"></path><path d="M85.64,208.54s42.87,4.24,64.59,30.82c0,0,23-30.79,64.18-30.16a83.32,83.32,0,1,0-128.78-.59Z" style="fill:#90CAF9"></path><path d="M85.64,208.54s42.87,4.24,64.59,30.82c0,0,23-30.79,64.18-30.16a83.32,83.32,0,1,0-128.78-.59Z" style="fill:#fff;opacity:0.30000000000000004"></path><polygon points="148.81 78.6 147.37 419.45 154.6 419.45 148.81 78.6" style="fill:#828282"></polygon><path d="M151,231.26s14.47-26,40.52-34c0,0-27.49,6.51-41.24,28.94Z" style="fill:#828282"></path><path d="M149.9,158.9s15.55-27.49,41.6-35.45c0,0-27.75,7.55-41.49,30Z" style="fill:#828282"></path><path d="M150.33,195.29s15.12-27,41.17-34.94c0,0-27.49,6.51-41.24,28.94Z" style="fill:#828282"></path><path d="M148.84,176.27s-14-26.05-39.1-34c0,0,26.53,6.52,39.8,29Z" style="fill:#828282"></path><path d="M148.84,212.45s-14-26-39.1-34c0,0,26.53,6.51,39.8,28.94Z" style="fill:#828282"></path></g><g id="freepik--Floor--inject-95"><polygon points="424.62 414.85 415.39 410.98 405.52 414.98 395.65 410.98 385.79 414.98 375.92 410.98 366.05 414.98 356.18 410.98 346.32 414.98 336.45 410.98 326.58 414.98 316.71 410.98 306.85 414.98 296.98 410.98 286.92 415.43 277.26 410.98 267.39 414.98 257.53 410.98 247.67 414.98 237.81 410.98 227.95 414.98 218.08 410.98 208.22 414.98 198.36 410.98 188.5 414.98 178.63 410.98 168.77 414.98 158.91 410.98 149.04 414.98 139.18 410.98 129.31 414.98 119.45 410.98 109.59 414.98 99.72 410.98 89.86 414.98 80 410.98 70.13 414.98 60.27 410.98 38.85 419.75 438.57 419.75 424.62 414.85" style="fill:#90CAF9"></polygon><polygon points="424.62 414.85 415.39 410.98 405.52 414.98 395.65 410.98 385.79 414.98 375.92 410.98 366.05 414.98 356.18 410.98 346.32 414.98 336.45 410.98 326.58 414.98 316.71 410.98 306.85 414.98 296.98 410.98 286.92 415.43 277.26 410.98 267.39 414.98 257.53 410.98 247.67 414.98 237.81 410.98 227.95 414.98 218.08 410.98 208.22 414.98 198.36 410.98 188.5 414.98 178.63 410.98 168.77 414.98 158.91 410.98 149.04 414.98 139.18 410.98 129.31 414.98 119.45 410.98 109.59 414.98 99.72 410.98 89.86 414.98 80 410.98 70.13 414.98 60.27 410.98 38.85 419.75 438.57 419.75 424.62 414.85" style="fill:#fff;opacity:0.5"></polygon><polyline points="50.41 414.98 60.27 410.98 70.13 414.98 80 410.98 89.86 414.98 99.72 410.98 109.59 414.98 119.45 410.98 129.31 414.98 139.18 410.98 149.04 414.98 158.91 410.98 168.77 414.98 178.63 410.98 188.5 414.98 198.36 410.98 208.22 414.98 218.08 410.98 227.95 414.98 237.81 410.98 247.67 414.98 257.53 410.98 267.39 414.98 277.26 410.98 287.12 414.98 296.98 410.98 306.85 414.98 316.71 410.98 326.58 414.98 336.45 410.98 346.32 414.98 356.18 410.98 366.05 414.98 375.92 410.98 385.79 414.98 395.65 410.98 405.52 414.98 415.39 410.98 425.26 414.98 435.13 410.98 445 414.98" style="fill:none;stroke:#263238;stroke-miterlimit:10"></polyline><line x1="34.33" y1="419.68" x2="427.45" y2="419.68" style="fill:none;stroke:#263238;stroke-miterlimit:10"></line></g><g id="freepik--Bench--inject-95"><path d="M289.39,326.66s-6.31,19.4-4.36,38.8" style="fill:none;stroke:#263238;stroke-linecap:round;stroke-linejoin:round;stroke-width:3px"></path><path d="M118.81,326.66s-6.31,19.4-4.36,38.8" style="fill:none;stroke:#263238;stroke-linecap:round;stroke-linejoin:round;stroke-width:3px"></path><path d="M119.26,419.15s-4.51-38.65-4.51-49.48-3.31-12.63-5.56-12.33S92.8,364.26,92,376.44s7.82,34.44,5.12,39.55-11.73,6-13.24-3.76,8-7.22,8.27-3.76-2,6.32-3.61,4.51" style="fill:none;stroke:#263238;stroke-linecap:round;stroke-linejoin:round;stroke-width:3px"></path><polygon points="102.3 332.45 294.08 332.45 302.08 297.93 110.29 297.93 102.3 332.45" style="fill:#999;stroke:#263238;stroke-linecap:round;stroke-linejoin:round"></polygon><polygon points="98.72 332.45 290.51 332.45 298.5 297.93 106.72 297.93 98.72 332.45" style="fill:#fff;stroke:#263238;stroke-linecap:round;stroke-linejoin:round"></polygon><polygon points="101.03 322.51 292.81 322.51 296.2 307.87 104.42 307.87 101.03 322.51" style="fill:#fff;stroke:#263238;stroke-linecap:round;stroke-linejoin:round"></polygon><path d="M289.85,419.15s-4.52-38.65-4.52-49.48S282,357,279.77,357.34s-16.39,6.92-17.14,19.1,7.82,34.44,5.11,39.55-11.73,6-13.24-3.76,8-7.22,8.28-3.76-2,6.32-3.61,4.51" style="fill:none;stroke:#263238;stroke-linecap:round;stroke-linejoin:round;stroke-width:3px"></path><rect x="79.41" y="354.48" width="209.23" height="3.76" style="fill:#fff;stroke:#263238;stroke-linecap:round;stroke-linejoin:round"></rect><rect x="243.68" y="354.48" width="44.96" height="3.76" style="fill:#999;stroke:#263238;stroke-linecap:round;stroke-linejoin:round"></rect></g><g id="freepik--Character--inject-95"><path d="M270.37,283.73s-12.45,3.11-23.08-2.63-8.92-18.66-19.87-19.56-9.53,3.15-19.74,3.88-6.54-16.21-15.53-21.14-17.31,5.51-26.62,5.43-1-11.07-14-18.57-15.42,3-29.86,3.66c-7.88.38-12.08-5.62-16.7-10.42-6.2-6.46-11-8.32-20.42-8.45C66.67,215.68,46.06,226,38,242.11c-7,14,3.17,21,3.65,33.95.35,9.47-7,18.68-8.17,28.25A26,26,0,0,0,38.72,324c3.5,4.68,10.18,8.89,10.89,15.1a71.79,71.79,0,0,0-2.55,10.67c-1.5,10.15-4.18,19.59,2.82,28.17,9.56,11.71,27.36,14,40.47,20.79,5.49,2.86,11.66,5.09,18.07,4.56,13.15-1.11,20.51-10.86,34.57-9.87,11.15.78,23,4.06,31.92-5.47,8.22-8.81,8-17.7,18.23-19.23s15.73-7.13,18.92-16.8,7.42-9.63,18.64-12.77,10.07-11.22,13-17.66,13.13-6.35,17.63-10.35,4.94-10.46,5.16-13.69,4.66-6.21,4.66-6.21Z" style="fill:#fff;opacity:0.75"></path><path d="M319.32,268.52s-10.12-.86-12.7,0-5.38,1.51-6.88,3.66-4.09,4.95-3.88,6,4.31,1.07,8.18.86a34.48,34.48,0,0,0,7.32-1.29L321,276.7Z" style="fill:#90CAF9;stroke:#263238;stroke-linecap:round;stroke-linejoin:round"></path><path d="M291.56,285.31a1.3,1.3,0,0,1-1.28-1.1l-.86-5.81a1.29,1.29,0,0,1,1.06-1.46l19.8-3.45a1.31,1.31,0,0,1,1,.24,1.29,1.29,0,0,1,.51.89l.64,5.59a1.29,1.29,0,0,1-2.56.3l-.49-4.24-17.21,3,.68,4.57a1.31,1.31,0,0,1-1.09,1.47Z" style="fill:#263238"></path><path d="M307.48,271.54s-5,1.29-6.67,1.72-6.24-.65-6.24,1.07,2.37,2.37,4.09,2.16a43.94,43.94,0,0,0,5.17-1.29s2.79,2.58,5.59,2.58,5.6-3,5.6-3" style="fill:#90CAF9;stroke:#263238;stroke-linecap:round;stroke-linejoin:round"></path><path d="M362.14,213.86s-10.54,4.52-12.05,9.9-2.15,21.09-1.93,22.17-1.94,2.8-1.94,4.95a44.13,44.13,0,0,0,.65,5.81s-3.23,1.07-3.23,2.15a1.71,1.71,0,0,1-.86,1.51L318,267.45l1.72,12.48s25,.65,30.77-1.29,9-6.89,10.33-7.53,2.59-2.59,3.23-2.8,4.52-9.25,4.52-14-1.72-21.09-1.51-25,1.08-9.69,1.3-12.7S362.14,213.86,362.14,213.86Z" style="fill:#fff"></path><g style="clip-path:url(#freepik--clip-path--inject-95)"><path d="M361,246s-4-22.08-4-18.07,2.81,19.68,1.6,20.89-8.43-4-7.23.8,7.23,8.43,6.43,11.65-8.84.4-8.43,2,6.42,6.83,1.6,8a100.89,100.89,0,0,1-19.27,3.21c-5.2.27-9.64,3.33-11.95,5.26l0,.18s25,.65,30.77-1.29,9-6.89,10.33-7.53,2.43-2.35,3.11-2.73Z" style="fill:#90CAF9"></path><path d="M361,246s-4-22.08-4-18.07,2.81,19.68,1.6,20.89-8.43-4-7.23.8,7.23,8.43,6.43,11.65-8.84.4-8.43,2,6.42,6.83,1.6,8a100.89,100.89,0,0,1-19.27,3.21c-5.2.27-9.64,3.33-11.95,5.26l0,.18s25,.65,30.77-1.29,9-6.89,10.33-7.53,2.43-2.35,3.11-2.73Z" style="fill:#fff;opacity:0.5"></path></g><path d="M362.14,213.86s-10.54,4.52-12.05,9.9-2.15,21.09-1.93,22.17-1.94,2.8-1.94,4.95a44.13,44.13,0,0,0,.65,5.81s-3.23,1.07-3.23,2.15a1.71,1.71,0,0,1-.86,1.51L318,267.45l1.72,12.48s25,.65,30.77-1.29,9-6.89,10.33-7.53,2.59-2.59,3.23-2.8,4.52-9.25,4.52-14-1.72-21.09-1.51-25,1.08-9.69,1.3-12.7S362.14,213.86,362.14,213.86Z" style="fill:none;stroke:#263238;stroke-linecap:round;stroke-linejoin:round"></path><path d="M367.3,404.11s-4,3.29-7.8,6.24-8.15,3.46-8.67,4.85a3.08,3.08,0,0,0,1.74,4.16c2.07.87,24.26,0,24.26,0s6.76.35,10.22.35,3.47-3.12,3.47-5.2,2.6-6.07-2.6-9.19S368.86,401.86,367.3,404.11Z" style="fill:#263238;stroke:#263238;stroke-linecap:round;stroke-linejoin:round"></path><path d="M390.28,417.28h-39.6a3,3,0,0,0,1.89,2.08c2.07.87,24.26,0,24.26,0s6.76.35,10.22.35A3,3,0,0,0,390.28,417.28Z" style="fill:#fff;stroke:#263238;stroke-linecap:round;stroke-linejoin:round"></path><path d="M390.87,404.11s-4,3.29-7.8,6.24-8.15,3.46-8.67,4.85a3.08,3.08,0,0,0,1.74,4.16c2.07.87,24.26,0,24.26,0s3.29.35,6.76.35,3.46-3.12,3.46-5.2-4.85-5.72-10.05-8.84S392.43,401.86,390.87,404.11Z" style="fill:#263238;stroke:#263238;stroke-linecap:round;stroke-linejoin:round"></path><path d="M410.39,417.28H374.25a3,3,0,0,0,1.89,2.08c2.07.87,24.26,0,24.26,0s3.29.35,6.76.35A3,3,0,0,0,410.39,417.28Z" style="fill:#fff;stroke:#263238;stroke-linecap:round;stroke-linejoin:round"></path><path d="M359.56,239.26c0,.64,2.37,14.63,2.37,19.58s3,19.37,2.8,20.87,0,11.2,0,14-1.29,19.37-1.94,27.33,3.87,25.18,3.87,25.18,0,1.94-.21,5.38,2.15,17,2.37,21.09-2.16,10.76-2.16,14.85,2.37,5.17,2.37,5.81-.21,2.8-.21,5.17a12.66,12.66,0,0,0,.43,3.65,77.8,77.8,0,0,0,9.68,3.23,42.12,42.12,0,0,0,8,.86l3-2.15,1.29,1.29s8.61,4.52,13.77,7.75,7.32,3.44,7.32,3.44,2.58-6,2.58-7.74a5.21,5.21,0,0,0-.65-3c-.43-.86.43-7.53,1.08-12.05s4.3-17.86,4.3-23.89-1.72-14.63-2.36-20.65,3.22-30.13,3.22-30.13,3.45-9,3.88-14.64a74.45,74.45,0,0,0-.65-15.49c-.64-5.6.43-10.76,1.94-18.51A138.32,138.32,0,0,0,428,249.8c.21-5.59,1.93-22.16.21-30.13S416,207,416,207s-2.8-2.8-4.09-2.8-5.81-.65-5.81-.65a12.1,12.1,0,0,0-.22-3.66,20.46,20.46,0,0,0-2.15-4.73,165.94,165.94,0,0,0-.86-16.79c-.86-6.67-5.17-13.55-14.42-14.2s-15.93,3.44-17.86,5.17.21,5.59.21,5.59-.64,8.39,1.08,15.07,4.95,11.83,5.38,13.34-2.8,2.15-2.37,3.66a9.06,9.06,0,0,1,.43,2.15s-9.47,1.94-13.13,4.73-3.65,3.66-3.65,3.66" style="fill:#fff"></path><g style="clip-path:url(#freepik--clip-path-2--inject-95)"><path d="M428.21,219.67c1.72,8,0,24.54-.21,30.13a138.32,138.32,0,0,1-2.37,20.66c-1.51,7.75-2.58,12.91-1.94,18.51a74.45,74.45,0,0,1,.65,15.49c-.43,5.6-3.88,14.64-3.88,14.64s-3.87,24.1-3.22,30.13,2.36,14.63,2.36,20.65-3.65,19.37-4.3,23.89-1.51,11.19-1.08,12.05a5.21,5.21,0,0,1,.65,3c0,1.72-2.58,7.74-2.58,7.74s-1.54-.16-5.1-2.13c-.92-1.38-.93-2.84-.75-5.16.3-3.85-5-9.18-6.21-15.39s2.36-.3,6.51.59,4.14-7.7,2.66-13.62-5.62-7.69-8.29-13.61,6.22,3.25,9.18,3,1.18-8.59-2.66-17.47-7.7-21.61-6.81-27.23,8-17.47,8.88-29.6-1.5-15.56-.89-23.09,5.92-4.74,6.51-8.58-4.14-.89-5-1.19-7.4-3.25-.89-5,9.47-3.85,5.63-3.85-5.63-5-5.63-5a56.51,56.51,0,0,0,8.59-3c3.84-1.78,5-3.55,5.32-8.29s6.22-13.91,3.85-16-7.69-8.29-11.25-8.29-2.36-1.78-3-4.74S402,211,395.49,213s2.66-2.67,2.37-5-1.78-2.37-1.78-2.37,4.44-4.15,5-6.51-1.77-1.78-2.36-6.22,5.32-9.47-1.48-18.65c-6.64-8.95-13-10-13.29-10.06a28.12,28.12,0,0,1,4.42,0c9.25.65,13.56,7.53,14.42,14.2a165.94,165.94,0,0,1,.86,16.79,20.46,20.46,0,0,1,2.15,4.73,12.1,12.1,0,0,1,.22,3.66s4.52.65,5.81.65S416,207,416,207,426.49,211.71,428.21,219.67Zm-41.9,131.9c-.59-3.55,0-15.1,0-15.1l-.88-11.25s-5-12.13-5-9.17,1.48,10.06,2.37,20.13-7.4-2.08-5.92,5.32,10.66,17.76,7.4,18.95-13-7.7-12.43-3.85,8.29,5.92,11.54,8.29.89,3.25-.88,5-1.19,3.85,1.48,6.81,4.73,7.69,2.66,10.65-12.14-3.55-10.95-1.18,7.4,6.22,7.4,9.77-6.22,3-5.92,4.44,4.73,4.14,6.51,5.33a4.12,4.12,0,0,0,.92.42c1.39.09,2.32.09,2.32.09l3-2.12V393.9l.59-22.2s.29-4.74-.3-5.63S386.91,355.12,386.31,351.57Z" style="fill:#90CAF9"></path><path d="M428.21,219.67c1.72,8,0,24.54-.21,30.13a138.32,138.32,0,0,1-2.37,20.66c-1.51,7.75-2.58,12.91-1.94,18.51a74.45,74.45,0,0,1,.65,15.49c-.43,5.6-3.88,14.64-3.88,14.64s-3.87,24.1-3.22,30.13,2.36,14.63,2.36,20.65-3.65,19.37-4.3,23.89-1.51,11.19-1.08,12.05a5.21,5.21,0,0,1,.65,3c0,1.72-2.58,7.74-2.58,7.74s-1.54-.16-5.1-2.13c-.92-1.38-.93-2.84-.75-5.16.3-3.85-5-9.18-6.21-15.39s2.36-.3,6.51.59,4.14-7.7,2.66-13.62-5.62-7.69-8.29-13.61,6.22,3.25,9.18,3,1.18-8.59-2.66-17.47-7.7-21.61-6.81-27.23,8-17.47,8.88-29.6-1.5-15.56-.89-23.09,5.92-4.74,6.51-8.58-4.14-.89-5-1.19-7.4-3.25-.89-5,9.47-3.85,5.63-3.85-5.63-5-5.63-5a56.51,56.51,0,0,0,8.59-3c3.84-1.78,5-3.55,5.32-8.29s6.22-13.91,3.85-16-7.69-8.29-11.25-8.29-2.36-1.78-3-4.74S402,211,395.49,213s2.66-2.67,2.37-5-1.78-2.37-1.78-2.37,4.44-4.15,5-6.51-1.77-1.78-2.36-6.22,5.32-9.47-1.48-18.65c-6.64-8.95-13-10-13.29-10.06a28.12,28.12,0,0,1,4.42,0c9.25.65,13.56,7.53,14.42,14.2a165.94,165.94,0,0,1,.86,16.79,20.46,20.46,0,0,1,2.15,4.73,12.1,12.1,0,0,1,.22,3.66s4.52.65,5.81.65S416,207,416,207,426.49,211.71,428.21,219.67Zm-41.9,131.9c-.59-3.55,0-15.1,0-15.1l-.88-11.25s-5-12.13-5-9.17,1.48,10.06,2.37,20.13-7.4-2.08-5.92,5.32,10.66,17.76,7.4,18.95-13-7.7-12.43-3.85,8.29,5.92,11.54,8.29.89,3.25-.88,5-1.19,3.85,1.48,6.81,4.73,7.69,2.66,10.65-12.14-3.55-10.95-1.18,7.4,6.22,7.4,9.77-6.22,3-5.92,4.44,4.73,4.14,6.51,5.33a4.12,4.12,0,0,0,.92.42c1.39.09,2.32.09,2.32.09l3-2.12V393.9l.59-22.2s.29-4.74-.3-5.63S386.91,355.12,386.31,351.57Z" style="fill:#fff;opacity:0.5"></path></g><path d="M359.56,239.26c0,.64,2.37,14.63,2.37,19.58s3,19.37,2.8,20.87,0,11.2,0,14-1.29,19.37-1.94,27.33,3.87,25.18,3.87,25.18,0,1.94-.21,5.38,2.15,17,2.37,21.09-2.16,10.76-2.16,14.85,2.37,5.17,2.37,5.81-.21,2.8-.21,5.17a12.66,12.66,0,0,0,.43,3.65,77.8,77.8,0,0,0,9.68,3.23,42.12,42.12,0,0,0,8,.86l3-2.15,1.29,1.29s8.61,4.52,13.77,7.75,7.32,3.44,7.32,3.44,2.58-6,2.58-7.74a5.21,5.21,0,0,0-.65-3c-.43-.86.43-7.53,1.08-12.05s4.3-17.86,4.3-23.89-1.72-14.63-2.36-20.65,3.22-30.13,3.22-30.13,3.45-9,3.88-14.64a74.45,74.45,0,0,0-.65-15.49c-.64-5.6.43-10.76,1.94-18.51A138.32,138.32,0,0,0,428,249.8c.21-5.59,1.93-22.16.21-30.13S416,207,416,207s-2.8-2.8-4.09-2.8-5.81-.65-5.81-.65a12.1,12.1,0,0,0-.22-3.66,20.46,20.46,0,0,0-2.15-4.73,165.94,165.94,0,0,0-.86-16.79c-.86-6.67-5.17-13.55-14.42-14.2s-15.93,3.44-17.86,5.17.21,5.59.21,5.59-.64,8.39,1.08,15.07,4.95,11.83,5.38,13.34-2.8,2.15-2.37,3.66a9.06,9.06,0,0,1,.43,2.15s-9.47,1.94-13.13,4.73-3.65,3.66-3.65,3.66" style="fill:none;stroke:#263238;stroke-linecap:round;stroke-linejoin:round"></path><path d="M425.61,250.21s-7.55,6.08-19.3-1.68" style="fill:none;stroke:#263238;stroke-linecap:round;stroke-linejoin:round"></path><path d="M383.65,211.18s-6.09,58.12-6.93,71.34-3.78,16.37-1.89,20.35,1.89,4.62,1.89,4.62" style="fill:none;stroke:#263238;stroke-linecap:round;stroke-linejoin:round"></path><path d="M386.58,236.15s-4.19,46.58-5.24,54.13-3.15,12-2.31,14.06" style="fill:none;stroke:#263238;stroke-linecap:round;stroke-linejoin:round"></path><path d="M377.21,208.05a31.88,31.88,0,0,0,8.82,2.37c3.88.22,17.22-8.61,17.22-8.61" style="fill:none;stroke:#263238;stroke-linecap:round;stroke-linejoin:round"></path><path d="M403.25,204.82s-5.81,6.46-12.05,8.18" style="fill:none;stroke:#263238;stroke-linecap:round;stroke-linejoin:round"></path><path d="M423.72,253.56s-6.08,2.1-9.44,2.1" style="fill:none;stroke:#263238;stroke-linecap:round;stroke-linejoin:round"></path><path d="M422.88,256.92s-8.81,6.72-17.41,9" style="fill:none;stroke:#263238;stroke-linecap:round;stroke-linejoin:round"></path><path d="M383.86,318.4s2.09,12,2.51,16,0,13.22.84,16.15,1.47,10.29,2.73,13.85-.21,12.59-.21,21,.18,18.76.18,18.76" style="fill:none;stroke:#263238;stroke-linecap:round;stroke-linejoin:round"></path><path d="M397.28,384.92s7.14,12,13.22,13.85" style="fill:none;stroke:#263238;stroke-linecap:round;stroke-linejoin:round"></path><path d="M390.15,360.58s2.1,8.6,12.38,14.47" style="fill:none;stroke:#263238;stroke-linecap:round;stroke-linejoin:round"></path><path d="M372.32,347.78a29.2,29.2,0,0,0,8.39,11.12c5.87,4.61,8.39,4.82,8.39,4.82s-5.45,2.31-12.59-2.51" style="fill:none;stroke:#263238;stroke-linecap:round;stroke-linejoin:round"></path><path d="M388.26,393.1s-.84-.42-5.66-2.52-9.45-8.18-9.45-8.18.42,10.28,7.56,14.48" style="fill:none;stroke:#263238;stroke-linecap:round;stroke-linejoin:round"></path><path d="M371.45,171.69s-2.83,5.19-2.83,8.25.71,5.89.71,8.72-.24,8,1.89,10.61,2.82,6.61,8.25,7.08,8.72-3.3,9-10.61a30.1,30.1,0,0,0-6.37-19.57A12,12,0,0,0,371.45,171.69Z" style="fill:#fff;stroke:#263238;stroke-linecap:round;stroke-linejoin:round"></path><path d="M368.59,181.07s-1.07.92-.92,4,2.29,3.67,2.29,3.67h1.53s.92-1.53,1.68-1.53,1.38,1.84,3.36,2.45,10.85-1.84,10.85-1.84a48,48,0,0,0-2.44-7.33A61.42,61.42,0,0,1,368.59,181.07Z" style="fill:#263238;stroke:#263238;stroke-linecap:round;stroke-linejoin:round"></path><path d="M369.2,182.6a4.28,4.28,0,0,0,0,2.9c.61,1.22,1.37,1.68,2.14,1.68s.91-1.68,2.14-1.53,2.14,2.6,4,2.6A42.8,42.8,0,0,0,384,187l-.76-5.35s-9.33,1.07-13.91.31Z" style="fill:#fff;stroke:#263238;stroke-linecap:round;stroke-linejoin:round"></path><path d="M388.31,197.36a9.16,9.16,0,0,0-2.46-3.91c-2.9-2.75-7.48-3.82-10.85-4.74s-5.65,2.45-5.65,2.45l0,0c0,2.77.3,6.16,1.89,8.09,2.12,2.6,2.82,6.61,8.25,7.08C384.47,206.78,387.66,203.6,388.31,197.36Z" style="fill:#90CAF9;stroke:#263238;stroke-linecap:round;stroke-linejoin:round"></path><path d="M403,316.73l.22,3.44-7.6.45a3.27,3.27,0,0,0-3.06,3.57l1.33,14a3.26,3.26,0,0,0,3.38,2.95l35.95-1.42a4.19,4.19,0,0,0,4-4.59l-1.33-13.72a4.18,4.18,0,0,0-4.44-3.77l-16,1-.43-3.45Z" style="fill:#fff;stroke:#263238;stroke-linecap:round;stroke-linejoin:round"></path><path d="M415.51,318.67l-2,.18a8.41,8.41,0,0,0-5.8,2.92c-1.37,1.66-5.1,3.57-15,3.57" style="fill:none;stroke:#263238;stroke-linecap:round;stroke-linejoin:round"></path><path d="M362.14,313.59c-1.87,0-3.89,0-6.08-.09-11-.31-14.57-11.53-17.47-20.53-1.42-4.41-2.88-9-4.73-10.16-5.69-3.67-13.28-.89-13.35-.87l-1.52-4c.4-.15,9.71-3.56,17.21,1.28,3.13,2,4.69,6.85,6.49,12.45,2.61,8.12,5.57,17.32,13.49,17.55,14.6.42,21.88-.82,21.95-.83l.74,4.24A107.79,107.79,0,0,1,362.14,313.59Z" style="fill:#263238"></path><rect x="314.68" y="276.57" width="6.19" height="6.89" transform="translate(-42.19 56.82) rotate(-9.58)" style="fill:#fff;stroke:#263238;stroke-linecap:round;stroke-linejoin:round"></rect><rect x="282.47" y="280.65" width="32.48" height="5.16" transform="translate(-42.99 53.69) rotate(-9.58)" style="fill:#90CAF9;stroke:#263238;stroke-linecap:round;stroke-linejoin:round"></rect><rect x="271.03" y="283.04" width="11.75" height="7.75" transform="translate(-43.89 50.09) rotate(-9.58)" style="fill:#fff;stroke:#263238;stroke-linecap:round;stroke-linejoin:round"></rect><path d="M400.45,301.24a1.72,1.72,0,0,1-1.72-1.63l-.44-7.73a5.44,5.44,0,0,1,5.08-5.72l23.87-1.49a1.72,1.72,0,1,1,.22,3.43l-23.87,1.5a2,2,0,0,0-1.86,2.08l.44,7.74a1.72,1.72,0,0,1-1.62,1.81Z" style="fill:#263238"></path><path d="M375,308.91l22.7-11.76L399.16,318l-23.72-5.45a2,2,0,0,1-1.54-2.07h0A2,2,0,0,1,375,308.91Z" style="fill:#263238;stroke:#263238;stroke-linecap:round;stroke-linejoin:round"></path><polygon points="397.65 297.15 429.5 294.13 431.44 315.44 399.16 318.02 397.65 297.15" style="fill:#263238;stroke:#263238;stroke-linecap:round;stroke-linejoin:round"></polygon><line x1="417.24" y1="297.15" x2="419.17" y2="315.87" style="fill:none;stroke:#636363;stroke-linecap:round;stroke-linejoin:round"></line><line x1="397.65" y1="298.22" x2="399.16" y2="318.02" style="fill:none;stroke:#636363;stroke-linecap:round;stroke-linejoin:round"></line><path d="M347.14,258s4.82,9.44,13,9.44" style="fill:none;stroke:#263238;stroke-linecap:round;stroke-linejoin:round"></path><path d="M347.35,260.7s5.66,9.86,9.44,12" style="fill:none;stroke:#263238;stroke-linecap:round;stroke-linejoin:round"></path><path d="M349.65,250.63a14.61,14.61,0,0,0,11.54,6.08" style="fill:none;stroke:#263238;stroke-linecap:round;stroke-linejoin:round"></path><path d="M420.68,272.18s-3.44,1.08-3.87,1.94a10.65,10.65,0,0,0-.65,2.58s-7.1,3-8,3.66-4.09,1.94-4.09,2.8-1.08,5.38-.86,7.75-1.51,4.94.21,6,4.74-.21,4.74-.21a59.81,59.81,0,0,0,6.24,0c1.51-.22,2.37-.87,3.87-2.16s4.09-9.68,4.09-9.68a6.3,6.3,0,0,0,2.37-.86,2,2,0,0,0,.86-1.51l3-.86Z" style="fill:#90CAF9;stroke:#263238;stroke-linecap:round;stroke-linejoin:round"></path><path d="M417.45,233.45s.86,6.24,3,9.9a24.2,24.2,0,0,0,6.25,6.45s-1.08,2.8-.65,4.09a7.09,7.09,0,0,0,2.15,2.58s-5.16,6.67-6.24,9.69a34.88,34.88,0,0,1-3.66,6.67l10.55,10.54s4.52-3,11.19-6.88,14.42-13.35,15.49-15.28,3.45-3.45,3.66-4.95-5-13.07-6.67-15.07c-11.48-13.7-9.2-31.42-26-31.42C424.34,209.77,416,207,416,207" style="fill:#fff"></path><g style="clip-path:url(#freepik--clip-path-3--inject-95)"><path d="M440.05,276.49c6.67-3.88,14.42-13.35,15.49-15.28s3.45-3.45,3.66-4.95-5-13.07-6.67-15.07c-11.48-13.7-9.2-31.42-26-31.42C424.34,209.77,416,207,416,207l.14,2.62a12.64,12.64,0,0,0,2.44,1.25c5.59,2.15,13.77,4.73,15.92,8.18s-8.18,3-5.16,9.47,11.19,6,13.77,9.9-3.44-.86-6.46,3-3.44,4.3-.86,4.3,8.61-6,11.62-1.29-10.76,5.17-10.76,6.46,8.61,2.15,9,5.16S430.15,275,426.27,278a8.19,8.19,0,0,0-1.37,1.43l4,3.95S433.38,280.36,440.05,276.49Z" style="fill:#90CAF9"></path><path d="M440.05,276.49c6.67-3.88,14.42-13.35,15.49-15.28s3.45-3.45,3.66-4.95-5-13.07-6.67-15.07c-11.48-13.7-9.2-31.42-26-31.42C424.34,209.77,416,207,416,207l.14,2.62a12.64,12.64,0,0,0,2.44,1.25c5.59,2.15,13.77,4.73,15.92,8.18s-8.18,3-5.16,9.47,11.19,6,13.77,9.9-3.44-.86-6.46,3-3.44,4.3-.86,4.3,8.61-6,11.62-1.29-10.76,5.17-10.76,6.46,8.61,2.15,9,5.16S430.15,275,426.27,278a8.19,8.19,0,0,0-1.37,1.43l4,3.95S433.38,280.36,440.05,276.49Z" style="fill:#fff;opacity:0.5"></path></g><path d="M417.45,233.45s.86,6.24,3,9.9a24.2,24.2,0,0,0,6.25,6.45s-1.08,2.8-.65,4.09a7.09,7.09,0,0,0,2.15,2.58s-5.16,6.67-6.24,9.69a34.88,34.88,0,0,1-3.66,6.67l10.55,10.54s4.52-3,11.19-6.88,14.42-13.35,15.49-15.28,3.45-3.45,3.66-4.95-5-13.07-6.67-15.07c-11.48-13.7-9.2-31.42-26-31.42C424.34,209.77,416,207,416,207" style="fill:none;stroke:#263238;stroke-linecap:round;stroke-linejoin:round"></path><path d="M430.15,255.4s6-3.23,10.11-4.09a10.84,10.84,0,0,1,7.1.86" style="fill:none;stroke:#263238;stroke-linecap:round;stroke-linejoin:round"></path><path d="M429.5,252.81s8-8,13.78-6" style="fill:none;stroke:#263238;stroke-linecap:round;stroke-linejoin:round"></path><path d="M442.4,249.16s8.39.21,12.17,5.45" style="fill:none;stroke:#263238;stroke-linecap:round;stroke-linejoin:round"></path></g><g id="freepik--Virus--inject-95"><path d="M183.44,273.51a2.12,2.12,0,0,0,.39.33h-3.58a2.12,2.12,0,0,0,.39-.33,2.66,2.66,0,0,0,.72-1.8l.13-4.28c-.25-.1-.64-.33-.64-.56s.56-.69,1.24-.69,1.25.31,1.25.69-.46.49-.74.59l.12,4.25A2.66,2.66,0,0,0,183.44,273.51Zm-5.49.05-2-3.28c.18-.21.43-.6.31-.8s-.75-.3-1.29,0-.84.82-.67,1.12.52.18.76.15l1.85,3.42a2.28,2.28,0,0,1,.09,2.18l1.33-.77.16-.09,1.33-.77a2.21,2.21,0,0,1-.46-.07A2.46,2.46,0,0,1,178,273.56Zm-4.39,2.65-3.74-2c.06-.29.08-.8-.14-.93s-.88.14-1.22.73-.36,1.23,0,1.43c.19.11.59-.12.8-.28l3.64,2.25a2.66,2.66,0,0,1,1.2,1.52,2.09,2.09,0,0,1,.09.51L175,278l.1-.17.85-1.47a2.34,2.34,0,0,1-.48.18A2.64,2.64,0,0,1,173.56,276.21Zm-.78,5.06-3.86.12c-.09-.26-.31-.67-.54-.67s-.63.5-.63,1.13.28,1.13.63,1.13.42-.36.51-.58l3.89.11a2.45,2.45,0,0,1,1.64.65,2.6,2.6,0,0,1,.3.36v-3.25a2,2,0,0,1-.3.35A2.36,2.36,0,0,1,172.78,281.27Zm.1,5.13-3.62,2.23c-.22-.2-.66-.47-.87-.35s-.33.83,0,1.43.89.92,1.22.73.2-.57.17-.83l3.76-2a2.64,2.64,0,0,1,1.92-.28,2.3,2.3,0,0,1,.48.17l-.85-1.46-.1-.17-.84-1.47a1.93,1.93,0,0,1-.09.5A2.65,2.65,0,0,1,172.88,286.4Zm4,3.2L175,293c-.27-.05-.73-.06-.84.13s.12.8.66,1.12,1.12.32,1.29,0-.1-.54-.24-.72l2-3.32a2.45,2.45,0,0,1,1.38-1.09,2.21,2.21,0,0,1,.46-.08l-1.33-.77-.16-.09-1.33-.77a3,3,0,0,1,.16.44A2.45,2.45,0,0,1,176.88,289.6Zm4.48,2.48.13,4.25c-.29.09-.74.33-.74.58s.56.7,1.24.7,1.25-.31,1.25-.7c0-.22-.4-.45-.64-.55l.12-4.28a2.64,2.64,0,0,1,.72-1.8,2.12,2.12,0,0,1,.39-.33h-3.58a2.12,2.12,0,0,1,.39.33A2.64,2.64,0,0,1,181.36,292.08Zm4.78-1.86,2,3.29c-.19.21-.43.6-.32.8s.76.29,1.3,0,.84-.81.66-1.11-.52-.18-.75-.15l-1.85-3.43a2.41,2.41,0,0,1-.26-1.74,2.2,2.2,0,0,1,.17-.44l-1.34.77-.15.09-1.33.77a2.11,2.11,0,0,1,.45.08A2.44,2.44,0,0,1,186.14,290.22Zm4.38-2.65,3.74,2c0,.3-.07.81.14.93s.89-.13,1.23-.72.35-1.24,0-1.43-.59.12-.8.27l-3.65-2.24a2.69,2.69,0,0,1-1.2-1.53,2.49,2.49,0,0,1-.08-.5l-.85,1.47-.1.17-.84,1.46a2.44,2.44,0,0,1,.47-.17A2.67,2.67,0,0,1,190.52,287.57Zm.78-5.06,3.87-.11c.08.26.3.67.53.67s.63-.51.63-1.13-.28-1.13-.63-1.13-.41.36-.51.58l-3.89-.12a2.39,2.39,0,0,1-1.64-.65,2.57,2.57,0,0,1-.29-.35v3.25a3.51,3.51,0,0,1,.29-.36A2.49,2.49,0,0,1,191.3,282.51Zm-.1-5.12,3.62-2.23c.23.2.66.47.88.34s.32-.83,0-1.42-.89-.92-1.23-.73c-.19.11-.19.57-.16.83l-3.77,2a2.63,2.63,0,0,1-1.92.28,2.5,2.5,0,0,1-.47-.18l.84,1.47.1.17.85,1.47a2.45,2.45,0,0,1,1.28-2Zm-4-3.21,1.83-3.4c.27.05.74.07.85-.13s-.12-.8-.66-1.11-1.12-.32-1.3,0,.11.54.25.73l-2,3.31a2.45,2.45,0,0,1-1.39,1.1,2.12,2.12,0,0,1-.45.07l1.33.77.15.09,1.34.77a1.92,1.92,0,0,1-.17-.43A2.44,2.44,0,0,1,187.21,274.18Z" style="fill:#fff;stroke:#92989b;stroke-linecap:round;stroke-linejoin:round"></path><path d="M174.08,278.91a2.09,2.09,0,0,1,.09.51L175,278l.1-.17.85-1.47a2.34,2.34,0,0,1-.48.18,2.64,2.64,0,0,1-1.92-.28l-1.39-.75a10.88,10.88,0,0,0-.64,1.1l1.35.83A2.66,2.66,0,0,1,174.08,278.91Z" style="fill:#263238;stroke:#92989b;stroke-linecap:round;stroke-linejoin:round"></path><path d="M179.33,289.13a2.21,2.21,0,0,1,.46-.08l-1.33-.77-.16-.09-1.33-.77a3,3,0,0,1,.16.44,2.45,2.45,0,0,1-.25,1.74l-1.2,2.22c.31.19.62.38.95.54l1.32-2.14A2.45,2.45,0,0,1,179.33,289.13Z" style="fill:#263238;stroke:#92989b;stroke-linecap:round;stroke-linejoin:round"></path><path d="M175.48,287.3a2.3,2.3,0,0,1,.48.17l-.85-1.46-.1-.17-.84-1.47a1.93,1.93,0,0,1-.09.5,2.65,2.65,0,0,1-1.2,1.53l-1.35.83a12.1,12.1,0,0,0,.64,1.1l1.39-.75A2.64,2.64,0,0,1,175.48,287.3Z" style="fill:#263238;stroke:#92989b;stroke-linecap:round;stroke-linejoin:round"></path><path d="M187.21,289.6a2.41,2.41,0,0,1-.26-1.74,2.2,2.2,0,0,1,.17-.44l-1.34.77-.15.09-1.33.77a2.11,2.11,0,0,1,.45.08,2.44,2.44,0,0,1,1.39,1.09l1.32,2.14c.32-.16.64-.35.94-.54Z" style="fill:#263238;stroke:#92989b;stroke-linecap:round;stroke-linejoin:round"></path><path d="M183.44,290.28a2.12,2.12,0,0,1,.39-.33h-3.58a2.12,2.12,0,0,1,.39.33,2.64,2.64,0,0,1,.72,1.8l0,1.58c.21,0,.42,0,.63,0s.43,0,.64,0l0-1.58A2.64,2.64,0,0,1,183.44,290.28Z" style="fill:#263238;stroke:#92989b;stroke-linecap:round;stroke-linejoin:round"></path><path d="M190,284.87a2.49,2.49,0,0,1-.08-.5l-.85,1.47-.1.17-.84,1.46a2.44,2.44,0,0,1,.47-.17,2.67,2.67,0,0,1,1.92.27l1.4.76a12,12,0,0,0,.63-1.1l-1.35-.83A2.69,2.69,0,0,1,190,284.87Z" style="fill:#263238;stroke:#92989b;stroke-linecap:round;stroke-linejoin:round"></path><path d="M189.66,280.62a2.57,2.57,0,0,1-.29-.35v3.25a3.51,3.51,0,0,1,.29-.36,2.49,2.49,0,0,1,1.64-.65l2.52-.07c0-.18,0-.36,0-.55s0-.36,0-.54l-2.52-.08A2.39,2.39,0,0,1,189.66,280.62Z" style="fill:#263238;stroke:#92989b;stroke-linecap:round;stroke-linejoin:round"></path><path d="M174.42,283.16a2.6,2.6,0,0,1,.3.36v-3.25a2,2,0,0,1-.3.35,2.36,2.36,0,0,1-1.64.65l-2.51.08c0,.18,0,.36,0,.54s0,.37,0,.55l2.51.07A2.45,2.45,0,0,1,174.42,283.16Z" style="fill:#263238;stroke:#92989b;stroke-linecap:round;stroke-linejoin:round"></path><path d="M188.6,276.49a2.5,2.5,0,0,1-.47-.18l.84,1.47.1.17.85,1.47a2.45,2.45,0,0,1,1.28-2l1.35-.83a10.8,10.8,0,0,0-.63-1.1l-1.4.75A2.63,2.63,0,0,1,188.6,276.49Z" style="fill:#263238;stroke:#92989b;stroke-linecap:round;stroke-linejoin:round"></path><path d="M184.75,274.66a2.12,2.12,0,0,1-.45.07l1.33.77.15.09,1.34.77a1.92,1.92,0,0,1-.17-.43,2.44,2.44,0,0,1,.26-1.75L188.4,272c-.3-.2-.62-.38-.94-.55l-1.32,2.14A2.45,2.45,0,0,1,184.75,274.66Z" style="fill:#263238;stroke:#92989b;stroke-linecap:round;stroke-linejoin:round"></path><path d="M180.64,273.51a2.12,2.12,0,0,1-.39.33h3.58a2.12,2.12,0,0,1-.39-.33,2.66,2.66,0,0,1-.72-1.8l0-1.59-.64,0-.63,0,0,1.59A2.66,2.66,0,0,1,180.64,273.51Z" style="fill:#263238;stroke:#92989b;stroke-linecap:round;stroke-linejoin:round"></path><path d="M176.88,274.18a2.28,2.28,0,0,1,.09,2.18l1.33-.77.16-.09,1.33-.77a2.21,2.21,0,0,1-.46-.07,2.46,2.46,0,0,1-1.38-1.1l-1.32-2.14c-.33.17-.64.35-.95.55Z" style="fill:#263238;stroke:#92989b;stroke-linecap:round;stroke-linejoin:round"></path><circle cx="182.04" cy="281.89" r="10.83" transform="translate(-60.15 49.63) rotate(-13.35)" style="fill:#90CAF9;stroke:#92989b;stroke-linecap:round;stroke-linejoin:round"></circle><path d="M182.89,273.62a1.12,1.12,0,1,1-1.12-1.06A1.09,1.09,0,0,1,182.89,273.62Z" style="fill:#fff;stroke:#92989b;stroke-linecap:round;stroke-linejoin:round"></path><path d="M176.15,282.21a1.12,1.12,0,1,1-1.12-1.06A1.09,1.09,0,0,1,176.15,282.21Z" style="fill:#fff;stroke:#92989b;stroke-linecap:round;stroke-linejoin:round"></path><ellipse cx="180.02" cy="279.45" rx="1.12" ry="1.06" style="fill:#fff;stroke:#92989b;stroke-linecap:round;stroke-linejoin:round"></ellipse><path d="M178.54,288.69a1.12,1.12,0,1,1-1.12-1.06A1.09,1.09,0,0,1,178.54,288.69Z" style="fill:#fff;stroke:#92989b;stroke-linecap:round;stroke-linejoin:round"></path><path d="M190.7,284.23a1.12,1.12,0,1,1-1.12-1.06A1.09,1.09,0,0,1,190.7,284.23Z" style="fill:#fff;stroke:#92989b;stroke-linecap:round;stroke-linejoin:round"></path><path d="M182.72,285.68a1.12,1.12,0,1,1-1.12-1.06A1.09,1.09,0,0,1,182.72,285.68Z" style="fill:#fff;stroke:#92989b;stroke-linecap:round;stroke-linejoin:round"></path><path d="M186.33,281.43a1.12,1.12,0,1,1-1.12-1.06A1.09,1.09,0,0,1,186.33,281.43Z" style="fill:#fff;stroke:#92989b;stroke-linecap:round;stroke-linejoin:round"></path><path d="M189,276.49a1.12,1.12,0,1,1-1.11-1.07A1.09,1.09,0,0,1,189,276.49Z" style="fill:#fff;stroke:#92989b;stroke-linecap:round;stroke-linejoin:round"></path><path d="M186.45,289.22a1.12,1.12,0,1,1-1.12-1.06A1.09,1.09,0,0,1,186.45,289.22Z" style="fill:#fff;stroke:#92989b;stroke-linecap:round;stroke-linejoin:round"></path><path d="M177.32,275.52a1.12,1.12,0,1,1-1.12-1.06A1.09,1.09,0,0,1,177.32,275.52Z" style="fill:#fff;stroke:#92989b;stroke-linecap:round;stroke-linejoin:round"></path><path d="M105.24,264.4a1.38,1.38,0,0,0,.26.22h-2.4a1.12,1.12,0,0,0,.26-.22,1.74,1.74,0,0,0,.48-1.21l.09-2.87c-.16-.07-.43-.22-.43-.38s.37-.46.84-.46.83.21.83.46-.3.33-.49.4l.08,2.85A1.79,1.79,0,0,0,105.24,264.4Zm-3.69,0-1.36-2.21c.12-.14.28-.4.21-.54s-.51-.19-.87,0-.57.54-.45.74.35.12.51.1l1.24,2.31A1.65,1.65,0,0,1,101,266a1.31,1.31,0,0,1-.11.29l.9-.52.1-.06.9-.51a1.55,1.55,0,0,1-.31-.06A1.6,1.6,0,0,1,101.55,264.44Zm-3,1.78-2.51-1.36c0-.2,0-.54-.09-.62s-.6.09-.83.49-.23.83,0,.95.4-.07.54-.18L98.15,267a1.8,1.8,0,0,1,.8,1,1.86,1.86,0,0,1,.06.34l.57-1,.07-.12.56-1a1.75,1.75,0,0,1-.32.12A1.83,1.83,0,0,1,98.6,266.22Zm-.52,3.4-2.6.08c0-.18-.2-.45-.35-.45s-.43.34-.43.76.19.76.43.76.27-.25.34-.39l2.61.07a1.64,1.64,0,0,1,1.1.44,1.59,1.59,0,0,1,.2.24v-2.19a1.54,1.54,0,0,1-1.3.68Zm.07,3.44-2.43,1.5c-.16-.13-.45-.31-.59-.23s-.22.56,0,1,.6.62.82.49.13-.39.11-.56l2.53-1.37a1.82,1.82,0,0,1,1.29-.18,1,1,0,0,1,.32.12l-.56-1-.07-.11-.57-1A1.86,1.86,0,0,1,99,272,1.77,1.77,0,0,1,98.15,273.06Zm2.68,2.16L99.6,277.5c-.18,0-.49,0-.57.09s.08.54.44.75.76.21.88,0-.08-.36-.17-.49l1.37-2.23a1.68,1.68,0,0,1,.93-.73,1.06,1.06,0,0,1,.31,0l-.9-.52-.1-.06-.9-.52a1.31,1.31,0,0,1,.11.29A1.67,1.67,0,0,1,100.83,275.22Zm3,1.66.09,2.85c-.19.07-.5.23-.5.4s.38.47.84.47.83-.21.83-.47-.26-.31-.42-.38l.08-2.87a1.79,1.79,0,0,1,.48-1.21,1.88,1.88,0,0,1,.26-.22h-2.4a1.43,1.43,0,0,1,.26.22A1.74,1.74,0,0,1,103.84,276.88Zm3.21-1.25,1.37,2.21c-.13.14-.29.41-.21.54s.5.2.87,0,.56-.55.44-.75-.35-.12-.51-.1l-1.24-2.3a1.67,1.67,0,0,1-.17-1.18,2.12,2.12,0,0,1,.11-.29l-.89.52-.11.06-.89.52a.94.94,0,0,1,.3,0A1.65,1.65,0,0,1,107.05,275.63Zm3-1.78,2.51,1.36c0,.2-.05.54.1.63s.59-.09.82-.49.24-.83,0-1-.4.08-.54.18l-2.44-1.51a1.79,1.79,0,0,1-.81-1,1.86,1.86,0,0,1-.06-.34l-.57,1-.06.11-.57,1a1,1,0,0,1,.32-.12A1.82,1.82,0,0,1,110,273.85Zm.52-3.4,2.6-.07c.06.17.2.45.36.45s.42-.34.42-.76-.19-.76-.42-.76-.28.24-.34.39l-2.62-.08a1.61,1.61,0,0,1-1.1-.44,1.59,1.59,0,0,1-.2-.24v2.19a1.59,1.59,0,0,1,.2-.24A1.66,1.66,0,0,1,110.52,270.45Zm-.06-3.44,2.43-1.5c.15.14.44.32.59.23s.21-.56,0-.95-.6-.62-.82-.49-.13.38-.11.55L110,266.22a1.83,1.83,0,0,1-1.29.19,2.08,2.08,0,0,1-.32-.12l.57,1,.06.12.57,1a1.86,1.86,0,0,1,.06-.34A1.82,1.82,0,0,1,110.46,267Zm-2.69-2.15,1.23-2.29c.19,0,.5.05.57-.09s-.08-.53-.44-.74-.75-.22-.87,0,.07.36.16.48l-1.37,2.23a1.57,1.57,0,0,1-.93.73,1.33,1.33,0,0,1-.3.06l.89.51.11.06.89.52a2.12,2.12,0,0,1-.11-.29A1.65,1.65,0,0,1,107.77,264.86Z" style="fill:#fff;stroke:#92989b;stroke-linecap:round;stroke-linejoin:round"></path><path d="M99,268a1.86,1.86,0,0,1,.06.34l.57-1,.07-.12.56-1a1.75,1.75,0,0,1-.32.12,1.83,1.83,0,0,1-1.29-.19l-.93-.51a7.89,7.89,0,0,0-.43.74l.91.56A1.8,1.8,0,0,1,99,268Z" style="fill:#263238;stroke:#92989b;stroke-linecap:round;stroke-linejoin:round"></path><path d="M102.48,274.9a1.06,1.06,0,0,1,.31,0l-.9-.52-.1-.06-.9-.52a1.31,1.31,0,0,1,.11.29,1.67,1.67,0,0,1-.17,1.18l-.8,1.48a5.76,5.76,0,0,0,.63.37l.89-1.44A1.68,1.68,0,0,1,102.48,274.9Z" style="fill:#263238;stroke:#92989b;stroke-linecap:round;stroke-linejoin:round"></path><path d="M99.89,273.67a1,1,0,0,1,.32.12l-.56-1-.07-.11-.57-1A1.86,1.86,0,0,1,99,272a1.77,1.77,0,0,1-.8,1l-.91.56a6.79,6.79,0,0,0,.43.74l.93-.51A1.82,1.82,0,0,1,99.89,273.67Z" style="fill:#263238;stroke:#92989b;stroke-linecap:round;stroke-linejoin:round"></path><path d="M107.77,275.22a1.67,1.67,0,0,1-.17-1.18,2.12,2.12,0,0,1,.11-.29l-.89.52-.11.06-.89.52a.94.94,0,0,1,.3,0,1.65,1.65,0,0,1,.93.73l.89,1.44a5,5,0,0,0,.63-.37Z" style="fill:#263238;stroke:#92989b;stroke-linecap:round;stroke-linejoin:round"></path><path d="M105.24,275.67a1.88,1.88,0,0,1,.26-.22h-2.4a1.43,1.43,0,0,1,.26.22,1.74,1.74,0,0,1,.48,1.21l0,1.07h.85l0-1.07A1.79,1.79,0,0,1,105.24,275.67Z" style="fill:#263238;stroke:#92989b;stroke-linecap:round;stroke-linejoin:round"></path><path d="M109.65,272a1.86,1.86,0,0,1-.06-.34l-.57,1-.06.11-.57,1a1,1,0,0,1,.32-.12,1.82,1.82,0,0,1,1.29.18l.94.51c.15-.24.29-.48.42-.74l-.9-.56A1.79,1.79,0,0,1,109.65,272Z" style="fill:#263238;stroke:#92989b;stroke-linecap:round;stroke-linejoin:round"></path><path d="M109.42,269.18a1.59,1.59,0,0,1-.2-.24v2.19a1.59,1.59,0,0,1,.2-.24,1.66,1.66,0,0,1,1.1-.44l1.69-.05c0-.12,0-.24,0-.36s0-.25,0-.37l-1.69-.05A1.61,1.61,0,0,1,109.42,269.18Z" style="fill:#263238;stroke:#92989b;stroke-linecap:round;stroke-linejoin:round"></path><path d="M99.18,270.89a1.59,1.59,0,0,1,.2.24v-2.19a1.54,1.54,0,0,1-1.3.68l-1.69.05c0,.12,0,.24,0,.37s0,.24,0,.36l1.69.05A1.64,1.64,0,0,1,99.18,270.89Z" style="fill:#263238;stroke:#92989b;stroke-linecap:round;stroke-linejoin:round"></path><path d="M108.71,266.41a2.08,2.08,0,0,1-.32-.12l.57,1,.06.12.57,1a1.86,1.86,0,0,1,.06-.34,1.82,1.82,0,0,1,.81-1l.9-.56c-.13-.25-.27-.5-.42-.74l-.94.51A1.83,1.83,0,0,1,108.71,266.41Z" style="fill:#263238;stroke:#92989b;stroke-linecap:round;stroke-linejoin:round"></path><path d="M106.12,265.17a1.33,1.33,0,0,1-.3.06l.89.51.11.06.89.52a2.12,2.12,0,0,1-.11-.29,1.65,1.65,0,0,1,.17-1.17l.8-1.49a6.5,6.5,0,0,0-.63-.37l-.89,1.44A1.57,1.57,0,0,1,106.12,265.17Z" style="fill:#263238;stroke:#92989b;stroke-linecap:round;stroke-linejoin:round"></path><path d="M103.36,264.4a1.12,1.12,0,0,1-.26.22h2.4a1.38,1.38,0,0,1-.26-.22,1.79,1.79,0,0,1-.48-1.21l0-1.06h-.85l0,1.06A1.74,1.74,0,0,1,103.36,264.4Z" style="fill:#263238;stroke:#92989b;stroke-linecap:round;stroke-linejoin:round"></path><path d="M100.83,264.86A1.65,1.65,0,0,1,101,266a1.31,1.31,0,0,1-.11.29l.9-.52.1-.06.9-.51a1.55,1.55,0,0,1-.31-.06,1.6,1.6,0,0,1-.93-.73l-.89-1.44c-.21.11-.43.24-.63.37Z" style="fill:#263238;stroke:#92989b;stroke-linecap:round;stroke-linejoin:round"></path><circle cx="104.3" cy="270.04" r="7.28" transform="translate(-185.17 268.68) rotate(-68.61)" style="fill:#90CAF9;stroke:#92989b;stroke-linecap:round;stroke-linejoin:round"></circle><ellipse cx="104.12" cy="264.48" rx="0.75" ry="0.71" style="fill:#fff;stroke:#92989b;stroke-linecap:round;stroke-linejoin:round"></ellipse><path d="M100.34,270.25a.75.75,0,1,1-.75-.71A.73.73,0,0,1,100.34,270.25Z" style="fill:#fff;stroke:#92989b;stroke-linecap:round;stroke-linejoin:round"></path><path d="M103.7,268.4a.75.75,0,1,1-.75-.72A.73.73,0,0,1,103.7,268.4Z" style="fill:#fff;stroke:#92989b;stroke-linecap:round;stroke-linejoin:round"></path><path d="M102,274.6a.75.75,0,0,1-1.5,0,.75.75,0,0,1,1.5,0Z" style="fill:#fff;stroke:#92989b;stroke-linecap:round;stroke-linejoin:round"></path><path d="M110.12,271.61a.75.75,0,1,1-.75-.72A.73.73,0,0,1,110.12,271.61Z" style="fill:#fff;stroke:#92989b;stroke-linecap:round;stroke-linejoin:round"></path><path d="M104.76,272.58a.75.75,0,1,1-.75-.71A.73.73,0,0,1,104.76,272.58Z" style="fill:#fff;stroke:#92989b;stroke-linecap:round;stroke-linejoin:round"></path><ellipse cx="106.43" cy="269.73" rx="0.75" ry="0.71" style="fill:#fff;stroke:#92989b;stroke-linecap:round;stroke-linejoin:round"></ellipse><path d="M109,266.4a.75.75,0,1,1-.75-.71A.73.73,0,0,1,109,266.4Z" style="fill:#fff;stroke:#92989b;stroke-linecap:round;stroke-linejoin:round"></path><path d="M107.26,275a.75.75,0,1,1-.75-.71A.73.73,0,0,1,107.26,275Z" style="fill:#fff;stroke:#92989b;stroke-linecap:round;stroke-linejoin:round"></path><path d="M101.13,265.76a.75.75,0,1,1-.75-.72A.73.73,0,0,1,101.13,265.76Z" style="fill:#fff;stroke:#92989b;stroke-linecap:round;stroke-linejoin:round"></path><path d="M210.45,292.5a3,3,0,0,0,.26.22h-2.4a3,3,0,0,0,.26-.22,1.81,1.81,0,0,0,.48-1.21l.09-2.88c-.17-.07-.43-.22-.43-.37s.37-.47.83-.47.84.21.84.47-.3.33-.5.39l.09,2.86A1.79,1.79,0,0,0,210.45,292.5Zm-3.69,0-1.36-2.21c.12-.13.28-.4.21-.53s-.51-.2-.87,0-.57.54-.45.75.35.12.51.1L206,293a1.65,1.65,0,0,1,.17,1.17,1.45,1.45,0,0,1-.11.29l.9-.51.1-.06.9-.52-.31-.05A1.63,1.63,0,0,1,206.76,292.53Zm-2.95,1.78L201.3,293c0-.2,0-.54-.1-.63s-.59.09-.82.49-.24.83,0,1,.4-.08.54-.19l2.44,1.51a1.8,1.8,0,0,1,.81,1,1.61,1.61,0,0,1,.06.33l.57-1,.06-.12.57-1a2.08,2.08,0,0,1-.32.12A1.83,1.83,0,0,1,203.81,294.31Zm-.52,3.4-2.6.08c-.06-.17-.2-.45-.36-.45s-.42.34-.42.76.19.76.42.76.28-.24.34-.39l2.62.08a1.63,1.63,0,0,1,1.1.43,1.59,1.59,0,0,1,.2.24V297a1.59,1.59,0,0,1-.2.24A1.63,1.63,0,0,1,203.29,297.71Zm.07,3.44-2.44,1.5c-.15-.13-.44-.31-.59-.23s-.21.56,0,1,.6.62.82.49.13-.38.11-.56l2.53-1.36a1.77,1.77,0,0,1,1.29-.19,2.08,2.08,0,0,1,.32.12l-.57-1-.06-.11-.57-1a1.59,1.59,0,0,1-.06.34A1.77,1.77,0,0,1,203.36,301.15Zm2.68,2.16-1.23,2.29c-.18,0-.5-.05-.57.08s.08.54.44.75.76.21.87,0-.07-.36-.16-.49l1.37-2.22a1.63,1.63,0,0,1,.93-.74l.31-.05-.9-.52-.1-.06-.9-.51a1.45,1.45,0,0,1,.11.29A1.65,1.65,0,0,1,206,303.31Zm3,1.66.09,2.86c-.2.06-.5.22-.5.39s.37.47.84.47.83-.21.83-.47-.26-.3-.43-.37L210,305a1.79,1.79,0,0,1,.48-1.21,1.88,1.88,0,0,1,.26-.22h-2.4a1.88,1.88,0,0,1,.26.22A1.79,1.79,0,0,1,209.05,305Zm3.21-1.24,1.36,2.21c-.12.13-.28.4-.21.53s.51.2.87,0,.57-.54.45-.75-.35-.12-.51-.1l-1.24-2.3a1.65,1.65,0,0,1-.17-1.17,1,1,0,0,1,.11-.29l-.9.51-.1.06-.9.52.31.05A1.63,1.63,0,0,1,212.26,303.73Zm3-1.78,2.51,1.35c0,.2-.05.54.1.63s.59-.09.82-.49.23-.83,0-1-.4.08-.54.18l-2.45-1.5a1.82,1.82,0,0,1-.8-1,1.59,1.59,0,0,1-.06-.34l-.57,1-.07.11-.56,1a1.75,1.75,0,0,1,.32-.12A1.77,1.77,0,0,1,215.21,302Zm.52-3.4,2.6-.08c.06.17.2.45.36.45s.42-.34.42-.76-.19-.76-.42-.76-.28.24-.34.39l-2.62-.08a1.63,1.63,0,0,1-1.1-.43,1.59,1.59,0,0,1-.2-.24v2.18a1.59,1.59,0,0,1,.2-.24A1.63,1.63,0,0,1,215.73,298.55Zm-.07-3.45,2.43-1.49c.16.13.45.31.59.23s.22-.56,0-1-.6-.62-.82-.49-.13.38-.11.56l-2.53,1.36a1.83,1.83,0,0,1-1.29.19,1.75,1.75,0,0,1-.32-.12l.56,1,.07.12.57,1a1.61,1.61,0,0,1,.06-.33A1.82,1.82,0,0,1,215.66,295.1ZM213,293l1.23-2.29c.18,0,.5,0,.57-.08s-.08-.54-.44-.75-.76-.22-.87,0,.07.36.16.49l-1.37,2.22a1.63,1.63,0,0,1-.93.74l-.31.05.9.52.1.06.9.51a1,1,0,0,1-.11-.29A1.65,1.65,0,0,1,213,293Z" style="fill:#fff;stroke:#92989b;stroke-linecap:round;stroke-linejoin:round"></path><path d="M204.16,296.13a1.61,1.61,0,0,1,.06.33l.57-1,.06-.12.57-1a2.08,2.08,0,0,1-.32.12,1.83,1.83,0,0,1-1.29-.19l-.94-.5a7.5,7.5,0,0,0-.42.74l.9.55A1.8,1.8,0,0,1,204.16,296.13Z" style="fill:#263238;stroke:#92989b;stroke-linecap:round;stroke-linejoin:round"></path><path d="M207.69,303l.31-.05-.9-.52-.1-.06-.9-.51a1.45,1.45,0,0,1,.11.29,1.65,1.65,0,0,1-.17,1.17l-.8,1.49a6.44,6.44,0,0,0,.63.36l.89-1.43A1.63,1.63,0,0,1,207.69,303Z" style="fill:#263238;stroke:#92989b;stroke-linecap:round;stroke-linejoin:round"></path><path d="M205.1,301.76a2.08,2.08,0,0,1,.32.12l-.57-1-.06-.11-.57-1a1.59,1.59,0,0,1-.06.34,1.77,1.77,0,0,1-.8,1l-.91.56a7.5,7.5,0,0,0,.42.74l.94-.5A1.77,1.77,0,0,1,205.1,301.76Z" style="fill:#263238;stroke:#92989b;stroke-linecap:round;stroke-linejoin:round"></path><path d="M213,303.31a1.65,1.65,0,0,1-.17-1.17,1,1,0,0,1,.11-.29l-.9.51-.1.06-.9.52.31.05a1.63,1.63,0,0,1,.93.74l.89,1.43a6.44,6.44,0,0,0,.63-.36Z" style="fill:#263238;stroke:#92989b;stroke-linecap:round;stroke-linejoin:round"></path><path d="M210.45,303.76a1.88,1.88,0,0,1,.26-.22h-2.4a1.88,1.88,0,0,1,.26.22,1.79,1.79,0,0,1,.48,1.21l0,1.07h.86l0-1.07A1.79,1.79,0,0,1,210.45,303.76Z" style="fill:#263238;stroke:#92989b;stroke-linecap:round;stroke-linejoin:round"></path><path d="M214.86,300.13a1.59,1.59,0,0,1-.06-.34l-.57,1-.07.11-.56,1a1.75,1.75,0,0,1,.32-.12,1.77,1.77,0,0,1,1.29.19l.93.5a6,6,0,0,0,.43-.74l-.91-.55A1.82,1.82,0,0,1,214.86,300.13Z" style="fill:#263238;stroke:#92989b;stroke-linecap:round;stroke-linejoin:round"></path><path d="M214.63,297.28a1.59,1.59,0,0,1-.2-.24v2.18a1.59,1.59,0,0,1,.2-.24,1.63,1.63,0,0,1,1.1-.43l1.69-.05c0-.13,0-.25,0-.37s0-.25,0-.37l-1.69-.05A1.63,1.63,0,0,1,214.63,297.28Z" style="fill:#263238;stroke:#92989b;stroke-linecap:round;stroke-linejoin:round"></path><path d="M204.39,299a1.59,1.59,0,0,1,.2.24V297a1.59,1.59,0,0,1-.2.24,1.63,1.63,0,0,1-1.1.43l-1.69.05c0,.12,0,.25,0,.37s0,.25,0,.37l1.69.05A1.63,1.63,0,0,1,204.39,299Z" style="fill:#263238;stroke:#92989b;stroke-linecap:round;stroke-linejoin:round"></path><path d="M213.92,294.5a1.75,1.75,0,0,1-.32-.12l.56,1,.07.12.57,1a1.61,1.61,0,0,1,.06-.33,1.82,1.82,0,0,1,.8-1l.91-.56a6.65,6.65,0,0,0-.43-.73l-.93.5A1.83,1.83,0,0,1,213.92,294.5Z" style="fill:#263238;stroke:#92989b;stroke-linecap:round;stroke-linejoin:round"></path><path d="M211.33,293.27l-.31.05.9.52.1.06.9.51a1,1,0,0,1-.11-.29A1.65,1.65,0,0,1,213,293l.8-1.49c-.2-.13-.41-.25-.63-.37l-.89,1.44A1.63,1.63,0,0,1,211.33,293.27Z" style="fill:#263238;stroke:#92989b;stroke-linecap:round;stroke-linejoin:round"></path><path d="M208.57,292.5a3,3,0,0,1-.26.22h2.4a3,3,0,0,1-.26-.22,1.79,1.79,0,0,1-.48-1.21l0-1.07h-.86l0,1.07A1.81,1.81,0,0,1,208.57,292.5Z" style="fill:#263238;stroke:#92989b;stroke-linecap:round;stroke-linejoin:round"></path><path d="M206,293a1.65,1.65,0,0,1,.17,1.17,1.45,1.45,0,0,1-.11.29l.9-.51.1-.06.9-.52-.31-.05a1.63,1.63,0,0,1-.93-.74l-.89-1.43a6.44,6.44,0,0,0-.63.36Z" style="fill:#263238;stroke:#92989b;stroke-linecap:round;stroke-linejoin:round"></path><circle cx="209.51" cy="298.13" r="7.28" style="fill:#90CAF9;stroke:#92989b;stroke-linecap:round;stroke-linejoin:round"></circle><path d="M210.08,292.57a.75.75,0,0,1-1.5,0,.75.75,0,0,1,1.5,0Z" style="fill:#fff;stroke:#92989b;stroke-linecap:round;stroke-linejoin:round"></path><path d="M205.55,298.34a.75.75,0,1,1-.75-.71A.74.74,0,0,1,205.55,298.34Z" style="fill:#fff;stroke:#92989b;stroke-linecap:round;stroke-linejoin:round"></path><path d="M208.9,296.49a.75.75,0,1,1-.75-.71A.73.73,0,0,1,208.9,296.49Z" style="fill:#fff;stroke:#92989b;stroke-linecap:round;stroke-linejoin:round"></path><path d="M207.15,302.7a.75.75,0,1,1-.74-.72A.73.73,0,0,1,207.15,302.7Z" style="fill:#fff;stroke:#92989b;stroke-linecap:round;stroke-linejoin:round"></path><path d="M215.32,299.7a.75.75,0,1,1-.74-.71A.73.73,0,0,1,215.32,299.7Z" style="fill:#fff;stroke:#92989b;stroke-linecap:round;stroke-linejoin:round"></path><path d="M210,300.67a.75.75,0,1,1-.75-.71A.73.73,0,0,1,210,300.67Z" style="fill:#fff;stroke:#92989b;stroke-linecap:round;stroke-linejoin:round"></path><ellipse cx="211.64" cy="297.82" rx="0.75" ry="0.71" style="fill:#fff;stroke:#92989b;stroke-linecap:round;stroke-linejoin:round"></ellipse><path d="M214.2,294.5a.75.75,0,1,1-.75-.72A.73.73,0,0,1,214.2,294.5Z" style="fill:#fff;stroke:#92989b;stroke-linecap:round;stroke-linejoin:round"></path><path d="M212.47,303.05a.75.75,0,1,1-.75-.71A.73.73,0,0,1,212.47,303.05Z" style="fill:#fff;stroke:#92989b;stroke-linecap:round;stroke-linejoin:round"></path><path d="M206.33,293.85a.75.75,0,1,1-.74-.71A.73.73,0,0,1,206.33,293.85Z" style="fill:#fff;stroke:#92989b;stroke-linecap:round;stroke-linejoin:round"></path><path d="M126.15,344.49a2,2,0,0,0,.27.22H124a1.43,1.43,0,0,0,.26-.22,1.8,1.8,0,0,0,.49-1.21l.08-2.88c-.16-.06-.43-.22-.43-.37s.37-.47.84-.47.83.21.83.47-.3.33-.49.39l.08,2.86A1.79,1.79,0,0,0,126.15,344.49Zm-3.69,0-1.36-2.21c.12-.14.29-.41.21-.54s-.51-.2-.87,0-.56.55-.45.75.35.12.51.1l1.24,2.3a1.6,1.6,0,0,1,.17,1.17,1.21,1.21,0,0,1-.11.3l.9-.52.1-.06.9-.52a1.06,1.06,0,0,1-.31-.05A1.68,1.68,0,0,1,122.46,344.53Zm-2.94,1.77L117,345c0-.2,0-.54-.09-.63s-.6.09-.83.49-.23.83,0,1,.4-.08.54-.18l2.45,1.51a1.83,1.83,0,0,1,.81,1,3.07,3.07,0,0,1,0,.34l.57-1,.07-.11.57-1a1.46,1.46,0,0,1-.33.12A1.74,1.74,0,0,1,119.52,346.3Zm-.53,3.41-2.59.07c-.06-.17-.21-.45-.36-.45s-.43.34-.43.76.19.76.43.76.28-.24.34-.39l2.61.08a1.59,1.59,0,0,1,1.1.44,1.21,1.21,0,0,1,.2.24V349a1.59,1.59,0,0,1-.2.24A1.69,1.69,0,0,1,119,349.71Zm.07,3.44-2.43,1.5c-.16-.14-.45-.32-.59-.23s-.22.55,0,.95.6.62.82.49.14-.38.11-.56l2.54-1.36a1.79,1.79,0,0,1,1.28-.19,2.19,2.19,0,0,1,.33.12l-.57-1-.07-.12-.57-1a1.61,1.61,0,0,1-.06.33A1.79,1.79,0,0,1,119.06,353.15Zm2.68,2.15-1.23,2.29c-.18,0-.49,0-.57.08s.08.54.45.75.75.22.87,0-.07-.36-.17-.49l1.37-2.22a1.66,1.66,0,0,1,.93-.74l.31-.05-.9-.51-.1-.07-.9-.51a1.15,1.15,0,0,1,.11.29A1.6,1.6,0,0,1,121.74,355.3Zm3,1.66.08,2.86c-.19.06-.5.23-.5.39s.38.47.84.47.83-.21.83-.47-.26-.3-.42-.37l.08-2.88a1.81,1.81,0,0,1,.48-1.21,1.94,1.94,0,0,1,.27-.21H124a1.4,1.4,0,0,1,.26.21A1.82,1.82,0,0,1,124.76,357Zm3.2-1.24,1.37,2.21c-.12.14-.29.4-.21.53s.5.2.87,0,.56-.54.44-.75-.35-.12-.5-.1l-1.25-2.3a1.65,1.65,0,0,1-.17-1.17,1.72,1.72,0,0,1,.11-.29l-.89.51-.11.07-.89.51.3.05A1.6,1.6,0,0,1,128,355.72Zm3-1.78,2.51,1.35c0,.2,0,.55.1.63s.59-.09.82-.49.24-.83,0-1-.39.08-.53.19l-2.45-1.51a1.81,1.81,0,0,1-.81-1,1.61,1.61,0,0,1-.06-.33l-.57,1-.06.12-.57,1,.32-.12A1.82,1.82,0,0,1,130.91,353.94Zm.52-3.4,2.6-.08c.06.18.21.45.36.45s.42-.34.42-.76-.19-.76-.42-.76-.28.24-.34.39l-2.62-.07a1.71,1.71,0,0,1-1.1-.44,1.55,1.55,0,0,1-.19-.24v2.19a1.18,1.18,0,0,1,.19-.24A1.61,1.61,0,0,1,131.43,350.54Zm-.06-3.44,2.43-1.5c.15.13.44.31.59.23s.22-.56,0-1-.6-.62-.83-.49-.13.38-.11.56l-2.53,1.36a1.77,1.77,0,0,1-1.29.19,1.59,1.59,0,0,1-.32-.12l.57,1,.06.11.57,1a1.72,1.72,0,0,1,.06-.34A1.79,1.79,0,0,1,131.37,347.1Zm-2.69-2.16,1.24-2.28c.18,0,.49,0,.56-.09s-.08-.54-.44-.75-.75-.21-.87,0,.07.36.17.49L128,344.53a1.62,1.62,0,0,1-.93.73.94.94,0,0,1-.3.05l.89.52.11.06.89.52a1.82,1.82,0,0,1-.11-.3A1.65,1.65,0,0,1,128.68,344.94Z" style="fill:#fff;stroke:#92989b;stroke-linecap:round;stroke-linejoin:round"></path><path d="M119.87,348.12a3.07,3.07,0,0,1,0,.34l.57-1,.07-.11.57-1a1.46,1.46,0,0,1-.33.12,1.74,1.74,0,0,1-1.28-.19l-.94-.5a6.79,6.79,0,0,0-.43.74l.91.56A1.83,1.83,0,0,1,119.87,348.12Z" style="fill:#263238;stroke:#92989b;stroke-linecap:round;stroke-linejoin:round"></path><path d="M123.39,355l.31-.05-.9-.51-.1-.07-.9-.51a1.15,1.15,0,0,1,.11.29,1.6,1.6,0,0,1-.17,1.17l-.8,1.49.63.37.89-1.44A1.66,1.66,0,0,1,123.39,355Z" style="fill:#263238;stroke:#92989b;stroke-linecap:round;stroke-linejoin:round"></path><path d="M120.8,353.75a2.19,2.19,0,0,1,.33.12l-.57-1-.07-.12-.57-1a1.61,1.61,0,0,1-.06.33,1.79,1.79,0,0,1-.8,1l-.91.56a7.89,7.89,0,0,0,.43.74l.94-.51A1.79,1.79,0,0,1,120.8,353.75Z" style="fill:#263238;stroke:#92989b;stroke-linecap:round;stroke-linejoin:round"></path><path d="M128.68,355.3a1.65,1.65,0,0,1-.17-1.17,1.72,1.72,0,0,1,.11-.29l-.89.51-.11.07-.89.51.3.05a1.6,1.6,0,0,1,.93.74l.89,1.44.64-.37Z" style="fill:#263238;stroke:#92989b;stroke-linecap:round;stroke-linejoin:round"></path><path d="M126.15,355.75a1.94,1.94,0,0,1,.27-.21H124a1.4,1.4,0,0,1,.26.21,1.82,1.82,0,0,1,.49,1.21l0,1.07h.85l0-1.07A1.81,1.81,0,0,1,126.15,355.75Z" style="fill:#263238;stroke:#92989b;stroke-linecap:round;stroke-linejoin:round"></path><path d="M130.56,352.12a1.61,1.61,0,0,1-.06-.33l-.57,1-.06.12-.57,1,.32-.12a1.82,1.82,0,0,1,1.29.19l.94.5a6.58,6.58,0,0,0,.42-.73l-.9-.56A1.81,1.81,0,0,1,130.56,352.12Z" style="fill:#263238;stroke:#92989b;stroke-linecap:round;stroke-linejoin:round"></path><path d="M130.33,349.27a1.55,1.55,0,0,1-.19-.24v2.19a1.18,1.18,0,0,1,.19-.24,1.61,1.61,0,0,1,1.1-.44l1.69-.05c0-.12,0-.25,0-.37s0-.24,0-.37l-1.69,0A1.71,1.71,0,0,1,130.33,349.27Z" style="fill:#263238;stroke:#92989b;stroke-linecap:round;stroke-linejoin:round"></path><path d="M120.09,351a1.21,1.21,0,0,1,.2.24V349a1.59,1.59,0,0,1-.2.24,1.69,1.69,0,0,1-1.1.44l-1.69.05c0,.12,0,.24,0,.36s0,.25,0,.37l1.69.05A1.59,1.59,0,0,1,120.09,351Z" style="fill:#263238;stroke:#92989b;stroke-linecap:round;stroke-linejoin:round"></path><path d="M129.62,346.49a1.59,1.59,0,0,1-.32-.12l.57,1,.06.11.57,1a1.72,1.72,0,0,1,.06-.34,1.79,1.79,0,0,1,.81-1l.9-.56a6.72,6.72,0,0,0-.42-.74l-.94.5A1.77,1.77,0,0,1,129.62,346.49Z" style="fill:#263238;stroke:#92989b;stroke-linecap:round;stroke-linejoin:round"></path><path d="M127,345.26a.94.94,0,0,1-.3.05l.89.52.11.06.89.52a1.82,1.82,0,0,1-.11-.3,1.65,1.65,0,0,1,.17-1.17l.81-1.49c-.21-.13-.42-.25-.64-.36l-.89,1.44A1.62,1.62,0,0,1,127,345.26Z" style="fill:#263238;stroke:#92989b;stroke-linecap:round;stroke-linejoin:round"></path><path d="M124.27,344.49a1.43,1.43,0,0,1-.26.22h2.41a2,2,0,0,1-.27-.22,1.79,1.79,0,0,1-.48-1.21l0-1.07h-.85l0,1.07A1.8,1.8,0,0,1,124.27,344.49Z" style="fill:#263238;stroke:#92989b;stroke-linecap:round;stroke-linejoin:round"></path><path d="M121.74,344.94a1.6,1.6,0,0,1,.17,1.17,1.21,1.21,0,0,1-.11.3l.9-.52.1-.06.9-.52a1.06,1.06,0,0,1-.31-.05,1.68,1.68,0,0,1-.93-.73l-.89-1.44-.63.36Z" style="fill:#263238;stroke:#92989b;stroke-linecap:round;stroke-linejoin:round"></path><circle cx="125.21" cy="350.12" r="7.28" transform="translate(-210.9 191.09) rotate(-45)" style="fill:#90CAF9;stroke:#92989b;stroke-linecap:round;stroke-linejoin:round"></circle><path d="M125.78,344.57a.75.75,0,1,1-.75-.72A.73.73,0,0,1,125.78,344.57Z" style="fill:#fff;stroke:#92989b;stroke-linecap:round;stroke-linejoin:round"></path><path d="M121.25,350.34a.75.75,0,0,1-1.5,0,.75.75,0,0,1,1.5,0Z" style="fill:#fff;stroke:#92989b;stroke-linecap:round;stroke-linejoin:round"></path><ellipse cx="123.86" cy="348.48" rx="0.75" ry="0.71" style="fill:#fff;stroke:#92989b;stroke-linecap:round;stroke-linejoin:round"></ellipse><path d="M122.86,354.69a.75.75,0,0,1-1.5,0,.75.75,0,0,1,1.5,0Z" style="fill:#fff;stroke:#92989b;stroke-linecap:round;stroke-linejoin:round"></path><ellipse cx="130.28" cy="351.69" rx="0.75" ry="0.71" style="fill:#fff;stroke:#92989b;stroke-linecap:round;stroke-linejoin:round"></ellipse><path d="M125.67,352.67a.75.75,0,1,1-.75-.72A.73.73,0,0,1,125.67,352.67Z" style="fill:#fff;stroke:#92989b;stroke-linecap:round;stroke-linejoin:round"></path><path d="M128.09,349.81a.75.75,0,1,1-.75-.71A.73.73,0,0,1,128.09,349.81Z" style="fill:#fff;stroke:#92989b;stroke-linecap:round;stroke-linejoin:round"></path><path d="M129.9,346.49a.75.75,0,0,1-1.5,0,.75.75,0,0,1,1.5,0Z" style="fill:#fff;stroke:#92989b;stroke-linecap:round;stroke-linejoin:round"></path><path d="M128.17,355.05a.75.75,0,1,1-.75-.72A.73.73,0,0,1,128.17,355.05Z" style="fill:#fff;stroke:#92989b;stroke-linecap:round;stroke-linejoin:round"></path><path d="M122,345.84a.75.75,0,1,1-.75-.71A.73.73,0,0,1,122,345.84Z" style="fill:#fff;stroke:#92989b;stroke-linecap:round;stroke-linejoin:round"></path><path d="M75.49,322.37a.85.85,0,0,0,.2.17H73.83a1.2,1.2,0,0,0,.21-.17,1.38,1.38,0,0,0,.37-.93l.06-2.22c-.12-.05-.33-.17-.33-.29s.29-.36.65-.36.64.16.64.36-.23.25-.38.3l.06,2.21A1.34,1.34,0,0,0,75.49,322.37Zm-2.85,0-1-1.71c.09-.1.22-.31.16-.41s-.39-.15-.67,0-.44.42-.35.58.27.09.39.07l1,1.78a1.26,1.26,0,0,1,.13.91,1,1,0,0,1-.08.22l.69-.4.08,0,.69-.4-.23,0A1.24,1.24,0,0,1,72.64,322.4Zm-2.28,1.37-1.94-1c0-.16,0-.42-.07-.49s-.46.07-.63.38-.19.64,0,.74.3-.06.41-.14L70,324.38a1.42,1.42,0,0,1,.62.79,1.09,1.09,0,0,1,.05.26l.44-.76,0-.08.44-.76-.25.09A1.4,1.4,0,0,1,70.36,323.77ZM70,326.4l-2,.06c0-.14-.16-.35-.28-.35s-.33.26-.33.59.15.58.33.58.21-.19.26-.3l2,.06a1.29,1.29,0,0,1,.85.34l.15.18v-1.69a1,1,0,0,1-.15.19A1.29,1.29,0,0,1,70,326.4Zm.05,2.65-1.88,1.16c-.11-.1-.34-.24-.45-.18s-.17.43,0,.74.46.48.63.38.11-.3.09-.43l2-1.05a1.35,1.35,0,0,1,1-.15l.25.09-.44-.76,0-.09-.44-.76a1,1,0,0,1-.05.26A1.36,1.36,0,0,1,70,329.05Zm2.07,1.67-1,1.76c-.14,0-.38,0-.44.07s.06.41.35.58.58.16.67,0-.06-.28-.13-.37L72.64,331a1.24,1.24,0,0,1,.72-.57l.23,0-.69-.4-.08,0-.69-.4a1,1,0,0,1,.08.22A1.26,1.26,0,0,1,72.08,330.72ZM74.41,332l.06,2.2c-.15.05-.38.18-.38.31s.29.36.64.36.65-.16.65-.36-.21-.24-.33-.29l.06-2.22a1.32,1.32,0,0,1,.38-.93.85.85,0,0,1,.2-.17H73.83a1.2,1.2,0,0,1,.21.17A1.36,1.36,0,0,1,74.41,332Zm2.47-1,1.06,1.7c-.1.11-.23.31-.17.42s.4.15.68,0,.43-.42.34-.58-.27-.09-.39-.08l-1-1.77a1.26,1.26,0,0,1-.13-.91,1,1,0,0,1,.08-.22l-.69.4-.08,0-.69.4.24,0A1.25,1.25,0,0,1,76.88,331Zm2.28-1.37,1.94,1c0,.15,0,.42.07.48s.46-.06.64-.37.18-.64,0-.74-.31.06-.42.14l-1.89-1.17a1.36,1.36,0,0,1-.62-.79,1.72,1.72,0,0,1,0-.26l-.43.76-.06.09-.43.76.24-.09A1.35,1.35,0,0,1,79.16,329.67Zm.4-2.63,2-.06c0,.14.15.35.27.35s.33-.26.33-.59-.15-.58-.33-.58-.21.18-.26.3l-2-.06a1.29,1.29,0,0,1-.85-.34,1,1,0,0,1-.15-.19v1.69l.15-.18A1.29,1.29,0,0,1,79.56,327Zm0-2.66,1.88-1.15c.11.1.34.24.45.18s.17-.44,0-.74-.46-.48-.63-.38-.1.29-.09.43l-2,1a1.4,1.4,0,0,1-1,.15l-.24-.09.43.76.06.08.43.76a2,2,0,0,1,0-.26A1.42,1.42,0,0,1,79.51,324.38Zm-2.07-1.66,1-1.76c.14,0,.38,0,.44-.07s-.06-.42-.34-.58-.58-.16-.68,0,.06.28.13.38l-1.06,1.72a1.25,1.25,0,0,1-.71.57l-.24,0,.69.4.08,0,.69.4a1,1,0,0,1-.08-.22A1.26,1.26,0,0,1,77.44,322.72Z" style="fill:#fff;stroke:#92989b;stroke-linecap:round;stroke-linejoin:round"></path><path d="M70.63,325.17a1.09,1.09,0,0,1,.05.26l.44-.76,0-.08.44-.76-.25.09a1.4,1.4,0,0,1-1-.15l-.72-.39q-.18.28-.33.57l.7.43A1.42,1.42,0,0,1,70.63,325.17Z" style="fill:#263238;stroke:#92989b;stroke-linecap:round;stroke-linejoin:round"></path><path d="M73.36,330.47l.23,0-.69-.4-.08,0-.69-.4a1,1,0,0,1,.08.22,1.26,1.26,0,0,1-.13.91l-.62,1.14a4.85,4.85,0,0,0,.49.29l.69-1.11A1.24,1.24,0,0,1,73.36,330.47Z" style="fill:#263238;stroke:#92989b;stroke-linecap:round;stroke-linejoin:round"></path><path d="M71.36,329.52l.25.09-.44-.76,0-.09-.44-.76a1,1,0,0,1-.05.26,1.36,1.36,0,0,1-.62.79l-.7.44q.15.28.33.57l.72-.39A1.35,1.35,0,0,1,71.36,329.52Z" style="fill:#263238;stroke:#92989b;stroke-linecap:round;stroke-linejoin:round"></path><path d="M77.44,330.72a1.26,1.26,0,0,1-.13-.91,1,1,0,0,1,.08-.22l-.69.4-.08,0-.69.4.24,0a1.25,1.25,0,0,1,.71.57l.69,1.11a4.85,4.85,0,0,0,.49-.29Z" style="fill:#263238;stroke:#92989b;stroke-linecap:round;stroke-linejoin:round"></path><path d="M75.49,331.07a.85.85,0,0,1,.2-.17H73.83a1.2,1.2,0,0,1,.21.17,1.36,1.36,0,0,1,.37.93l0,.82h.66l0-.82A1.32,1.32,0,0,1,75.49,331.07Z" style="fill:#263238;stroke:#92989b;stroke-linecap:round;stroke-linejoin:round"></path><path d="M78.89,328.26a1.72,1.72,0,0,1,0-.26l-.43.76-.06.09-.43.76.24-.09a1.35,1.35,0,0,1,1,.15l.72.39q.18-.29.33-.57l-.7-.44A1.36,1.36,0,0,1,78.89,328.26Z" style="fill:#263238;stroke:#92989b;stroke-linecap:round;stroke-linejoin:round"></path><path d="M78.71,326.06a1,1,0,0,1-.15-.19v1.69l.15-.18a1.29,1.29,0,0,1,.85-.34l1.31,0v-.56l-1.31,0A1.29,1.29,0,0,1,78.71,326.06Z" style="fill:#263238;stroke:#92989b;stroke-linecap:round;stroke-linejoin:round"></path><path d="M70.81,327.38l.15.18v-1.69a1,1,0,0,1-.15.19,1.29,1.29,0,0,1-.85.34l-1.31,0V327L70,327A1.29,1.29,0,0,1,70.81,327.38Z" style="fill:#263238;stroke:#92989b;stroke-linecap:round;stroke-linejoin:round"></path><path d="M78.16,323.92l-.24-.09.43.76.06.08.43.76a2,2,0,0,1,0-.26,1.42,1.42,0,0,1,.62-.79l.7-.43q-.15-.29-.33-.57l-.72.39A1.4,1.4,0,0,1,78.16,323.92Z" style="fill:#263238;stroke:#92989b;stroke-linecap:round;stroke-linejoin:round"></path><path d="M76.17,323l-.24,0,.69.4.08,0,.69.4a1,1,0,0,1-.08-.22,1.26,1.26,0,0,1,.13-.91l.62-1.15-.49-.28-.69,1.11A1.25,1.25,0,0,1,76.17,323Z" style="fill:#263238;stroke:#92989b;stroke-linecap:round;stroke-linejoin:round"></path><path d="M74,322.37a1.2,1.2,0,0,1-.21.17h1.86a.85.85,0,0,1-.2-.17,1.34,1.34,0,0,1-.38-.93l0-.82h-.66l0,.82A1.38,1.38,0,0,1,74,322.37Z" style="fill:#263238;stroke:#92989b;stroke-linecap:round;stroke-linejoin:round"></path><path d="M72.08,322.72a1.26,1.26,0,0,1,.13.91,1,1,0,0,1-.08.22l.69-.4.08,0,.69-.4-.23,0a1.24,1.24,0,0,1-.72-.57L72,321.29l-.49.28Z" style="fill:#263238;stroke:#92989b;stroke-linecap:round;stroke-linejoin:round"></path><path d="M80.38,326.72a5.62,5.62,0,1,0-5.62,5.62A5.62,5.62,0,0,0,80.38,326.72Z" style="fill:#90CAF9;stroke:#92989b;stroke-linecap:round;stroke-linejoin:round"></path><path d="M75.2,322.43a.58.58,0,1,1-.58-.55A.57.57,0,0,1,75.2,322.43Z" style="fill:#fff;stroke:#92989b;stroke-linecap:round;stroke-linejoin:round"></path><path d="M71.7,326.88a.55.55,0,0,1-.57.55.56.56,0,0,1-.58-.55.57.57,0,0,1,.58-.55A.56.56,0,0,1,71.7,326.88Z" style="fill:#fff;stroke:#92989b;stroke-linecap:round;stroke-linejoin:round"></path><path d="M74.29,325.45a.58.58,0,1,1-.58-.55A.57.57,0,0,1,74.29,325.45Z" style="fill:#fff;stroke:#92989b;stroke-linecap:round;stroke-linejoin:round"></path><path d="M72.94,330.24a.58.58,0,0,1-1.15,0,.58.58,0,0,1,1.15,0Z" style="fill:#fff;stroke:#92989b;stroke-linecap:round;stroke-linejoin:round"></path><path d="M79.25,327.93a.58.58,0,1,1-.58-.55A.57.57,0,0,1,79.25,327.93Z" style="fill:#fff;stroke:#92989b;stroke-linecap:round;stroke-linejoin:round"></path><path d="M75.11,328.68a.58.58,0,0,1-1.16,0,.58.58,0,0,1,1.16,0Z" style="fill:#fff;stroke:#92989b;stroke-linecap:round;stroke-linejoin:round"></path><path d="M77,326.48a.58.58,0,1,1-.57-.55A.57.57,0,0,1,77,326.48Z" style="fill:#fff;stroke:#92989b;stroke-linecap:round;stroke-linejoin:round"></path><path d="M78.38,323.91a.58.58,0,1,1-.58-.55A.57.57,0,0,1,78.38,323.91Z" style="fill:#fff;stroke:#92989b;stroke-linecap:round;stroke-linejoin:round"></path><path d="M77.05,330.52a.58.58,0,0,1-1.16,0,.58.58,0,0,1,1.16,0Z" style="fill:#fff;stroke:#92989b;stroke-linecap:round;stroke-linejoin:round"></path><path d="M72.31,323.41a.58.58,0,1,1-.58-.55A.57.57,0,0,1,72.31,323.41Z" style="fill:#fff;stroke:#92989b;stroke-linecap:round;stroke-linejoin:round"></path><path d="M188,330.92a1.12,1.12,0,0,0,.2.17h-1.86a1.2,1.2,0,0,0,.21-.17,1.4,1.4,0,0,0,.37-.93l.06-2.22c-.12-.06-.33-.18-.33-.29s.29-.36.65-.36.64.16.64.36-.23.25-.38.3l.06,2.21A1.36,1.36,0,0,0,188,330.92Zm-2.85,0-1-1.71c.09-.11.22-.31.16-.41s-.39-.15-.67,0-.44.42-.35.57.27.1.39.08l1,1.78a1.24,1.24,0,0,1,.13.9.7.7,0,0,1-.08.23l.69-.4.08-.05.69-.4a.85.85,0,0,1-.23,0A1.19,1.19,0,0,1,185.17,331Zm-2.28,1.37L181,331.27c0-.15,0-.41-.07-.48s-.46.07-.63.38-.19.64,0,.74.3-.06.41-.14l1.89,1.16a1.35,1.35,0,0,1,.62.79,1.09,1.09,0,0,1,.05.26l.44-.76,0-.09.44-.76-.25.09A1.4,1.4,0,0,1,182.89,332.32Zm-.4,2.63-2,.05c-.05-.13-.16-.34-.28-.34s-.33.26-.33.58.15.59.33.59.21-.19.26-.3l2,.06a1.29,1.29,0,0,1,.85.34.9.9,0,0,1,.15.18v-1.69a1.39,1.39,0,0,1-.15.19A1.29,1.29,0,0,1,182.49,335Zm0,2.65-1.87,1.16c-.12-.1-.35-.24-.46-.18s-.17.43,0,.74.46.48.63.38.11-.3.09-.43l1.95-1.06a1.4,1.4,0,0,1,1-.14l.25.09-.44-.76,0-.09-.44-.76a1.09,1.09,0,0,1-.05.26A1.32,1.32,0,0,1,182.54,337.6Zm2.07,1.66-1,1.77c-.14,0-.38,0-.44.07s.07.41.35.57.58.17.67,0-.06-.28-.13-.38l1.06-1.71a1.21,1.21,0,0,1,.72-.57.85.85,0,0,1,.23,0l-.69-.4-.08-.05-.69-.4a.79.79,0,0,1,.08.23A1.23,1.23,0,0,1,184.61,339.26Zm2.33,1.29.06,2.2c-.15.05-.38.18-.38.31s.29.36.65.36.64-.16.64-.36-.21-.24-.33-.29l.06-2.22a1.37,1.37,0,0,1,.38-.94,1.08,1.08,0,0,1,.2-.16h-1.86a1.16,1.16,0,0,1,.21.16A1.4,1.4,0,0,1,186.94,340.55Zm2.47-1,1.06,1.7c-.1.11-.22.31-.17.41s.4.16.68,0,.43-.42.34-.58-.27-.09-.39-.08l-1-1.78a1.23,1.23,0,0,1-.13-.9,1.27,1.27,0,0,1,.08-.23l-.69.4-.08.05-.69.4a1,1,0,0,1,.24,0A1.22,1.22,0,0,1,189.41,339.59Zm2.28-1.38,1.94,1.05c0,.15,0,.42.07.48s.46-.07.64-.38.18-.63,0-.73-.31.06-.42.14L192,337.6a1.36,1.36,0,0,1-.62-.79,2,2,0,0,1,0-.26l-.43.76-.06.09-.43.76a1.17,1.17,0,0,1,.24-.09A1.4,1.4,0,0,1,191.69,338.21Zm.4-2.62,2-.06c0,.13.16.35.27.35s.33-.27.33-.59-.15-.59-.33-.59-.21.19-.26.3l-2-.05a1.29,1.29,0,0,1-.85-.34l-.15-.19v1.69l.15-.18A1.29,1.29,0,0,1,192.09,335.59Zm-.05-2.66,1.88-1.16c.12.11.34.25.45.18s.17-.43,0-.74-.46-.47-.63-.37-.1.29-.09.43l-1.95,1.05a1.4,1.4,0,0,1-1,.14,1.17,1.17,0,0,1-.24-.09l.43.76.06.09.43.76a2,2,0,0,1,0-.26A1.39,1.39,0,0,1,192,332.93ZM190,331.27l.95-1.77c.14,0,.38,0,.44-.06s-.06-.42-.34-.58-.58-.17-.67,0,.05.28.12.38L189.41,331a1.2,1.2,0,0,1-.71.56,1,1,0,0,1-.24,0l.69.4.08.05.69.4a1,1,0,0,1-.08-.23A1.24,1.24,0,0,1,190,331.27Z" style="fill:#fff;stroke:#92989b;stroke-linecap:round;stroke-linejoin:round"></path><path d="M183.16,333.72a1.09,1.09,0,0,1,.05.26l.44-.76,0-.09.44-.76-.25.09a1.4,1.4,0,0,1-1-.14l-.72-.39a5.3,5.3,0,0,0-.33.57l.7.43A1.35,1.35,0,0,1,183.16,333.72Z" style="fill:#263238;stroke:#92989b;stroke-linecap:round;stroke-linejoin:round"></path><path d="M185.89,339a.85.85,0,0,1,.23,0l-.69-.4-.08-.05-.69-.4a.79.79,0,0,1,.08.23,1.23,1.23,0,0,1-.13.9l-.62,1.15.49.29.69-1.11A1.21,1.21,0,0,1,185.89,339Z" style="fill:#263238;stroke:#92989b;stroke-linecap:round;stroke-linejoin:round"></path><path d="M183.89,338.07l.25.09-.44-.76,0-.09-.44-.76a1.09,1.09,0,0,1-.05.26,1.32,1.32,0,0,1-.62.79l-.7.43a5.3,5.3,0,0,0,.33.57l.72-.39A1.4,1.4,0,0,1,183.89,338.07Z" style="fill:#263238;stroke:#92989b;stroke-linecap:round;stroke-linejoin:round"></path><path d="M190,339.26a1.23,1.23,0,0,1-.13-.9,1.27,1.27,0,0,1,.08-.23l-.69.4-.08.05-.69.4a1,1,0,0,1,.24,0,1.22,1.22,0,0,1,.71.57l.69,1.11c.17-.09.33-.19.49-.29Z" style="fill:#263238;stroke:#92989b;stroke-linecap:round;stroke-linejoin:round"></path><path d="M188,339.61a1.08,1.08,0,0,1,.2-.16h-1.86a1.16,1.16,0,0,1,.21.16,1.4,1.4,0,0,1,.37.94l0,.82h.66l0-.82A1.37,1.37,0,0,1,188,339.61Z" style="fill:#263238;stroke:#92989b;stroke-linecap:round;stroke-linejoin:round"></path><path d="M191.42,336.81a2,2,0,0,1,0-.26l-.43.76-.06.09-.43.76a1.17,1.17,0,0,1,.24-.09,1.4,1.4,0,0,1,1,.14l.72.39a5.3,5.3,0,0,0,.33-.57l-.7-.43A1.36,1.36,0,0,1,191.42,336.81Z" style="fill:#263238;stroke:#92989b;stroke-linecap:round;stroke-linejoin:round"></path><path d="M191.24,334.61l-.15-.19v1.69l.15-.18a1.29,1.29,0,0,1,.85-.34l1.31,0V335l-1.31,0A1.29,1.29,0,0,1,191.24,334.61Z" style="fill:#263238;stroke:#92989b;stroke-linecap:round;stroke-linejoin:round"></path><path d="M183.34,335.93a.9.9,0,0,1,.15.18v-1.69a1.39,1.39,0,0,1-.15.19,1.29,1.29,0,0,1-.85.34l-1.3,0a2.81,2.81,0,0,0,0,.29,2.62,2.62,0,0,0,0,.28l1.3,0A1.29,1.29,0,0,1,183.34,335.93Z" style="fill:#263238;stroke:#92989b;stroke-linecap:round;stroke-linejoin:round"></path><path d="M190.69,332.46a1.17,1.17,0,0,1-.24-.09l.43.76.06.09.43.76a2,2,0,0,1,0-.26,1.39,1.39,0,0,1,.62-.79l.7-.43a5.3,5.3,0,0,0-.33-.57l-.72.39A1.4,1.4,0,0,1,190.69,332.46Z" style="fill:#263238;stroke:#92989b;stroke-linecap:round;stroke-linejoin:round"></path><path d="M188.7,331.51a1,1,0,0,1-.24,0l.69.4.08.05.69.4a1,1,0,0,1-.08-.23,1.24,1.24,0,0,1,.13-.9l.62-1.15a4.76,4.76,0,0,0-.49-.28l-.69,1.11A1.2,1.2,0,0,1,188.7,331.51Z" style="fill:#263238;stroke:#92989b;stroke-linecap:round;stroke-linejoin:round"></path><path d="M186.57,330.92a1.2,1.2,0,0,1-.21.17h1.86a1.12,1.12,0,0,1-.2-.17,1.36,1.36,0,0,1-.38-.93l0-.83H187l0,.83A1.4,1.4,0,0,1,186.57,330.92Z" style="fill:#263238;stroke:#92989b;stroke-linecap:round;stroke-linejoin:round"></path><path d="M184.61,331.27a1.24,1.24,0,0,1,.13.9.7.7,0,0,1-.08.23l.69-.4.08-.05.69-.4a.85.85,0,0,1-.23,0,1.19,1.19,0,0,1-.72-.56l-.69-1.11c-.16.08-.33.18-.49.28Z" style="fill:#263238;stroke:#92989b;stroke-linecap:round;stroke-linejoin:round"></path><path d="M192.91,335.27a5.62,5.62,0,1,0-5.62,5.61A5.62,5.62,0,0,0,192.91,335.27Z" style="fill:#90CAF9;stroke:#92989b;stroke-linecap:round;stroke-linejoin:round"></path><path d="M187.73,331a.58.58,0,0,1-1.16,0,.58.58,0,0,1,1.16,0Z" style="fill:#fff;stroke:#92989b;stroke-linecap:round;stroke-linejoin:round"></path><path d="M184.23,335.43a.55.55,0,0,1-.57.55.56.56,0,0,1-.58-.55.57.57,0,0,1,.58-.55A.56.56,0,0,1,184.23,335.43Z" style="fill:#fff;stroke:#92989b;stroke-linecap:round;stroke-linejoin:round"></path><path d="M186.82,334a.58.58,0,1,1-.58-.55A.57.57,0,0,1,186.82,334Z" style="fill:#fff;stroke:#92989b;stroke-linecap:round;stroke-linejoin:round"></path><path d="M185.47,338.79a.55.55,0,0,1-.57.55.56.56,0,0,1-.58-.55.57.57,0,0,1,.58-.55A.56.56,0,0,1,185.47,338.79Z" style="fill:#fff;stroke:#92989b;stroke-linecap:round;stroke-linejoin:round"></path><path d="M191.78,336.48a.58.58,0,0,1-1.16,0,.58.58,0,0,1,1.16,0Z" style="fill:#fff;stroke:#92989b;stroke-linecap:round;stroke-linejoin:round"></path><path d="M187.64,337.23a.57.57,0,0,1-.58.55.55.55,0,1,1,0-1.1A.57.57,0,0,1,187.64,337.23Z" style="fill:#fff;stroke:#92989b;stroke-linecap:round;stroke-linejoin:round"></path><path d="M189.51,335a.56.56,0,0,1-.57.55.57.57,0,0,1-.58-.55.56.56,0,0,1,.58-.55A.55.55,0,0,1,189.51,335Z" style="fill:#fff;stroke:#92989b;stroke-linecap:round;stroke-linejoin:round"></path><path d="M190.91,332.46a.58.58,0,0,1-1.16,0,.58.58,0,0,1,1.16,0Z" style="fill:#fff;stroke:#92989b;stroke-linecap:round;stroke-linejoin:round"></path><path d="M189.58,339.07a.58.58,0,0,1-1.16,0,.58.58,0,0,1,1.16,0Z" style="fill:#fff;stroke:#92989b;stroke-linecap:round;stroke-linejoin:round"></path><path d="M184.84,332a.58.58,0,0,1-1.16,0,.58.58,0,0,1,1.16,0Z" style="fill:#fff;stroke:#92989b;stroke-linecap:round;stroke-linejoin:round"></path></g></svg>